G04 EAGLE Gerber X2 export*
G75*
%MOIN*%
%FSLAX34Y34*%
%LPD*%
%AMOC8*
5,1,8,0,0,1.08239X$1,22.5*%
G01*
%ADD10C,0.006000*%
%ADD11C,0.000000*%
%ADD12C,0.005118*%
%ADD13C,0.012000*%


D10*
X0Y77000D02*
X150000Y77000D01*
X150000Y9500D01*
X108000Y9500D01*
X28000Y0D02*
X0Y0D01*
X0Y77000D01*
X43000Y31000D02*
X95000Y31000D01*
X108000Y9500D01*
X43000Y31000D02*
X28000Y0D01*
D11*
X123823Y74268D02*
X123825Y74320D01*
X123831Y74372D01*
X123841Y74423D01*
X123854Y74473D01*
X123872Y74523D01*
X123893Y74570D01*
X123917Y74616D01*
X123946Y74660D01*
X123977Y74702D01*
X124011Y74741D01*
X124048Y74778D01*
X124088Y74811D01*
X124131Y74842D01*
X124175Y74869D01*
X124221Y74893D01*
X124270Y74913D01*
X124319Y74929D01*
X124370Y74942D01*
X124421Y74951D01*
X124473Y74956D01*
X124525Y74957D01*
X124577Y74954D01*
X124629Y74947D01*
X124680Y74936D01*
X124730Y74922D01*
X124779Y74903D01*
X124826Y74881D01*
X124871Y74856D01*
X124915Y74827D01*
X124956Y74795D01*
X124995Y74760D01*
X125030Y74722D01*
X125063Y74681D01*
X125093Y74639D01*
X125119Y74594D01*
X125142Y74547D01*
X125161Y74498D01*
X125177Y74448D01*
X125189Y74398D01*
X125197Y74346D01*
X125201Y74294D01*
X125201Y74242D01*
X125197Y74190D01*
X125189Y74138D01*
X125177Y74088D01*
X125161Y74038D01*
X125142Y73989D01*
X125119Y73942D01*
X125093Y73897D01*
X125063Y73855D01*
X125030Y73814D01*
X124995Y73776D01*
X124956Y73741D01*
X124915Y73709D01*
X124871Y73680D01*
X124826Y73655D01*
X124779Y73633D01*
X124730Y73614D01*
X124680Y73600D01*
X124629Y73589D01*
X124577Y73582D01*
X124525Y73579D01*
X124473Y73580D01*
X124421Y73585D01*
X124370Y73594D01*
X124319Y73607D01*
X124270Y73623D01*
X124221Y73643D01*
X124175Y73667D01*
X124131Y73694D01*
X124088Y73725D01*
X124048Y73758D01*
X124011Y73795D01*
X123977Y73834D01*
X123946Y73876D01*
X123917Y73920D01*
X123893Y73966D01*
X123872Y74013D01*
X123854Y74063D01*
X123841Y74113D01*
X123831Y74164D01*
X123825Y74216D01*
X123823Y74268D01*
X140358Y74268D02*
X140360Y74320D01*
X140366Y74372D01*
X140376Y74423D01*
X140389Y74473D01*
X140407Y74523D01*
X140428Y74570D01*
X140452Y74616D01*
X140481Y74660D01*
X140512Y74702D01*
X140546Y74741D01*
X140583Y74778D01*
X140623Y74811D01*
X140666Y74842D01*
X140710Y74869D01*
X140756Y74893D01*
X140805Y74913D01*
X140854Y74929D01*
X140905Y74942D01*
X140956Y74951D01*
X141008Y74956D01*
X141060Y74957D01*
X141112Y74954D01*
X141164Y74947D01*
X141215Y74936D01*
X141265Y74922D01*
X141314Y74903D01*
X141361Y74881D01*
X141406Y74856D01*
X141450Y74827D01*
X141491Y74795D01*
X141530Y74760D01*
X141565Y74722D01*
X141598Y74681D01*
X141628Y74639D01*
X141654Y74594D01*
X141677Y74547D01*
X141696Y74498D01*
X141712Y74448D01*
X141724Y74398D01*
X141732Y74346D01*
X141736Y74294D01*
X141736Y74242D01*
X141732Y74190D01*
X141724Y74138D01*
X141712Y74088D01*
X141696Y74038D01*
X141677Y73989D01*
X141654Y73942D01*
X141628Y73897D01*
X141598Y73855D01*
X141565Y73814D01*
X141530Y73776D01*
X141491Y73741D01*
X141450Y73709D01*
X141406Y73680D01*
X141361Y73655D01*
X141314Y73633D01*
X141265Y73614D01*
X141215Y73600D01*
X141164Y73589D01*
X141112Y73582D01*
X141060Y73579D01*
X141008Y73580D01*
X140956Y73585D01*
X140905Y73594D01*
X140854Y73607D01*
X140805Y73623D01*
X140756Y73643D01*
X140710Y73667D01*
X140666Y73694D01*
X140623Y73725D01*
X140583Y73758D01*
X140546Y73795D01*
X140512Y73834D01*
X140481Y73876D01*
X140452Y73920D01*
X140428Y73966D01*
X140407Y74013D01*
X140389Y74063D01*
X140376Y74113D01*
X140366Y74164D01*
X140360Y74216D01*
X140358Y74268D01*
X140358Y45921D02*
X140360Y45973D01*
X140366Y46025D01*
X140376Y46076D01*
X140389Y46126D01*
X140407Y46176D01*
X140428Y46223D01*
X140452Y46269D01*
X140481Y46313D01*
X140512Y46355D01*
X140546Y46394D01*
X140583Y46431D01*
X140623Y46464D01*
X140666Y46495D01*
X140710Y46522D01*
X140756Y46546D01*
X140805Y46566D01*
X140854Y46582D01*
X140905Y46595D01*
X140956Y46604D01*
X141008Y46609D01*
X141060Y46610D01*
X141112Y46607D01*
X141164Y46600D01*
X141215Y46589D01*
X141265Y46575D01*
X141314Y46556D01*
X141361Y46534D01*
X141406Y46509D01*
X141450Y46480D01*
X141491Y46448D01*
X141530Y46413D01*
X141565Y46375D01*
X141598Y46334D01*
X141628Y46292D01*
X141654Y46247D01*
X141677Y46200D01*
X141696Y46151D01*
X141712Y46101D01*
X141724Y46051D01*
X141732Y45999D01*
X141736Y45947D01*
X141736Y45895D01*
X141732Y45843D01*
X141724Y45791D01*
X141712Y45741D01*
X141696Y45691D01*
X141677Y45642D01*
X141654Y45595D01*
X141628Y45550D01*
X141598Y45508D01*
X141565Y45467D01*
X141530Y45429D01*
X141491Y45394D01*
X141450Y45362D01*
X141406Y45333D01*
X141361Y45308D01*
X141314Y45286D01*
X141265Y45267D01*
X141215Y45253D01*
X141164Y45242D01*
X141112Y45235D01*
X141060Y45232D01*
X141008Y45233D01*
X140956Y45238D01*
X140905Y45247D01*
X140854Y45260D01*
X140805Y45276D01*
X140756Y45296D01*
X140710Y45320D01*
X140666Y45347D01*
X140623Y45378D01*
X140583Y45411D01*
X140546Y45448D01*
X140512Y45487D01*
X140481Y45529D01*
X140452Y45573D01*
X140428Y45619D01*
X140407Y45666D01*
X140389Y45716D01*
X140376Y45766D01*
X140366Y45817D01*
X140360Y45869D01*
X140358Y45921D01*
X123429Y45921D02*
X123431Y45973D01*
X123437Y46025D01*
X123447Y46076D01*
X123460Y46126D01*
X123478Y46176D01*
X123499Y46223D01*
X123523Y46269D01*
X123552Y46313D01*
X123583Y46355D01*
X123617Y46394D01*
X123654Y46431D01*
X123694Y46464D01*
X123737Y46495D01*
X123781Y46522D01*
X123827Y46546D01*
X123876Y46566D01*
X123925Y46582D01*
X123976Y46595D01*
X124027Y46604D01*
X124079Y46609D01*
X124131Y46610D01*
X124183Y46607D01*
X124235Y46600D01*
X124286Y46589D01*
X124336Y46575D01*
X124385Y46556D01*
X124432Y46534D01*
X124477Y46509D01*
X124521Y46480D01*
X124562Y46448D01*
X124601Y46413D01*
X124636Y46375D01*
X124669Y46334D01*
X124699Y46292D01*
X124725Y46247D01*
X124748Y46200D01*
X124767Y46151D01*
X124783Y46101D01*
X124795Y46051D01*
X124803Y45999D01*
X124807Y45947D01*
X124807Y45895D01*
X124803Y45843D01*
X124795Y45791D01*
X124783Y45741D01*
X124767Y45691D01*
X124748Y45642D01*
X124725Y45595D01*
X124699Y45550D01*
X124669Y45508D01*
X124636Y45467D01*
X124601Y45429D01*
X124562Y45394D01*
X124521Y45362D01*
X124477Y45333D01*
X124432Y45308D01*
X124385Y45286D01*
X124336Y45267D01*
X124286Y45253D01*
X124235Y45242D01*
X124183Y45235D01*
X124131Y45232D01*
X124079Y45233D01*
X124027Y45238D01*
X123976Y45247D01*
X123925Y45260D01*
X123876Y45276D01*
X123827Y45296D01*
X123781Y45320D01*
X123737Y45347D01*
X123694Y45378D01*
X123654Y45411D01*
X123617Y45448D01*
X123583Y45487D01*
X123552Y45529D01*
X123523Y45573D01*
X123499Y45619D01*
X123478Y45666D01*
X123460Y45716D01*
X123447Y45766D01*
X123437Y45817D01*
X123431Y45869D01*
X123429Y45921D01*
X97213Y29500D02*
X97215Y29556D01*
X97221Y29611D01*
X97231Y29665D01*
X97244Y29719D01*
X97262Y29772D01*
X97283Y29823D01*
X97307Y29873D01*
X97335Y29921D01*
X97367Y29967D01*
X97401Y30011D01*
X97439Y30052D01*
X97479Y30090D01*
X97522Y30125D01*
X97567Y30157D01*
X97615Y30186D01*
X97664Y30212D01*
X97715Y30234D01*
X97767Y30252D01*
X97821Y30266D01*
X97876Y30277D01*
X97931Y30284D01*
X97986Y30287D01*
X98042Y30286D01*
X98097Y30281D01*
X98152Y30272D01*
X98206Y30260D01*
X98259Y30243D01*
X98311Y30223D01*
X98361Y30199D01*
X98409Y30172D01*
X98456Y30142D01*
X98500Y30108D01*
X98542Y30071D01*
X98580Y30031D01*
X98617Y29989D01*
X98650Y29944D01*
X98679Y29898D01*
X98706Y29849D01*
X98728Y29798D01*
X98748Y29746D01*
X98763Y29692D01*
X98775Y29638D01*
X98783Y29583D01*
X98787Y29528D01*
X98787Y29472D01*
X98783Y29417D01*
X98775Y29362D01*
X98763Y29308D01*
X98748Y29254D01*
X98728Y29202D01*
X98706Y29151D01*
X98679Y29102D01*
X98650Y29056D01*
X98617Y29011D01*
X98580Y28969D01*
X98542Y28929D01*
X98500Y28892D01*
X98456Y28858D01*
X98409Y28828D01*
X98361Y28801D01*
X98311Y28777D01*
X98259Y28757D01*
X98206Y28740D01*
X98152Y28728D01*
X98097Y28719D01*
X98042Y28714D01*
X97986Y28713D01*
X97931Y28716D01*
X97876Y28723D01*
X97821Y28734D01*
X97767Y28748D01*
X97715Y28766D01*
X97664Y28788D01*
X97615Y28814D01*
X97567Y28843D01*
X97522Y28875D01*
X97479Y28910D01*
X97439Y28948D01*
X97401Y28989D01*
X97367Y29033D01*
X97335Y29079D01*
X97307Y29127D01*
X97283Y29177D01*
X97262Y29228D01*
X97244Y29281D01*
X97231Y29335D01*
X97221Y29389D01*
X97215Y29444D01*
X97213Y29500D01*
X74213Y32500D02*
X74215Y32556D01*
X74221Y32611D01*
X74231Y32665D01*
X74244Y32719D01*
X74262Y32772D01*
X74283Y32823D01*
X74307Y32873D01*
X74335Y32921D01*
X74367Y32967D01*
X74401Y33011D01*
X74439Y33052D01*
X74479Y33090D01*
X74522Y33125D01*
X74567Y33157D01*
X74615Y33186D01*
X74664Y33212D01*
X74715Y33234D01*
X74767Y33252D01*
X74821Y33266D01*
X74876Y33277D01*
X74931Y33284D01*
X74986Y33287D01*
X75042Y33286D01*
X75097Y33281D01*
X75152Y33272D01*
X75206Y33260D01*
X75259Y33243D01*
X75311Y33223D01*
X75361Y33199D01*
X75409Y33172D01*
X75456Y33142D01*
X75500Y33108D01*
X75542Y33071D01*
X75580Y33031D01*
X75617Y32989D01*
X75650Y32944D01*
X75679Y32898D01*
X75706Y32849D01*
X75728Y32798D01*
X75748Y32746D01*
X75763Y32692D01*
X75775Y32638D01*
X75783Y32583D01*
X75787Y32528D01*
X75787Y32472D01*
X75783Y32417D01*
X75775Y32362D01*
X75763Y32308D01*
X75748Y32254D01*
X75728Y32202D01*
X75706Y32151D01*
X75679Y32102D01*
X75650Y32056D01*
X75617Y32011D01*
X75580Y31969D01*
X75542Y31929D01*
X75500Y31892D01*
X75456Y31858D01*
X75409Y31828D01*
X75361Y31801D01*
X75311Y31777D01*
X75259Y31757D01*
X75206Y31740D01*
X75152Y31728D01*
X75097Y31719D01*
X75042Y31714D01*
X74986Y31713D01*
X74931Y31716D01*
X74876Y31723D01*
X74821Y31734D01*
X74767Y31748D01*
X74715Y31766D01*
X74664Y31788D01*
X74615Y31814D01*
X74567Y31843D01*
X74522Y31875D01*
X74479Y31910D01*
X74439Y31948D01*
X74401Y31989D01*
X74367Y32033D01*
X74335Y32079D01*
X74307Y32127D01*
X74283Y32177D01*
X74262Y32228D01*
X74244Y32281D01*
X74231Y32335D01*
X74221Y32389D01*
X74215Y32444D01*
X74213Y32500D01*
X39713Y29500D02*
X39715Y29556D01*
X39721Y29611D01*
X39731Y29665D01*
X39744Y29719D01*
X39762Y29772D01*
X39783Y29823D01*
X39807Y29873D01*
X39835Y29921D01*
X39867Y29967D01*
X39901Y30011D01*
X39939Y30052D01*
X39979Y30090D01*
X40022Y30125D01*
X40067Y30157D01*
X40115Y30186D01*
X40164Y30212D01*
X40215Y30234D01*
X40267Y30252D01*
X40321Y30266D01*
X40376Y30277D01*
X40431Y30284D01*
X40486Y30287D01*
X40542Y30286D01*
X40597Y30281D01*
X40652Y30272D01*
X40706Y30260D01*
X40759Y30243D01*
X40811Y30223D01*
X40861Y30199D01*
X40909Y30172D01*
X40956Y30142D01*
X41000Y30108D01*
X41042Y30071D01*
X41080Y30031D01*
X41117Y29989D01*
X41150Y29944D01*
X41179Y29898D01*
X41206Y29849D01*
X41228Y29798D01*
X41248Y29746D01*
X41263Y29692D01*
X41275Y29638D01*
X41283Y29583D01*
X41287Y29528D01*
X41287Y29472D01*
X41283Y29417D01*
X41275Y29362D01*
X41263Y29308D01*
X41248Y29254D01*
X41228Y29202D01*
X41206Y29151D01*
X41179Y29102D01*
X41150Y29056D01*
X41117Y29011D01*
X41080Y28969D01*
X41042Y28929D01*
X41000Y28892D01*
X40956Y28858D01*
X40909Y28828D01*
X40861Y28801D01*
X40811Y28777D01*
X40759Y28757D01*
X40706Y28740D01*
X40652Y28728D01*
X40597Y28719D01*
X40542Y28714D01*
X40486Y28713D01*
X40431Y28716D01*
X40376Y28723D01*
X40321Y28734D01*
X40267Y28748D01*
X40215Y28766D01*
X40164Y28788D01*
X40115Y28814D01*
X40067Y28843D01*
X40022Y28875D01*
X39979Y28910D01*
X39939Y28948D01*
X39901Y28989D01*
X39867Y29033D01*
X39835Y29079D01*
X39807Y29127D01*
X39783Y29177D01*
X39762Y29228D01*
X39744Y29281D01*
X39731Y29335D01*
X39721Y29389D01*
X39715Y29444D01*
X39713Y29500D01*
X27713Y4500D02*
X27715Y4556D01*
X27721Y4611D01*
X27731Y4665D01*
X27744Y4719D01*
X27762Y4772D01*
X27783Y4823D01*
X27807Y4873D01*
X27835Y4921D01*
X27867Y4967D01*
X27901Y5011D01*
X27939Y5052D01*
X27979Y5090D01*
X28022Y5125D01*
X28067Y5157D01*
X28115Y5186D01*
X28164Y5212D01*
X28215Y5234D01*
X28267Y5252D01*
X28321Y5266D01*
X28376Y5277D01*
X28431Y5284D01*
X28486Y5287D01*
X28542Y5286D01*
X28597Y5281D01*
X28652Y5272D01*
X28706Y5260D01*
X28759Y5243D01*
X28811Y5223D01*
X28861Y5199D01*
X28909Y5172D01*
X28956Y5142D01*
X29000Y5108D01*
X29042Y5071D01*
X29080Y5031D01*
X29117Y4989D01*
X29150Y4944D01*
X29179Y4898D01*
X29206Y4849D01*
X29228Y4798D01*
X29248Y4746D01*
X29263Y4692D01*
X29275Y4638D01*
X29283Y4583D01*
X29287Y4528D01*
X29287Y4472D01*
X29283Y4417D01*
X29275Y4362D01*
X29263Y4308D01*
X29248Y4254D01*
X29228Y4202D01*
X29206Y4151D01*
X29179Y4102D01*
X29150Y4056D01*
X29117Y4011D01*
X29080Y3969D01*
X29042Y3929D01*
X29000Y3892D01*
X28956Y3858D01*
X28909Y3828D01*
X28861Y3801D01*
X28811Y3777D01*
X28759Y3757D01*
X28706Y3740D01*
X28652Y3728D01*
X28597Y3719D01*
X28542Y3714D01*
X28486Y3713D01*
X28431Y3716D01*
X28376Y3723D01*
X28321Y3734D01*
X28267Y3748D01*
X28215Y3766D01*
X28164Y3788D01*
X28115Y3814D01*
X28067Y3843D01*
X28022Y3875D01*
X27979Y3910D01*
X27939Y3948D01*
X27901Y3989D01*
X27867Y4033D01*
X27835Y4079D01*
X27807Y4127D01*
X27783Y4177D01*
X27762Y4228D01*
X27744Y4281D01*
X27731Y4335D01*
X27721Y4389D01*
X27715Y4444D01*
X27713Y4500D01*
X713Y75500D02*
X715Y75556D01*
X721Y75611D01*
X731Y75665D01*
X744Y75719D01*
X762Y75772D01*
X783Y75823D01*
X807Y75873D01*
X835Y75921D01*
X867Y75967D01*
X901Y76011D01*
X939Y76052D01*
X979Y76090D01*
X1022Y76125D01*
X1067Y76157D01*
X1115Y76186D01*
X1164Y76212D01*
X1215Y76234D01*
X1267Y76252D01*
X1321Y76266D01*
X1376Y76277D01*
X1431Y76284D01*
X1486Y76287D01*
X1542Y76286D01*
X1597Y76281D01*
X1652Y76272D01*
X1706Y76260D01*
X1759Y76243D01*
X1811Y76223D01*
X1861Y76199D01*
X1909Y76172D01*
X1956Y76142D01*
X2000Y76108D01*
X2042Y76071D01*
X2080Y76031D01*
X2117Y75989D01*
X2150Y75944D01*
X2179Y75898D01*
X2206Y75849D01*
X2228Y75798D01*
X2248Y75746D01*
X2263Y75692D01*
X2275Y75638D01*
X2283Y75583D01*
X2287Y75528D01*
X2287Y75472D01*
X2283Y75417D01*
X2275Y75362D01*
X2263Y75308D01*
X2248Y75254D01*
X2228Y75202D01*
X2206Y75151D01*
X2179Y75102D01*
X2150Y75056D01*
X2117Y75011D01*
X2080Y74969D01*
X2042Y74929D01*
X2000Y74892D01*
X1956Y74858D01*
X1909Y74828D01*
X1861Y74801D01*
X1811Y74777D01*
X1759Y74757D01*
X1706Y74740D01*
X1652Y74728D01*
X1597Y74719D01*
X1542Y74714D01*
X1486Y74713D01*
X1431Y74716D01*
X1376Y74723D01*
X1321Y74734D01*
X1267Y74748D01*
X1215Y74766D01*
X1164Y74788D01*
X1115Y74814D01*
X1067Y74843D01*
X1022Y74875D01*
X979Y74910D01*
X939Y74948D01*
X901Y74989D01*
X867Y75033D01*
X835Y75079D01*
X807Y75127D01*
X783Y75177D01*
X762Y75228D01*
X744Y75281D01*
X731Y75335D01*
X721Y75389D01*
X715Y75444D01*
X713Y75500D01*
X75213Y75500D02*
X75215Y75556D01*
X75221Y75611D01*
X75231Y75665D01*
X75244Y75719D01*
X75262Y75772D01*
X75283Y75823D01*
X75307Y75873D01*
X75335Y75921D01*
X75367Y75967D01*
X75401Y76011D01*
X75439Y76052D01*
X75479Y76090D01*
X75522Y76125D01*
X75567Y76157D01*
X75615Y76186D01*
X75664Y76212D01*
X75715Y76234D01*
X75767Y76252D01*
X75821Y76266D01*
X75876Y76277D01*
X75931Y76284D01*
X75986Y76287D01*
X76042Y76286D01*
X76097Y76281D01*
X76152Y76272D01*
X76206Y76260D01*
X76259Y76243D01*
X76311Y76223D01*
X76361Y76199D01*
X76409Y76172D01*
X76456Y76142D01*
X76500Y76108D01*
X76542Y76071D01*
X76580Y76031D01*
X76617Y75989D01*
X76650Y75944D01*
X76679Y75898D01*
X76706Y75849D01*
X76728Y75798D01*
X76748Y75746D01*
X76763Y75692D01*
X76775Y75638D01*
X76783Y75583D01*
X76787Y75528D01*
X76787Y75472D01*
X76783Y75417D01*
X76775Y75362D01*
X76763Y75308D01*
X76748Y75254D01*
X76728Y75202D01*
X76706Y75151D01*
X76679Y75102D01*
X76650Y75056D01*
X76617Y75011D01*
X76580Y74969D01*
X76542Y74929D01*
X76500Y74892D01*
X76456Y74858D01*
X76409Y74828D01*
X76361Y74801D01*
X76311Y74777D01*
X76259Y74757D01*
X76206Y74740D01*
X76152Y74728D01*
X76097Y74719D01*
X76042Y74714D01*
X75986Y74713D01*
X75931Y74716D01*
X75876Y74723D01*
X75821Y74734D01*
X75767Y74748D01*
X75715Y74766D01*
X75664Y74788D01*
X75615Y74814D01*
X75567Y74843D01*
X75522Y74875D01*
X75479Y74910D01*
X75439Y74948D01*
X75401Y74989D01*
X75367Y75033D01*
X75335Y75079D01*
X75307Y75127D01*
X75283Y75177D01*
X75262Y75228D01*
X75244Y75281D01*
X75231Y75335D01*
X75221Y75389D01*
X75215Y75444D01*
X75213Y75500D01*
X147713Y75500D02*
X147715Y75556D01*
X147721Y75611D01*
X147731Y75665D01*
X147744Y75719D01*
X147762Y75772D01*
X147783Y75823D01*
X147807Y75873D01*
X147835Y75921D01*
X147867Y75967D01*
X147901Y76011D01*
X147939Y76052D01*
X147979Y76090D01*
X148022Y76125D01*
X148067Y76157D01*
X148115Y76186D01*
X148164Y76212D01*
X148215Y76234D01*
X148267Y76252D01*
X148321Y76266D01*
X148376Y76277D01*
X148431Y76284D01*
X148486Y76287D01*
X148542Y76286D01*
X148597Y76281D01*
X148652Y76272D01*
X148706Y76260D01*
X148759Y76243D01*
X148811Y76223D01*
X148861Y76199D01*
X148909Y76172D01*
X148956Y76142D01*
X149000Y76108D01*
X149042Y76071D01*
X149080Y76031D01*
X149117Y75989D01*
X149150Y75944D01*
X149179Y75898D01*
X149206Y75849D01*
X149228Y75798D01*
X149248Y75746D01*
X149263Y75692D01*
X149275Y75638D01*
X149283Y75583D01*
X149287Y75528D01*
X149287Y75472D01*
X149283Y75417D01*
X149275Y75362D01*
X149263Y75308D01*
X149248Y75254D01*
X149228Y75202D01*
X149206Y75151D01*
X149179Y75102D01*
X149150Y75056D01*
X149117Y75011D01*
X149080Y74969D01*
X149042Y74929D01*
X149000Y74892D01*
X148956Y74858D01*
X148909Y74828D01*
X148861Y74801D01*
X148811Y74777D01*
X148759Y74757D01*
X148706Y74740D01*
X148652Y74728D01*
X148597Y74719D01*
X148542Y74714D01*
X148486Y74713D01*
X148431Y74716D01*
X148376Y74723D01*
X148321Y74734D01*
X148267Y74748D01*
X148215Y74766D01*
X148164Y74788D01*
X148115Y74814D01*
X148067Y74843D01*
X148022Y74875D01*
X147979Y74910D01*
X147939Y74948D01*
X147901Y74989D01*
X147867Y75033D01*
X147835Y75079D01*
X147807Y75127D01*
X147783Y75177D01*
X147762Y75228D01*
X147744Y75281D01*
X147731Y75335D01*
X147721Y75389D01*
X147715Y75444D01*
X147713Y75500D01*
X147713Y11000D02*
X147715Y11056D01*
X147721Y11111D01*
X147731Y11165D01*
X147744Y11219D01*
X147762Y11272D01*
X147783Y11323D01*
X147807Y11373D01*
X147835Y11421D01*
X147867Y11467D01*
X147901Y11511D01*
X147939Y11552D01*
X147979Y11590D01*
X148022Y11625D01*
X148067Y11657D01*
X148115Y11686D01*
X148164Y11712D01*
X148215Y11734D01*
X148267Y11752D01*
X148321Y11766D01*
X148376Y11777D01*
X148431Y11784D01*
X148486Y11787D01*
X148542Y11786D01*
X148597Y11781D01*
X148652Y11772D01*
X148706Y11760D01*
X148759Y11743D01*
X148811Y11723D01*
X148861Y11699D01*
X148909Y11672D01*
X148956Y11642D01*
X149000Y11608D01*
X149042Y11571D01*
X149080Y11531D01*
X149117Y11489D01*
X149150Y11444D01*
X149179Y11398D01*
X149206Y11349D01*
X149228Y11298D01*
X149248Y11246D01*
X149263Y11192D01*
X149275Y11138D01*
X149283Y11083D01*
X149287Y11028D01*
X149287Y10972D01*
X149283Y10917D01*
X149275Y10862D01*
X149263Y10808D01*
X149248Y10754D01*
X149228Y10702D01*
X149206Y10651D01*
X149179Y10602D01*
X149150Y10556D01*
X149117Y10511D01*
X149080Y10469D01*
X149042Y10429D01*
X149000Y10392D01*
X148956Y10358D01*
X148909Y10328D01*
X148861Y10301D01*
X148811Y10277D01*
X148759Y10257D01*
X148706Y10240D01*
X148652Y10228D01*
X148597Y10219D01*
X148542Y10214D01*
X148486Y10213D01*
X148431Y10216D01*
X148376Y10223D01*
X148321Y10234D01*
X148267Y10248D01*
X148215Y10266D01*
X148164Y10288D01*
X148115Y10314D01*
X148067Y10343D01*
X148022Y10375D01*
X147979Y10410D01*
X147939Y10448D01*
X147901Y10489D01*
X147867Y10533D01*
X147835Y10579D01*
X147807Y10627D01*
X147783Y10677D01*
X147762Y10728D01*
X147744Y10781D01*
X147731Y10835D01*
X147721Y10889D01*
X147715Y10944D01*
X147713Y11000D01*
X108213Y11000D02*
X108215Y11056D01*
X108221Y11111D01*
X108231Y11165D01*
X108244Y11219D01*
X108262Y11272D01*
X108283Y11323D01*
X108307Y11373D01*
X108335Y11421D01*
X108367Y11467D01*
X108401Y11511D01*
X108439Y11552D01*
X108479Y11590D01*
X108522Y11625D01*
X108567Y11657D01*
X108615Y11686D01*
X108664Y11712D01*
X108715Y11734D01*
X108767Y11752D01*
X108821Y11766D01*
X108876Y11777D01*
X108931Y11784D01*
X108986Y11787D01*
X109042Y11786D01*
X109097Y11781D01*
X109152Y11772D01*
X109206Y11760D01*
X109259Y11743D01*
X109311Y11723D01*
X109361Y11699D01*
X109409Y11672D01*
X109456Y11642D01*
X109500Y11608D01*
X109542Y11571D01*
X109580Y11531D01*
X109617Y11489D01*
X109650Y11444D01*
X109679Y11398D01*
X109706Y11349D01*
X109728Y11298D01*
X109748Y11246D01*
X109763Y11192D01*
X109775Y11138D01*
X109783Y11083D01*
X109787Y11028D01*
X109787Y10972D01*
X109783Y10917D01*
X109775Y10862D01*
X109763Y10808D01*
X109748Y10754D01*
X109728Y10702D01*
X109706Y10651D01*
X109679Y10602D01*
X109650Y10556D01*
X109617Y10511D01*
X109580Y10469D01*
X109542Y10429D01*
X109500Y10392D01*
X109456Y10358D01*
X109409Y10328D01*
X109361Y10301D01*
X109311Y10277D01*
X109259Y10257D01*
X109206Y10240D01*
X109152Y10228D01*
X109097Y10219D01*
X109042Y10214D01*
X108986Y10213D01*
X108931Y10216D01*
X108876Y10223D01*
X108821Y10234D01*
X108767Y10248D01*
X108715Y10266D01*
X108664Y10288D01*
X108615Y10314D01*
X108567Y10343D01*
X108522Y10375D01*
X108479Y10410D01*
X108439Y10448D01*
X108401Y10489D01*
X108367Y10533D01*
X108335Y10579D01*
X108307Y10627D01*
X108283Y10677D01*
X108262Y10728D01*
X108244Y10781D01*
X108231Y10835D01*
X108221Y10889D01*
X108215Y10944D01*
X108213Y11000D01*
X147713Y47000D02*
X147715Y47056D01*
X147721Y47111D01*
X147731Y47165D01*
X147744Y47219D01*
X147762Y47272D01*
X147783Y47323D01*
X147807Y47373D01*
X147835Y47421D01*
X147867Y47467D01*
X147901Y47511D01*
X147939Y47552D01*
X147979Y47590D01*
X148022Y47625D01*
X148067Y47657D01*
X148115Y47686D01*
X148164Y47712D01*
X148215Y47734D01*
X148267Y47752D01*
X148321Y47766D01*
X148376Y47777D01*
X148431Y47784D01*
X148486Y47787D01*
X148542Y47786D01*
X148597Y47781D01*
X148652Y47772D01*
X148706Y47760D01*
X148759Y47743D01*
X148811Y47723D01*
X148861Y47699D01*
X148909Y47672D01*
X148956Y47642D01*
X149000Y47608D01*
X149042Y47571D01*
X149080Y47531D01*
X149117Y47489D01*
X149150Y47444D01*
X149179Y47398D01*
X149206Y47349D01*
X149228Y47298D01*
X149248Y47246D01*
X149263Y47192D01*
X149275Y47138D01*
X149283Y47083D01*
X149287Y47028D01*
X149287Y46972D01*
X149283Y46917D01*
X149275Y46862D01*
X149263Y46808D01*
X149248Y46754D01*
X149228Y46702D01*
X149206Y46651D01*
X149179Y46602D01*
X149150Y46556D01*
X149117Y46511D01*
X149080Y46469D01*
X149042Y46429D01*
X149000Y46392D01*
X148956Y46358D01*
X148909Y46328D01*
X148861Y46301D01*
X148811Y46277D01*
X148759Y46257D01*
X148706Y46240D01*
X148652Y46228D01*
X148597Y46219D01*
X148542Y46214D01*
X148486Y46213D01*
X148431Y46216D01*
X148376Y46223D01*
X148321Y46234D01*
X148267Y46248D01*
X148215Y46266D01*
X148164Y46288D01*
X148115Y46314D01*
X148067Y46343D01*
X148022Y46375D01*
X147979Y46410D01*
X147939Y46448D01*
X147901Y46489D01*
X147867Y46533D01*
X147835Y46579D01*
X147807Y46627D01*
X147783Y46677D01*
X147762Y46728D01*
X147744Y46781D01*
X147731Y46835D01*
X147721Y46889D01*
X147715Y46944D01*
X147713Y47000D01*
D12*
X0Y77000D02*
X0Y85768D01*
X150000Y85768D02*
X150000Y77000D01*
X149974Y85000D02*
X26Y85000D01*
X1024Y85126D01*
X1024Y84874D01*
X26Y85000D01*
X1024Y85051D01*
X1024Y84949D02*
X26Y85000D01*
X1024Y85102D01*
X1024Y84898D02*
X26Y85000D01*
X148976Y85126D02*
X149974Y85000D01*
X148976Y85126D02*
X148976Y84874D01*
X149974Y85000D01*
X148976Y85051D01*
X148976Y84949D02*
X149974Y85000D01*
X148976Y85102D01*
X148976Y84898D02*
X149974Y85000D01*
D13*
X69606Y86866D02*
X69223Y86560D01*
X69606Y86866D02*
X69606Y85486D01*
X69223Y85486D02*
X69990Y85486D01*
X70348Y85486D02*
X70808Y85486D01*
X70840Y85488D01*
X70872Y85493D01*
X70903Y85501D01*
X70933Y85513D01*
X70962Y85527D01*
X70988Y85545D01*
X71013Y85565D01*
X71036Y85588D01*
X71056Y85613D01*
X71074Y85640D01*
X71088Y85668D01*
X71100Y85698D01*
X71108Y85729D01*
X71113Y85761D01*
X71115Y85793D01*
X71115Y85946D01*
X71113Y85978D01*
X71108Y86010D01*
X71100Y86041D01*
X71088Y86071D01*
X71074Y86100D01*
X71056Y86126D01*
X71036Y86151D01*
X71013Y86174D01*
X70988Y86194D01*
X70962Y86212D01*
X70933Y86226D01*
X70903Y86238D01*
X70872Y86246D01*
X70840Y86251D01*
X70808Y86253D01*
X70348Y86253D01*
X70348Y86866D01*
X71115Y86866D01*
X71588Y86674D02*
X71561Y86616D01*
X71538Y86555D01*
X71518Y86494D01*
X71502Y86432D01*
X71489Y86368D01*
X71480Y86305D01*
X71475Y86240D01*
X71473Y86176D01*
X71587Y86675D02*
X71599Y86705D01*
X71615Y86733D01*
X71633Y86759D01*
X71654Y86783D01*
X71678Y86804D01*
X71704Y86823D01*
X71732Y86839D01*
X71762Y86851D01*
X71792Y86860D01*
X71824Y86865D01*
X71856Y86867D01*
X71888Y86865D01*
X71920Y86860D01*
X71950Y86851D01*
X71980Y86839D01*
X72008Y86823D01*
X72034Y86804D01*
X72058Y86783D01*
X72079Y86759D01*
X72097Y86733D01*
X72113Y86705D01*
X72125Y86675D01*
X72124Y86674D02*
X72151Y86616D01*
X72174Y86555D01*
X72194Y86494D01*
X72210Y86432D01*
X72223Y86368D01*
X72232Y86305D01*
X72237Y86240D01*
X72239Y86176D01*
X71473Y86176D02*
X71475Y86112D01*
X71480Y86047D01*
X71489Y85984D01*
X71502Y85920D01*
X71518Y85858D01*
X71538Y85797D01*
X71561Y85736D01*
X71588Y85678D01*
X71587Y85678D02*
X71599Y85648D01*
X71615Y85620D01*
X71633Y85594D01*
X71654Y85570D01*
X71678Y85549D01*
X71704Y85530D01*
X71732Y85514D01*
X71762Y85502D01*
X71792Y85493D01*
X71824Y85488D01*
X71856Y85486D01*
X72124Y85678D02*
X72151Y85736D01*
X72174Y85797D01*
X72194Y85858D01*
X72210Y85920D01*
X72223Y85984D01*
X72232Y86047D01*
X72237Y86112D01*
X72239Y86176D01*
X72125Y85678D02*
X72113Y85648D01*
X72097Y85620D01*
X72079Y85594D01*
X72058Y85570D01*
X72034Y85549D01*
X72008Y85530D01*
X71980Y85514D01*
X71950Y85502D01*
X71920Y85493D01*
X71888Y85488D01*
X71856Y85486D01*
X71550Y85793D02*
X72163Y86560D01*
X72713Y86674D02*
X72686Y86616D01*
X72663Y86555D01*
X72643Y86494D01*
X72627Y86432D01*
X72614Y86368D01*
X72605Y86305D01*
X72600Y86240D01*
X72598Y86176D01*
X72712Y86675D02*
X72724Y86705D01*
X72740Y86733D01*
X72758Y86759D01*
X72779Y86783D01*
X72803Y86804D01*
X72829Y86823D01*
X72857Y86839D01*
X72887Y86851D01*
X72917Y86860D01*
X72949Y86865D01*
X72981Y86867D01*
X73013Y86865D01*
X73045Y86860D01*
X73075Y86851D01*
X73105Y86839D01*
X73133Y86823D01*
X73159Y86804D01*
X73183Y86783D01*
X73204Y86759D01*
X73222Y86733D01*
X73238Y86705D01*
X73250Y86675D01*
X73249Y86674D02*
X73276Y86616D01*
X73299Y86555D01*
X73319Y86494D01*
X73335Y86432D01*
X73348Y86368D01*
X73357Y86305D01*
X73362Y86240D01*
X73364Y86176D01*
X72598Y86176D02*
X72600Y86112D01*
X72605Y86047D01*
X72614Y85984D01*
X72627Y85920D01*
X72643Y85858D01*
X72663Y85797D01*
X72686Y85736D01*
X72713Y85678D01*
X72712Y85678D02*
X72724Y85648D01*
X72740Y85620D01*
X72758Y85594D01*
X72779Y85570D01*
X72803Y85549D01*
X72829Y85530D01*
X72857Y85514D01*
X72887Y85502D01*
X72917Y85493D01*
X72949Y85488D01*
X72981Y85486D01*
X73249Y85678D02*
X73276Y85736D01*
X73299Y85797D01*
X73319Y85858D01*
X73335Y85920D01*
X73348Y85984D01*
X73357Y86047D01*
X73362Y86112D01*
X73364Y86176D01*
X73250Y85678D02*
X73238Y85648D01*
X73222Y85620D01*
X73204Y85594D01*
X73183Y85570D01*
X73159Y85549D01*
X73133Y85530D01*
X73105Y85514D01*
X73075Y85502D01*
X73045Y85493D01*
X73013Y85488D01*
X72981Y85486D01*
X72675Y85793D02*
X73288Y86560D01*
X73838Y86674D02*
X73811Y86616D01*
X73788Y86555D01*
X73768Y86494D01*
X73752Y86432D01*
X73739Y86368D01*
X73730Y86305D01*
X73725Y86240D01*
X73723Y86176D01*
X73837Y86675D02*
X73849Y86705D01*
X73865Y86733D01*
X73883Y86759D01*
X73904Y86783D01*
X73928Y86804D01*
X73954Y86823D01*
X73982Y86839D01*
X74012Y86851D01*
X74042Y86860D01*
X74074Y86865D01*
X74106Y86867D01*
X74138Y86865D01*
X74170Y86860D01*
X74200Y86851D01*
X74230Y86839D01*
X74258Y86823D01*
X74284Y86804D01*
X74308Y86783D01*
X74329Y86759D01*
X74347Y86733D01*
X74363Y86705D01*
X74375Y86675D01*
X74374Y86674D02*
X74401Y86616D01*
X74424Y86555D01*
X74444Y86494D01*
X74460Y86432D01*
X74473Y86368D01*
X74482Y86305D01*
X74487Y86240D01*
X74489Y86176D01*
X73723Y86176D02*
X73725Y86112D01*
X73730Y86047D01*
X73739Y85984D01*
X73752Y85920D01*
X73768Y85858D01*
X73788Y85797D01*
X73811Y85736D01*
X73838Y85678D01*
X73837Y85678D02*
X73849Y85648D01*
X73865Y85620D01*
X73883Y85594D01*
X73904Y85570D01*
X73928Y85549D01*
X73954Y85530D01*
X73982Y85514D01*
X74012Y85502D01*
X74042Y85493D01*
X74074Y85488D01*
X74106Y85486D01*
X74374Y85678D02*
X74401Y85736D01*
X74424Y85797D01*
X74444Y85858D01*
X74460Y85920D01*
X74473Y85984D01*
X74482Y86047D01*
X74487Y86112D01*
X74489Y86176D01*
X74375Y85678D02*
X74363Y85648D01*
X74347Y85620D01*
X74329Y85594D01*
X74308Y85570D01*
X74284Y85549D01*
X74258Y85530D01*
X74230Y85514D01*
X74200Y85502D01*
X74170Y85493D01*
X74138Y85488D01*
X74106Y85486D01*
X73800Y85793D02*
X74413Y86560D01*
X74856Y85563D02*
X74856Y85486D01*
X74856Y85563D02*
X74932Y85563D01*
X74932Y85486D01*
X74856Y85486D01*
X75298Y86176D02*
X75300Y86240D01*
X75305Y86305D01*
X75314Y86368D01*
X75327Y86432D01*
X75343Y86494D01*
X75363Y86555D01*
X75386Y86616D01*
X75413Y86674D01*
X75412Y86675D02*
X75424Y86705D01*
X75440Y86733D01*
X75458Y86759D01*
X75479Y86783D01*
X75503Y86804D01*
X75529Y86823D01*
X75557Y86839D01*
X75587Y86851D01*
X75617Y86860D01*
X75649Y86865D01*
X75681Y86867D01*
X75713Y86865D01*
X75745Y86860D01*
X75775Y86851D01*
X75805Y86839D01*
X75833Y86823D01*
X75859Y86804D01*
X75883Y86783D01*
X75904Y86759D01*
X75922Y86733D01*
X75938Y86705D01*
X75950Y86675D01*
X75949Y86674D02*
X75976Y86616D01*
X75999Y86555D01*
X76019Y86494D01*
X76035Y86432D01*
X76048Y86368D01*
X76057Y86305D01*
X76062Y86240D01*
X76064Y86176D01*
X75298Y86176D02*
X75300Y86112D01*
X75305Y86047D01*
X75314Y85984D01*
X75327Y85920D01*
X75343Y85858D01*
X75363Y85797D01*
X75386Y85736D01*
X75413Y85678D01*
X75412Y85678D02*
X75424Y85648D01*
X75440Y85620D01*
X75458Y85594D01*
X75479Y85570D01*
X75503Y85549D01*
X75529Y85530D01*
X75557Y85514D01*
X75587Y85502D01*
X75617Y85493D01*
X75649Y85488D01*
X75681Y85486D01*
X75949Y85678D02*
X75976Y85736D01*
X75999Y85797D01*
X76019Y85858D01*
X76035Y85920D01*
X76048Y85984D01*
X76057Y86047D01*
X76062Y86112D01*
X76064Y86176D01*
X75950Y85678D02*
X75938Y85648D01*
X75922Y85620D01*
X75904Y85594D01*
X75883Y85570D01*
X75859Y85549D01*
X75833Y85530D01*
X75805Y85514D01*
X75775Y85502D01*
X75745Y85493D01*
X75713Y85488D01*
X75681Y85486D01*
X75375Y85793D02*
X75988Y86560D01*
X76538Y86674D02*
X76511Y86616D01*
X76488Y86555D01*
X76468Y86494D01*
X76452Y86432D01*
X76439Y86368D01*
X76430Y86305D01*
X76425Y86240D01*
X76423Y86176D01*
X76537Y86675D02*
X76549Y86705D01*
X76565Y86733D01*
X76583Y86759D01*
X76604Y86783D01*
X76628Y86804D01*
X76654Y86823D01*
X76682Y86839D01*
X76712Y86851D01*
X76742Y86860D01*
X76774Y86865D01*
X76806Y86867D01*
X76838Y86865D01*
X76870Y86860D01*
X76900Y86851D01*
X76930Y86839D01*
X76958Y86823D01*
X76984Y86804D01*
X77008Y86783D01*
X77029Y86759D01*
X77047Y86733D01*
X77063Y86705D01*
X77075Y86675D01*
X77074Y86674D02*
X77101Y86616D01*
X77124Y86555D01*
X77144Y86494D01*
X77160Y86432D01*
X77173Y86368D01*
X77182Y86305D01*
X77187Y86240D01*
X77189Y86176D01*
X76423Y86176D02*
X76425Y86112D01*
X76430Y86047D01*
X76439Y85984D01*
X76452Y85920D01*
X76468Y85858D01*
X76488Y85797D01*
X76511Y85736D01*
X76538Y85678D01*
X76537Y85678D02*
X76549Y85648D01*
X76565Y85620D01*
X76583Y85594D01*
X76604Y85570D01*
X76628Y85549D01*
X76654Y85530D01*
X76682Y85514D01*
X76712Y85502D01*
X76742Y85493D01*
X76774Y85488D01*
X76806Y85486D01*
X77074Y85678D02*
X77101Y85736D01*
X77124Y85797D01*
X77144Y85858D01*
X77160Y85920D01*
X77173Y85984D01*
X77182Y86047D01*
X77187Y86112D01*
X77189Y86176D01*
X77075Y85678D02*
X77063Y85648D01*
X77047Y85620D01*
X77029Y85594D01*
X77008Y85570D01*
X76984Y85549D01*
X76958Y85530D01*
X76930Y85514D01*
X76900Y85502D01*
X76870Y85493D01*
X76838Y85488D01*
X76806Y85486D01*
X76500Y85793D02*
X77113Y86560D01*
X77584Y86406D02*
X77584Y85486D01*
X77584Y86406D02*
X78274Y86406D01*
X78302Y86404D01*
X78329Y86399D01*
X78356Y86391D01*
X78381Y86380D01*
X78405Y86365D01*
X78427Y86348D01*
X78446Y86329D01*
X78463Y86307D01*
X78478Y86283D01*
X78489Y86258D01*
X78497Y86231D01*
X78502Y86204D01*
X78504Y86176D01*
X78504Y85486D01*
X78044Y85486D02*
X78044Y86406D01*
X78944Y86406D02*
X78944Y85486D01*
X78906Y86790D02*
X78906Y86866D01*
X78982Y86866D01*
X78982Y86790D01*
X78906Y86790D01*
X79391Y86866D02*
X79391Y85716D01*
X79393Y85688D01*
X79398Y85661D01*
X79406Y85634D01*
X79417Y85609D01*
X79432Y85585D01*
X79449Y85563D01*
X79468Y85544D01*
X79490Y85527D01*
X79514Y85512D01*
X79539Y85501D01*
X79566Y85493D01*
X79593Y85488D01*
X79621Y85486D01*
D12*
X0Y77000D02*
X-8768Y77000D01*
X-8768Y0D02*
X0Y0D01*
X-8000Y26D02*
X-8000Y76974D01*
X-8126Y75976D01*
X-7874Y75976D01*
X-8000Y76974D01*
X-8051Y75976D01*
X-7949Y75976D02*
X-8000Y76974D01*
X-8102Y75976D01*
X-7898Y75976D02*
X-8000Y76974D01*
X-8126Y1024D02*
X-8000Y26D01*
X-8126Y1024D02*
X-7874Y1024D01*
X-8000Y26D01*
X-8051Y1024D01*
X-7949Y1024D02*
X-8000Y26D01*
X-8102Y1024D01*
X-7898Y1024D02*
X-8000Y26D01*
D13*
X-9713Y33319D02*
X-9866Y33319D01*
X-9866Y34085D01*
X-8486Y33702D01*
X-9713Y34444D02*
X-9866Y34444D01*
X-9866Y35210D01*
X-8486Y34827D01*
X-9176Y35569D02*
X-9240Y35571D01*
X-9305Y35576D01*
X-9368Y35585D01*
X-9432Y35598D01*
X-9494Y35614D01*
X-9555Y35634D01*
X-9616Y35657D01*
X-9674Y35684D01*
X-9675Y35683D02*
X-9705Y35695D01*
X-9733Y35711D01*
X-9759Y35729D01*
X-9783Y35750D01*
X-9804Y35774D01*
X-9823Y35800D01*
X-9839Y35828D01*
X-9851Y35858D01*
X-9860Y35888D01*
X-9865Y35920D01*
X-9867Y35952D01*
X-9865Y35984D01*
X-9860Y36016D01*
X-9851Y36046D01*
X-9839Y36076D01*
X-9823Y36104D01*
X-9804Y36130D01*
X-9783Y36154D01*
X-9759Y36175D01*
X-9733Y36193D01*
X-9705Y36209D01*
X-9675Y36221D01*
X-9674Y36220D02*
X-9616Y36247D01*
X-9555Y36270D01*
X-9494Y36290D01*
X-9432Y36306D01*
X-9368Y36319D01*
X-9305Y36328D01*
X-9240Y36333D01*
X-9176Y36335D01*
X-9176Y35569D02*
X-9112Y35571D01*
X-9047Y35576D01*
X-8984Y35585D01*
X-8920Y35598D01*
X-8858Y35614D01*
X-8797Y35634D01*
X-8736Y35657D01*
X-8678Y35684D01*
X-8678Y35683D02*
X-8648Y35695D01*
X-8620Y35711D01*
X-8594Y35729D01*
X-8570Y35750D01*
X-8549Y35774D01*
X-8530Y35800D01*
X-8514Y35828D01*
X-8502Y35858D01*
X-8493Y35888D01*
X-8488Y35920D01*
X-8486Y35952D01*
X-8678Y36220D02*
X-8736Y36247D01*
X-8797Y36270D01*
X-8858Y36290D01*
X-8920Y36306D01*
X-8984Y36319D01*
X-9047Y36328D01*
X-9112Y36333D01*
X-9176Y36335D01*
X-8678Y36221D02*
X-8648Y36209D01*
X-8620Y36193D01*
X-8594Y36175D01*
X-8570Y36154D01*
X-8549Y36130D01*
X-8530Y36104D01*
X-8514Y36076D01*
X-8502Y36046D01*
X-8493Y36016D01*
X-8488Y35984D01*
X-8486Y35952D01*
X-8793Y35645D02*
X-9560Y36259D01*
X-9674Y36809D02*
X-9616Y36782D01*
X-9555Y36759D01*
X-9494Y36739D01*
X-9432Y36723D01*
X-9368Y36710D01*
X-9305Y36701D01*
X-9240Y36696D01*
X-9176Y36694D01*
X-9675Y36808D02*
X-9705Y36820D01*
X-9733Y36836D01*
X-9759Y36854D01*
X-9783Y36875D01*
X-9804Y36899D01*
X-9823Y36925D01*
X-9839Y36953D01*
X-9851Y36983D01*
X-9860Y37013D01*
X-9865Y37045D01*
X-9867Y37077D01*
X-9865Y37109D01*
X-9860Y37141D01*
X-9851Y37171D01*
X-9839Y37201D01*
X-9823Y37229D01*
X-9804Y37255D01*
X-9783Y37279D01*
X-9759Y37300D01*
X-9733Y37318D01*
X-9705Y37334D01*
X-9675Y37346D01*
X-9674Y37345D02*
X-9616Y37372D01*
X-9555Y37395D01*
X-9494Y37415D01*
X-9432Y37431D01*
X-9368Y37444D01*
X-9305Y37453D01*
X-9240Y37458D01*
X-9176Y37460D01*
X-9176Y36694D02*
X-9112Y36696D01*
X-9047Y36701D01*
X-8984Y36710D01*
X-8920Y36723D01*
X-8858Y36739D01*
X-8797Y36759D01*
X-8736Y36782D01*
X-8678Y36809D01*
X-8678Y36808D02*
X-8648Y36820D01*
X-8620Y36836D01*
X-8594Y36854D01*
X-8570Y36875D01*
X-8549Y36899D01*
X-8530Y36925D01*
X-8514Y36953D01*
X-8502Y36983D01*
X-8493Y37013D01*
X-8488Y37045D01*
X-8486Y37077D01*
X-8678Y37345D02*
X-8736Y37372D01*
X-8797Y37395D01*
X-8858Y37415D01*
X-8920Y37431D01*
X-8984Y37444D01*
X-9047Y37453D01*
X-9112Y37458D01*
X-9176Y37460D01*
X-8678Y37346D02*
X-8648Y37334D01*
X-8620Y37318D01*
X-8594Y37300D01*
X-8570Y37279D01*
X-8549Y37255D01*
X-8530Y37229D01*
X-8514Y37201D01*
X-8502Y37171D01*
X-8493Y37141D01*
X-8488Y37109D01*
X-8486Y37077D01*
X-8793Y36770D02*
X-9560Y37384D01*
X-8563Y37826D02*
X-8486Y37826D01*
X-8563Y37826D02*
X-8563Y37903D01*
X-8486Y37903D01*
X-8486Y37826D01*
X-9176Y38269D02*
X-9240Y38271D01*
X-9305Y38276D01*
X-9368Y38285D01*
X-9432Y38298D01*
X-9494Y38314D01*
X-9555Y38334D01*
X-9616Y38357D01*
X-9674Y38384D01*
X-9675Y38383D02*
X-9705Y38395D01*
X-9733Y38411D01*
X-9759Y38429D01*
X-9783Y38450D01*
X-9804Y38474D01*
X-9823Y38500D01*
X-9839Y38528D01*
X-9851Y38558D01*
X-9860Y38588D01*
X-9865Y38620D01*
X-9867Y38652D01*
X-9865Y38684D01*
X-9860Y38716D01*
X-9851Y38746D01*
X-9839Y38776D01*
X-9823Y38804D01*
X-9804Y38830D01*
X-9783Y38854D01*
X-9759Y38875D01*
X-9733Y38893D01*
X-9705Y38909D01*
X-9675Y38921D01*
X-9674Y38920D02*
X-9616Y38947D01*
X-9555Y38970D01*
X-9494Y38990D01*
X-9432Y39006D01*
X-9368Y39019D01*
X-9305Y39028D01*
X-9240Y39033D01*
X-9176Y39035D01*
X-9176Y38269D02*
X-9112Y38271D01*
X-9047Y38276D01*
X-8984Y38285D01*
X-8920Y38298D01*
X-8858Y38314D01*
X-8797Y38334D01*
X-8736Y38357D01*
X-8678Y38384D01*
X-8678Y38383D02*
X-8648Y38395D01*
X-8620Y38411D01*
X-8594Y38429D01*
X-8570Y38450D01*
X-8549Y38474D01*
X-8530Y38500D01*
X-8514Y38528D01*
X-8502Y38558D01*
X-8493Y38588D01*
X-8488Y38620D01*
X-8486Y38652D01*
X-8678Y38920D02*
X-8736Y38947D01*
X-8797Y38970D01*
X-8858Y38990D01*
X-8920Y39006D01*
X-8984Y39019D01*
X-9047Y39028D01*
X-9112Y39033D01*
X-9176Y39035D01*
X-8678Y38921D02*
X-8648Y38909D01*
X-8620Y38893D01*
X-8594Y38875D01*
X-8570Y38854D01*
X-8549Y38830D01*
X-8530Y38804D01*
X-8514Y38776D01*
X-8502Y38746D01*
X-8493Y38716D01*
X-8488Y38684D01*
X-8486Y38652D01*
X-8793Y38345D02*
X-9560Y38959D01*
X-9674Y39509D02*
X-9616Y39482D01*
X-9555Y39459D01*
X-9494Y39439D01*
X-9432Y39423D01*
X-9368Y39410D01*
X-9305Y39401D01*
X-9240Y39396D01*
X-9176Y39394D01*
X-9675Y39508D02*
X-9705Y39520D01*
X-9733Y39536D01*
X-9759Y39554D01*
X-9783Y39575D01*
X-9804Y39599D01*
X-9823Y39625D01*
X-9839Y39653D01*
X-9851Y39683D01*
X-9860Y39713D01*
X-9865Y39745D01*
X-9867Y39777D01*
X-9865Y39809D01*
X-9860Y39841D01*
X-9851Y39871D01*
X-9839Y39901D01*
X-9823Y39929D01*
X-9804Y39955D01*
X-9783Y39979D01*
X-9759Y40000D01*
X-9733Y40018D01*
X-9705Y40034D01*
X-9675Y40046D01*
X-9674Y40045D02*
X-9616Y40072D01*
X-9555Y40095D01*
X-9494Y40115D01*
X-9432Y40131D01*
X-9368Y40144D01*
X-9305Y40153D01*
X-9240Y40158D01*
X-9176Y40160D01*
X-9176Y39394D02*
X-9112Y39396D01*
X-9047Y39401D01*
X-8984Y39410D01*
X-8920Y39423D01*
X-8858Y39439D01*
X-8797Y39459D01*
X-8736Y39482D01*
X-8678Y39509D01*
X-8678Y39508D02*
X-8648Y39520D01*
X-8620Y39536D01*
X-8594Y39554D01*
X-8570Y39575D01*
X-8549Y39599D01*
X-8530Y39625D01*
X-8514Y39653D01*
X-8502Y39683D01*
X-8493Y39713D01*
X-8488Y39745D01*
X-8486Y39777D01*
X-8678Y40045D02*
X-8736Y40072D01*
X-8797Y40095D01*
X-8858Y40115D01*
X-8920Y40131D01*
X-8984Y40144D01*
X-9047Y40153D01*
X-9112Y40158D01*
X-9176Y40160D01*
X-8678Y40046D02*
X-8648Y40034D01*
X-8620Y40018D01*
X-8594Y40000D01*
X-8570Y39979D01*
X-8549Y39955D01*
X-8530Y39929D01*
X-8514Y39901D01*
X-8502Y39871D01*
X-8493Y39841D01*
X-8488Y39809D01*
X-8486Y39777D01*
X-8793Y39470D02*
X-9560Y40084D01*
X-9406Y40555D02*
X-8486Y40555D01*
X-9406Y40555D02*
X-9406Y41245D01*
X-9404Y41273D01*
X-9399Y41300D01*
X-9391Y41327D01*
X-9380Y41352D01*
X-9365Y41376D01*
X-9348Y41398D01*
X-9329Y41417D01*
X-9307Y41434D01*
X-9283Y41449D01*
X-9258Y41460D01*
X-9231Y41468D01*
X-9204Y41473D01*
X-9176Y41475D01*
X-8486Y41475D01*
X-8486Y41015D02*
X-9406Y41015D01*
X-9406Y41915D02*
X-8486Y41915D01*
X-9790Y41876D02*
X-9866Y41876D01*
X-9866Y41953D01*
X-9790Y41953D01*
X-9790Y41876D01*
X-9866Y42361D02*
X-8716Y42361D01*
X-8688Y42363D01*
X-8661Y42368D01*
X-8634Y42376D01*
X-8609Y42387D01*
X-8585Y42402D01*
X-8563Y42419D01*
X-8544Y42438D01*
X-8527Y42460D01*
X-8512Y42484D01*
X-8501Y42509D01*
X-8493Y42536D01*
X-8488Y42563D01*
X-8486Y42591D01*
D11*
X713Y1500D02*
X715Y1556D01*
X721Y1611D01*
X731Y1665D01*
X744Y1719D01*
X762Y1772D01*
X783Y1823D01*
X807Y1873D01*
X835Y1921D01*
X867Y1967D01*
X901Y2011D01*
X939Y2052D01*
X979Y2090D01*
X1022Y2125D01*
X1067Y2157D01*
X1115Y2186D01*
X1164Y2212D01*
X1215Y2234D01*
X1267Y2252D01*
X1321Y2266D01*
X1376Y2277D01*
X1431Y2284D01*
X1486Y2287D01*
X1542Y2286D01*
X1597Y2281D01*
X1652Y2272D01*
X1706Y2260D01*
X1759Y2243D01*
X1811Y2223D01*
X1861Y2199D01*
X1909Y2172D01*
X1956Y2142D01*
X2000Y2108D01*
X2042Y2071D01*
X2080Y2031D01*
X2117Y1989D01*
X2150Y1944D01*
X2179Y1898D01*
X2206Y1849D01*
X2228Y1798D01*
X2248Y1746D01*
X2263Y1692D01*
X2275Y1638D01*
X2283Y1583D01*
X2287Y1528D01*
X2287Y1472D01*
X2283Y1417D01*
X2275Y1362D01*
X2263Y1308D01*
X2248Y1254D01*
X2228Y1202D01*
X2206Y1151D01*
X2179Y1102D01*
X2150Y1056D01*
X2117Y1011D01*
X2080Y969D01*
X2042Y929D01*
X2000Y892D01*
X1956Y858D01*
X1909Y828D01*
X1861Y801D01*
X1811Y777D01*
X1759Y757D01*
X1706Y740D01*
X1652Y728D01*
X1597Y719D01*
X1542Y714D01*
X1486Y713D01*
X1431Y716D01*
X1376Y723D01*
X1321Y734D01*
X1267Y748D01*
X1215Y766D01*
X1164Y788D01*
X1115Y814D01*
X1067Y843D01*
X1022Y875D01*
X979Y910D01*
X939Y948D01*
X901Y989D01*
X867Y1033D01*
X835Y1079D01*
X807Y1127D01*
X783Y1177D01*
X762Y1228D01*
X744Y1281D01*
X731Y1335D01*
X721Y1389D01*
X715Y1444D01*
X713Y1500D01*
D10*
X49780Y20330D02*
X49780Y20970D01*
X50064Y20970D01*
X50064Y20686D02*
X49780Y20686D01*
X50256Y20330D02*
X50469Y20970D01*
X50683Y20330D01*
X50629Y20490D02*
X50309Y20490D01*
X50936Y20686D02*
X51114Y20686D01*
X51139Y20684D01*
X51164Y20679D01*
X51188Y20670D01*
X51210Y20658D01*
X51231Y20643D01*
X51249Y20625D01*
X51264Y20604D01*
X51276Y20582D01*
X51285Y20558D01*
X51290Y20533D01*
X51292Y20508D01*
X51290Y20483D01*
X51285Y20458D01*
X51276Y20434D01*
X51264Y20412D01*
X51249Y20391D01*
X51231Y20373D01*
X51210Y20358D01*
X51188Y20346D01*
X51164Y20337D01*
X51139Y20332D01*
X51114Y20330D01*
X50936Y20330D01*
X50936Y20970D01*
X51114Y20970D01*
X51136Y20968D01*
X51158Y20963D01*
X51178Y20955D01*
X51197Y20943D01*
X51214Y20928D01*
X51229Y20911D01*
X51241Y20892D01*
X51249Y20872D01*
X51254Y20850D01*
X51256Y20828D01*
X51254Y20806D01*
X51249Y20784D01*
X51241Y20764D01*
X51229Y20745D01*
X51214Y20728D01*
X51197Y20713D01*
X51178Y20701D01*
X51158Y20693D01*
X51136Y20688D01*
X51114Y20686D01*
X51547Y20970D02*
X51547Y20330D01*
X51547Y20970D02*
X51724Y20970D01*
X51749Y20968D01*
X51774Y20963D01*
X51798Y20954D01*
X51820Y20942D01*
X51841Y20927D01*
X51859Y20909D01*
X51874Y20888D01*
X51886Y20866D01*
X51895Y20842D01*
X51900Y20817D01*
X51902Y20792D01*
X51900Y20767D01*
X51895Y20742D01*
X51886Y20718D01*
X51874Y20696D01*
X51859Y20675D01*
X51841Y20657D01*
X51820Y20642D01*
X51798Y20630D01*
X51774Y20621D01*
X51749Y20616D01*
X51724Y20614D01*
X51547Y20614D01*
X51760Y20614D02*
X51902Y20330D01*
X52213Y20330D02*
X52213Y20970D01*
X52142Y20330D02*
X52284Y20330D01*
X52284Y20970D02*
X52142Y20970D01*
X52668Y20330D02*
X52811Y20330D01*
X52668Y20330D02*
X52646Y20332D01*
X52624Y20337D01*
X52604Y20345D01*
X52585Y20357D01*
X52568Y20372D01*
X52553Y20389D01*
X52541Y20408D01*
X52533Y20428D01*
X52528Y20450D01*
X52526Y20472D01*
X52526Y20828D01*
X52528Y20850D01*
X52533Y20872D01*
X52541Y20892D01*
X52553Y20911D01*
X52568Y20928D01*
X52585Y20943D01*
X52604Y20955D01*
X52624Y20963D01*
X52646Y20968D01*
X52668Y20970D01*
X52811Y20970D01*
X53218Y20970D02*
X53005Y20330D01*
X53432Y20330D02*
X53218Y20970D01*
X53378Y20490D02*
X53058Y20490D01*
X53793Y20330D02*
X53793Y20970D01*
X53970Y20970D02*
X53615Y20970D01*
X54244Y20970D02*
X54244Y20330D01*
X54173Y20330D02*
X54315Y20330D01*
X54315Y20970D02*
X54173Y20970D01*
X54558Y20792D02*
X54558Y20508D01*
X54558Y20792D02*
X54560Y20817D01*
X54565Y20842D01*
X54574Y20866D01*
X54586Y20888D01*
X54601Y20909D01*
X54619Y20927D01*
X54640Y20942D01*
X54662Y20954D01*
X54686Y20963D01*
X54711Y20968D01*
X54736Y20970D01*
X54761Y20968D01*
X54786Y20963D01*
X54810Y20954D01*
X54832Y20942D01*
X54853Y20927D01*
X54871Y20909D01*
X54886Y20888D01*
X54898Y20866D01*
X54907Y20842D01*
X54912Y20817D01*
X54914Y20792D01*
X54914Y20508D01*
X54912Y20483D01*
X54907Y20458D01*
X54898Y20434D01*
X54886Y20412D01*
X54871Y20391D01*
X54853Y20373D01*
X54832Y20358D01*
X54810Y20346D01*
X54786Y20337D01*
X54761Y20332D01*
X54736Y20330D01*
X54711Y20332D01*
X54686Y20337D01*
X54662Y20346D01*
X54640Y20358D01*
X54619Y20373D01*
X54601Y20391D01*
X54586Y20412D01*
X54574Y20434D01*
X54565Y20458D01*
X54560Y20483D01*
X54558Y20508D01*
X55194Y20330D02*
X55194Y20970D01*
X55550Y20330D01*
X55550Y20970D01*
X56179Y20970D02*
X56179Y20330D01*
X56535Y20330D02*
X56179Y20970D01*
X56535Y20970D02*
X56535Y20330D01*
X56815Y20508D02*
X56815Y20792D01*
X56817Y20817D01*
X56822Y20842D01*
X56831Y20866D01*
X56843Y20888D01*
X56858Y20909D01*
X56876Y20927D01*
X56897Y20942D01*
X56919Y20954D01*
X56943Y20963D01*
X56968Y20968D01*
X56993Y20970D01*
X57018Y20968D01*
X57043Y20963D01*
X57067Y20954D01*
X57089Y20942D01*
X57110Y20927D01*
X57128Y20909D01*
X57143Y20888D01*
X57155Y20866D01*
X57164Y20842D01*
X57169Y20817D01*
X57171Y20792D01*
X57170Y20792D02*
X57170Y20508D01*
X57171Y20508D02*
X57169Y20483D01*
X57164Y20458D01*
X57155Y20434D01*
X57143Y20412D01*
X57128Y20391D01*
X57110Y20373D01*
X57089Y20358D01*
X57067Y20346D01*
X57043Y20337D01*
X57018Y20332D01*
X56993Y20330D01*
X56968Y20332D01*
X56943Y20337D01*
X56919Y20346D01*
X56897Y20358D01*
X56876Y20373D01*
X56858Y20391D01*
X56843Y20412D01*
X56831Y20434D01*
X56822Y20458D01*
X56817Y20483D01*
X56815Y20508D01*
X57567Y20330D02*
X57567Y20970D01*
X57389Y20970D02*
X57745Y20970D01*
X57985Y20330D02*
X58270Y20330D01*
X57985Y20330D02*
X57985Y20970D01*
X58270Y20970D01*
X58199Y20686D02*
X57985Y20686D01*
X58690Y20330D02*
X58712Y20332D01*
X58734Y20337D01*
X58754Y20345D01*
X58773Y20357D01*
X58790Y20372D01*
X58805Y20389D01*
X58817Y20408D01*
X58825Y20428D01*
X58830Y20450D01*
X58832Y20472D01*
X58690Y20330D02*
X58656Y20332D01*
X58623Y20338D01*
X58590Y20347D01*
X58559Y20360D01*
X58530Y20376D01*
X58502Y20396D01*
X58477Y20419D01*
X58495Y20828D02*
X58497Y20850D01*
X58502Y20872D01*
X58510Y20892D01*
X58522Y20911D01*
X58537Y20928D01*
X58554Y20943D01*
X58573Y20955D01*
X58593Y20963D01*
X58615Y20968D01*
X58637Y20970D01*
X58666Y20968D01*
X58694Y20964D01*
X58721Y20956D01*
X58748Y20946D01*
X58773Y20933D01*
X58797Y20917D01*
X58495Y20828D02*
X58497Y20807D01*
X58501Y20786D01*
X58509Y20766D01*
X58520Y20747D01*
X58533Y20731D01*
X58548Y20716D01*
X58566Y20704D01*
X58761Y20596D02*
X58779Y20584D01*
X58794Y20569D01*
X58807Y20553D01*
X58818Y20534D01*
X58826Y20514D01*
X58830Y20493D01*
X58832Y20472D01*
X58761Y20597D02*
X58565Y20703D01*
X59405Y20650D02*
X59407Y20697D01*
X59412Y20744D01*
X59421Y20790D01*
X59434Y20836D01*
X59450Y20880D01*
X59470Y20923D01*
X59492Y20964D01*
X59518Y21004D01*
X59547Y21041D01*
X59405Y20650D02*
X59407Y20603D01*
X59412Y20556D01*
X59421Y20510D01*
X59434Y20464D01*
X59450Y20420D01*
X59470Y20377D01*
X59492Y20336D01*
X59518Y20296D01*
X59547Y20259D01*
X59810Y20508D02*
X59810Y20970D01*
X59810Y20508D02*
X59812Y20483D01*
X59817Y20458D01*
X59826Y20434D01*
X59838Y20412D01*
X59853Y20391D01*
X59871Y20373D01*
X59892Y20358D01*
X59914Y20346D01*
X59938Y20337D01*
X59963Y20332D01*
X59988Y20330D01*
X60013Y20332D01*
X60038Y20337D01*
X60062Y20346D01*
X60084Y20358D01*
X60105Y20373D01*
X60123Y20391D01*
X60138Y20412D01*
X60150Y20434D01*
X60159Y20458D01*
X60164Y20483D01*
X60166Y20508D01*
X60165Y20508D02*
X60165Y20970D01*
X60466Y20970D02*
X60466Y20330D01*
X60822Y20330D02*
X60466Y20970D01*
X60822Y20970D02*
X60822Y20330D01*
X61124Y20330D02*
X61124Y20970D01*
X61124Y20330D02*
X61408Y20330D01*
X61657Y20330D02*
X61942Y20330D01*
X61657Y20330D02*
X61657Y20970D01*
X61942Y20970D01*
X61871Y20686D02*
X61657Y20686D01*
X62362Y20330D02*
X62384Y20332D01*
X62406Y20337D01*
X62426Y20345D01*
X62445Y20357D01*
X62462Y20372D01*
X62477Y20389D01*
X62489Y20408D01*
X62497Y20428D01*
X62502Y20450D01*
X62504Y20472D01*
X62362Y20330D02*
X62328Y20332D01*
X62295Y20338D01*
X62262Y20347D01*
X62231Y20360D01*
X62202Y20376D01*
X62174Y20396D01*
X62149Y20419D01*
X62166Y20828D02*
X62168Y20850D01*
X62173Y20872D01*
X62181Y20892D01*
X62193Y20911D01*
X62208Y20928D01*
X62225Y20943D01*
X62244Y20955D01*
X62264Y20963D01*
X62286Y20968D01*
X62308Y20970D01*
X62337Y20968D01*
X62365Y20964D01*
X62392Y20956D01*
X62419Y20946D01*
X62444Y20933D01*
X62468Y20917D01*
X62167Y20828D02*
X62169Y20807D01*
X62173Y20786D01*
X62181Y20766D01*
X62192Y20747D01*
X62205Y20731D01*
X62220Y20716D01*
X62238Y20704D01*
X62433Y20596D02*
X62451Y20584D01*
X62466Y20569D01*
X62479Y20553D01*
X62490Y20534D01*
X62498Y20514D01*
X62502Y20493D01*
X62504Y20472D01*
X62433Y20597D02*
X62237Y20703D01*
X62936Y20330D02*
X62958Y20332D01*
X62980Y20337D01*
X63000Y20345D01*
X63019Y20357D01*
X63036Y20372D01*
X63051Y20389D01*
X63063Y20408D01*
X63071Y20428D01*
X63076Y20450D01*
X63078Y20472D01*
X62936Y20330D02*
X62902Y20332D01*
X62869Y20338D01*
X62836Y20347D01*
X62805Y20360D01*
X62776Y20376D01*
X62748Y20396D01*
X62723Y20419D01*
X62741Y20828D02*
X62743Y20850D01*
X62748Y20872D01*
X62756Y20892D01*
X62768Y20911D01*
X62783Y20928D01*
X62800Y20943D01*
X62819Y20955D01*
X62839Y20963D01*
X62861Y20968D01*
X62883Y20970D01*
X62912Y20968D01*
X62940Y20964D01*
X62967Y20956D01*
X62994Y20946D01*
X63019Y20933D01*
X63043Y20917D01*
X62741Y20828D02*
X62743Y20807D01*
X62747Y20786D01*
X62755Y20766D01*
X62766Y20747D01*
X62779Y20731D01*
X62794Y20716D01*
X62812Y20704D01*
X63007Y20596D02*
X63025Y20584D01*
X63040Y20569D01*
X63053Y20553D01*
X63064Y20534D01*
X63072Y20514D01*
X63076Y20493D01*
X63078Y20472D01*
X63007Y20597D02*
X62812Y20703D01*
X63646Y20792D02*
X63646Y20508D01*
X63646Y20792D02*
X63648Y20817D01*
X63653Y20842D01*
X63662Y20866D01*
X63674Y20888D01*
X63689Y20909D01*
X63707Y20927D01*
X63728Y20942D01*
X63750Y20954D01*
X63774Y20963D01*
X63799Y20968D01*
X63824Y20970D01*
X63849Y20968D01*
X63874Y20963D01*
X63898Y20954D01*
X63920Y20942D01*
X63941Y20927D01*
X63959Y20909D01*
X63974Y20888D01*
X63986Y20866D01*
X63995Y20842D01*
X64000Y20817D01*
X64002Y20792D01*
X64001Y20792D02*
X64001Y20508D01*
X64002Y20508D02*
X64000Y20483D01*
X63995Y20458D01*
X63986Y20434D01*
X63974Y20412D01*
X63959Y20391D01*
X63941Y20373D01*
X63920Y20358D01*
X63898Y20346D01*
X63874Y20337D01*
X63849Y20332D01*
X63824Y20330D01*
X63799Y20332D01*
X63774Y20337D01*
X63750Y20346D01*
X63728Y20358D01*
X63707Y20373D01*
X63689Y20391D01*
X63674Y20412D01*
X63662Y20434D01*
X63653Y20458D01*
X63648Y20483D01*
X63646Y20508D01*
X64398Y20330D02*
X64398Y20970D01*
X64220Y20970D02*
X64576Y20970D01*
X64815Y20970D02*
X64815Y20330D01*
X64815Y20686D02*
X65171Y20686D01*
X65171Y20970D02*
X65171Y20330D01*
X65473Y20330D02*
X65757Y20330D01*
X65473Y20330D02*
X65473Y20970D01*
X65757Y20970D01*
X65686Y20686D02*
X65473Y20686D01*
X66009Y20970D02*
X66009Y20330D01*
X66009Y20970D02*
X66186Y20970D01*
X66211Y20968D01*
X66236Y20963D01*
X66260Y20954D01*
X66282Y20942D01*
X66303Y20927D01*
X66321Y20909D01*
X66336Y20888D01*
X66348Y20866D01*
X66357Y20842D01*
X66362Y20817D01*
X66364Y20792D01*
X66362Y20767D01*
X66357Y20742D01*
X66348Y20718D01*
X66336Y20696D01*
X66321Y20675D01*
X66303Y20657D01*
X66282Y20642D01*
X66260Y20630D01*
X66236Y20621D01*
X66211Y20616D01*
X66186Y20614D01*
X66009Y20614D01*
X66222Y20614D02*
X66364Y20330D01*
X66738Y20330D02*
X66596Y20970D01*
X66880Y20757D02*
X66738Y20330D01*
X67022Y20330D02*
X66880Y20757D01*
X67165Y20970D02*
X67022Y20330D01*
X67455Y20330D02*
X67455Y20970D01*
X67526Y20330D02*
X67383Y20330D01*
X67383Y20970D02*
X67526Y20970D01*
X68104Y20472D02*
X68102Y20450D01*
X68097Y20428D01*
X68089Y20408D01*
X68077Y20389D01*
X68062Y20372D01*
X68045Y20357D01*
X68026Y20345D01*
X68006Y20337D01*
X67984Y20332D01*
X67962Y20330D01*
X67928Y20332D01*
X67895Y20338D01*
X67862Y20347D01*
X67831Y20360D01*
X67802Y20376D01*
X67774Y20396D01*
X67749Y20419D01*
X67767Y20828D02*
X67769Y20850D01*
X67774Y20872D01*
X67782Y20892D01*
X67794Y20911D01*
X67809Y20928D01*
X67826Y20943D01*
X67845Y20955D01*
X67865Y20963D01*
X67887Y20968D01*
X67909Y20970D01*
X67938Y20968D01*
X67966Y20964D01*
X67993Y20956D01*
X68020Y20946D01*
X68045Y20933D01*
X68069Y20917D01*
X67767Y20828D02*
X67769Y20807D01*
X67773Y20786D01*
X67781Y20766D01*
X67792Y20747D01*
X67805Y20731D01*
X67820Y20716D01*
X67838Y20704D01*
X68033Y20596D02*
X68051Y20584D01*
X68066Y20569D01*
X68079Y20553D01*
X68090Y20534D01*
X68098Y20514D01*
X68102Y20493D01*
X68104Y20472D01*
X68033Y20597D02*
X67837Y20703D01*
X68365Y20330D02*
X68650Y20330D01*
X68365Y20330D02*
X68365Y20970D01*
X68650Y20970D01*
X68578Y20686D02*
X68365Y20686D01*
X69398Y20330D02*
X69420Y20332D01*
X69442Y20337D01*
X69462Y20345D01*
X69481Y20357D01*
X69498Y20372D01*
X69513Y20389D01*
X69525Y20408D01*
X69533Y20428D01*
X69538Y20450D01*
X69540Y20472D01*
X69398Y20330D02*
X69364Y20332D01*
X69331Y20338D01*
X69298Y20347D01*
X69267Y20360D01*
X69238Y20376D01*
X69210Y20396D01*
X69185Y20419D01*
X69203Y20828D02*
X69205Y20850D01*
X69210Y20872D01*
X69218Y20892D01*
X69230Y20911D01*
X69245Y20928D01*
X69262Y20943D01*
X69281Y20955D01*
X69301Y20963D01*
X69323Y20968D01*
X69345Y20970D01*
X69374Y20968D01*
X69402Y20964D01*
X69429Y20956D01*
X69456Y20946D01*
X69481Y20933D01*
X69505Y20917D01*
X69203Y20828D02*
X69205Y20807D01*
X69209Y20786D01*
X69217Y20766D01*
X69228Y20747D01*
X69241Y20731D01*
X69256Y20716D01*
X69274Y20704D01*
X69469Y20596D02*
X69487Y20584D01*
X69502Y20569D01*
X69515Y20553D01*
X69526Y20534D01*
X69534Y20514D01*
X69538Y20493D01*
X69540Y20472D01*
X69469Y20597D02*
X69273Y20703D01*
X69808Y20970D02*
X69808Y20330D01*
X69808Y20970D02*
X69986Y20970D01*
X70011Y20968D01*
X70036Y20963D01*
X70060Y20954D01*
X70082Y20942D01*
X70103Y20927D01*
X70121Y20909D01*
X70136Y20888D01*
X70148Y20866D01*
X70157Y20842D01*
X70162Y20817D01*
X70164Y20792D01*
X70162Y20767D01*
X70157Y20742D01*
X70148Y20718D01*
X70136Y20696D01*
X70121Y20675D01*
X70103Y20657D01*
X70082Y20642D01*
X70060Y20630D01*
X70036Y20621D01*
X70011Y20616D01*
X69986Y20614D01*
X69808Y20614D01*
X70417Y20330D02*
X70701Y20330D01*
X70417Y20330D02*
X70417Y20970D01*
X70701Y20970D01*
X70630Y20686D02*
X70417Y20686D01*
X71069Y20330D02*
X71211Y20330D01*
X71069Y20330D02*
X71047Y20332D01*
X71025Y20337D01*
X71005Y20345D01*
X70986Y20357D01*
X70969Y20372D01*
X70954Y20389D01*
X70942Y20408D01*
X70934Y20428D01*
X70929Y20450D01*
X70927Y20472D01*
X70927Y20828D01*
X70929Y20850D01*
X70934Y20872D01*
X70942Y20892D01*
X70954Y20911D01*
X70969Y20928D01*
X70986Y20943D01*
X71005Y20955D01*
X71025Y20963D01*
X71047Y20968D01*
X71069Y20970D01*
X71211Y20970D01*
X71496Y20970D02*
X71496Y20330D01*
X71425Y20330D02*
X71567Y20330D01*
X71567Y20970D02*
X71425Y20970D01*
X71832Y20970D02*
X71832Y20330D01*
X71832Y20970D02*
X72116Y20970D01*
X72116Y20686D02*
X71832Y20686D01*
X72398Y20970D02*
X72398Y20330D01*
X72327Y20330D02*
X72469Y20330D01*
X72469Y20970D02*
X72327Y20970D01*
X72735Y20330D02*
X73019Y20330D01*
X72735Y20330D02*
X72735Y20970D01*
X73019Y20970D01*
X72948Y20686D02*
X72735Y20686D01*
X73267Y20970D02*
X73267Y20330D01*
X73267Y20970D02*
X73444Y20970D01*
X73469Y20968D01*
X73494Y20963D01*
X73518Y20954D01*
X73540Y20942D01*
X73561Y20927D01*
X73579Y20909D01*
X73594Y20888D01*
X73606Y20866D01*
X73615Y20842D01*
X73620Y20817D01*
X73622Y20792D01*
X73622Y20508D01*
X73620Y20483D01*
X73615Y20458D01*
X73606Y20434D01*
X73594Y20412D01*
X73579Y20391D01*
X73561Y20373D01*
X73540Y20358D01*
X73518Y20346D01*
X73494Y20337D01*
X73469Y20332D01*
X73444Y20330D01*
X73267Y20330D01*
X73885Y20259D02*
X73914Y20296D01*
X73940Y20336D01*
X73962Y20377D01*
X73982Y20420D01*
X73998Y20464D01*
X74011Y20510D01*
X74020Y20556D01*
X74025Y20603D01*
X74027Y20650D01*
X74025Y20697D01*
X74020Y20744D01*
X74011Y20790D01*
X73998Y20836D01*
X73982Y20880D01*
X73962Y20923D01*
X73940Y20964D01*
X73914Y21004D01*
X73885Y21041D01*
X74288Y20419D02*
X74288Y20383D01*
X74288Y20419D02*
X74324Y20419D01*
X74324Y20383D01*
X74288Y20383D01*
X74288Y20668D02*
X74288Y20703D01*
X74324Y20703D01*
X74324Y20668D01*
X74288Y20668D01*
X49958Y18870D02*
X49780Y18728D01*
X49958Y18870D02*
X49958Y18230D01*
X49780Y18230D02*
X50136Y18230D01*
X50371Y18230D02*
X50371Y18266D01*
X50406Y18266D01*
X50406Y18230D01*
X50371Y18230D01*
X50996Y18230D02*
X50996Y18870D01*
X51209Y18514D01*
X51422Y18870D01*
X51422Y18230D01*
X51824Y18479D02*
X51984Y18479D01*
X51824Y18478D02*
X51804Y18476D01*
X51784Y18471D01*
X51765Y18463D01*
X51748Y18452D01*
X51733Y18438D01*
X51720Y18422D01*
X51710Y18404D01*
X51704Y18384D01*
X51700Y18364D01*
X51700Y18344D01*
X51704Y18324D01*
X51710Y18304D01*
X51720Y18286D01*
X51733Y18270D01*
X51748Y18256D01*
X51765Y18245D01*
X51784Y18237D01*
X51804Y18232D01*
X51824Y18230D01*
X51984Y18230D01*
X51984Y18550D01*
X51985Y18550D02*
X51983Y18569D01*
X51979Y18587D01*
X51971Y18604D01*
X51960Y18619D01*
X51947Y18632D01*
X51932Y18643D01*
X51915Y18651D01*
X51897Y18655D01*
X51878Y18657D01*
X51735Y18657D01*
X52206Y18657D02*
X52419Y18657D01*
X52277Y18870D02*
X52277Y18337D01*
X52276Y18337D02*
X52278Y18318D01*
X52282Y18300D01*
X52290Y18284D01*
X52301Y18268D01*
X52314Y18255D01*
X52330Y18244D01*
X52346Y18236D01*
X52364Y18232D01*
X52383Y18230D01*
X52419Y18230D01*
X52753Y18230D02*
X52931Y18230D01*
X52753Y18230D02*
X52734Y18232D01*
X52716Y18236D01*
X52700Y18244D01*
X52684Y18255D01*
X52671Y18268D01*
X52660Y18284D01*
X52652Y18300D01*
X52648Y18318D01*
X52646Y18337D01*
X52646Y18514D01*
X52647Y18514D02*
X52649Y18536D01*
X52654Y18558D01*
X52662Y18578D01*
X52674Y18597D01*
X52689Y18614D01*
X52706Y18629D01*
X52725Y18641D01*
X52745Y18649D01*
X52767Y18654D01*
X52789Y18656D01*
X52811Y18654D01*
X52833Y18649D01*
X52853Y18641D01*
X52872Y18629D01*
X52889Y18614D01*
X52904Y18597D01*
X52916Y18578D01*
X52924Y18558D01*
X52929Y18536D01*
X52931Y18514D01*
X52931Y18443D01*
X52646Y18443D01*
X53204Y18230D02*
X53204Y18657D01*
X53417Y18657D01*
X53417Y18586D01*
X53609Y18657D02*
X53609Y18230D01*
X53591Y18834D02*
X53591Y18870D01*
X53627Y18870D01*
X53627Y18834D01*
X53591Y18834D01*
X53978Y18479D02*
X54138Y18479D01*
X53978Y18478D02*
X53958Y18476D01*
X53938Y18471D01*
X53919Y18463D01*
X53902Y18452D01*
X53887Y18438D01*
X53874Y18422D01*
X53864Y18404D01*
X53858Y18384D01*
X53854Y18364D01*
X53854Y18344D01*
X53858Y18324D01*
X53864Y18304D01*
X53874Y18286D01*
X53887Y18270D01*
X53902Y18256D01*
X53919Y18245D01*
X53938Y18237D01*
X53958Y18232D01*
X53978Y18230D01*
X54138Y18230D01*
X54138Y18550D01*
X54139Y18550D02*
X54137Y18569D01*
X54133Y18587D01*
X54125Y18604D01*
X54114Y18619D01*
X54101Y18632D01*
X54086Y18643D01*
X54069Y18651D01*
X54051Y18655D01*
X54032Y18657D01*
X53889Y18657D01*
X54420Y18870D02*
X54420Y18337D01*
X54422Y18318D01*
X54426Y18300D01*
X54434Y18284D01*
X54445Y18268D01*
X54458Y18255D01*
X54474Y18244D01*
X54490Y18236D01*
X54508Y18232D01*
X54527Y18230D01*
X54740Y18283D02*
X54740Y18319D01*
X54776Y18319D01*
X54776Y18283D01*
X54740Y18283D01*
X54740Y18568D02*
X54740Y18603D01*
X54776Y18603D01*
X54776Y18568D01*
X54740Y18568D01*
X55381Y18870D02*
X55381Y18230D01*
X55381Y18870D02*
X55666Y18870D01*
X55666Y18586D02*
X55381Y18586D01*
X55917Y18870D02*
X55917Y18230D01*
X55917Y18870D02*
X56095Y18870D01*
X56120Y18868D01*
X56145Y18863D01*
X56169Y18854D01*
X56191Y18842D01*
X56212Y18827D01*
X56230Y18809D01*
X56245Y18788D01*
X56257Y18766D01*
X56266Y18742D01*
X56271Y18717D01*
X56273Y18692D01*
X56271Y18667D01*
X56266Y18642D01*
X56257Y18618D01*
X56245Y18596D01*
X56230Y18575D01*
X56212Y18557D01*
X56191Y18542D01*
X56169Y18530D01*
X56145Y18521D01*
X56120Y18516D01*
X56095Y18514D01*
X55917Y18514D01*
X56130Y18514D02*
X56273Y18230D01*
X56529Y18372D02*
X56671Y18870D01*
X56529Y18372D02*
X56884Y18372D01*
X56778Y18514D02*
X56778Y18230D01*
X57467Y18372D02*
X57467Y18514D01*
X57469Y18536D01*
X57474Y18558D01*
X57482Y18578D01*
X57494Y18597D01*
X57509Y18614D01*
X57526Y18629D01*
X57545Y18641D01*
X57565Y18649D01*
X57587Y18654D01*
X57609Y18656D01*
X57631Y18654D01*
X57653Y18649D01*
X57673Y18641D01*
X57692Y18629D01*
X57709Y18614D01*
X57724Y18597D01*
X57736Y18578D01*
X57744Y18558D01*
X57749Y18536D01*
X57751Y18514D01*
X57751Y18372D01*
X57749Y18350D01*
X57744Y18328D01*
X57736Y18308D01*
X57724Y18289D01*
X57709Y18272D01*
X57692Y18257D01*
X57673Y18245D01*
X57653Y18237D01*
X57631Y18232D01*
X57609Y18230D01*
X57587Y18232D01*
X57565Y18237D01*
X57545Y18245D01*
X57526Y18257D01*
X57509Y18272D01*
X57494Y18289D01*
X57482Y18308D01*
X57474Y18328D01*
X57469Y18350D01*
X57467Y18372D01*
X58024Y18230D02*
X58024Y18657D01*
X58238Y18657D01*
X58238Y18586D01*
X58866Y18230D02*
X59044Y18230D01*
X58866Y18230D02*
X58847Y18232D01*
X58829Y18236D01*
X58813Y18244D01*
X58797Y18255D01*
X58784Y18268D01*
X58773Y18284D01*
X58765Y18300D01*
X58761Y18318D01*
X58759Y18337D01*
X58759Y18514D01*
X58760Y18514D02*
X58762Y18536D01*
X58767Y18558D01*
X58775Y18578D01*
X58787Y18597D01*
X58802Y18614D01*
X58819Y18629D01*
X58838Y18641D01*
X58858Y18649D01*
X58880Y18654D01*
X58902Y18656D01*
X58924Y18654D01*
X58946Y18649D01*
X58966Y18641D01*
X58985Y18629D01*
X59002Y18614D01*
X59017Y18597D01*
X59029Y18578D01*
X59037Y18558D01*
X59042Y18536D01*
X59044Y18514D01*
X59044Y18443D01*
X58759Y18443D01*
X59574Y18657D02*
X59574Y18017D01*
X59574Y18657D02*
X59397Y18657D01*
X59378Y18655D01*
X59360Y18651D01*
X59344Y18643D01*
X59328Y18632D01*
X59315Y18619D01*
X59304Y18604D01*
X59296Y18587D01*
X59292Y18569D01*
X59290Y18550D01*
X59290Y18337D01*
X59292Y18318D01*
X59296Y18300D01*
X59304Y18284D01*
X59315Y18268D01*
X59328Y18255D01*
X59344Y18244D01*
X59360Y18236D01*
X59378Y18232D01*
X59397Y18230D01*
X59574Y18230D01*
X59867Y18337D02*
X59867Y18657D01*
X59867Y18337D02*
X59869Y18318D01*
X59873Y18300D01*
X59881Y18284D01*
X59892Y18268D01*
X59905Y18255D01*
X59921Y18244D01*
X59937Y18236D01*
X59955Y18232D01*
X59974Y18230D01*
X60152Y18230D01*
X60152Y18657D01*
X60420Y18657D02*
X60420Y18230D01*
X60402Y18834D02*
X60402Y18870D01*
X60437Y18870D01*
X60437Y18834D01*
X60402Y18834D01*
X60647Y18657D02*
X60789Y18230D01*
X60931Y18657D01*
X61281Y18479D02*
X61441Y18479D01*
X61281Y18478D02*
X61261Y18476D01*
X61241Y18471D01*
X61222Y18463D01*
X61205Y18452D01*
X61190Y18438D01*
X61177Y18422D01*
X61167Y18404D01*
X61161Y18384D01*
X61157Y18364D01*
X61157Y18344D01*
X61161Y18324D01*
X61167Y18304D01*
X61177Y18286D01*
X61190Y18270D01*
X61205Y18256D01*
X61222Y18245D01*
X61241Y18237D01*
X61261Y18232D01*
X61281Y18230D01*
X61441Y18230D01*
X61441Y18550D01*
X61439Y18569D01*
X61435Y18587D01*
X61427Y18604D01*
X61416Y18619D01*
X61403Y18632D01*
X61388Y18643D01*
X61371Y18651D01*
X61353Y18655D01*
X61334Y18657D01*
X61192Y18657D01*
X61723Y18870D02*
X61723Y18337D01*
X61722Y18337D02*
X61724Y18318D01*
X61728Y18300D01*
X61736Y18284D01*
X61747Y18268D01*
X61760Y18255D01*
X61776Y18244D01*
X61792Y18236D01*
X61810Y18232D01*
X61829Y18230D01*
X62148Y18230D02*
X62326Y18230D01*
X62148Y18230D02*
X62129Y18232D01*
X62111Y18236D01*
X62095Y18244D01*
X62079Y18255D01*
X62066Y18268D01*
X62055Y18284D01*
X62047Y18300D01*
X62043Y18318D01*
X62041Y18337D01*
X62042Y18337D02*
X62042Y18514D01*
X62044Y18536D01*
X62049Y18558D01*
X62057Y18578D01*
X62069Y18597D01*
X62084Y18614D01*
X62101Y18629D01*
X62120Y18641D01*
X62140Y18649D01*
X62162Y18654D01*
X62184Y18656D01*
X62206Y18654D01*
X62228Y18649D01*
X62248Y18641D01*
X62267Y18629D01*
X62284Y18614D01*
X62299Y18597D01*
X62311Y18578D01*
X62319Y18558D01*
X62324Y18536D01*
X62326Y18514D01*
X62326Y18443D01*
X62042Y18443D01*
X62595Y18230D02*
X62595Y18657D01*
X62773Y18657D01*
X62792Y18655D01*
X62810Y18651D01*
X62826Y18643D01*
X62842Y18632D01*
X62855Y18619D01*
X62866Y18604D01*
X62874Y18587D01*
X62878Y18569D01*
X62880Y18550D01*
X62880Y18230D01*
X63098Y18657D02*
X63312Y18657D01*
X63169Y18870D02*
X63169Y18337D01*
X63171Y18318D01*
X63175Y18300D01*
X63183Y18284D01*
X63194Y18268D01*
X63207Y18255D01*
X63223Y18244D01*
X63239Y18236D01*
X63257Y18232D01*
X63276Y18230D01*
X63312Y18230D01*
X50136Y17660D02*
X50134Y17683D01*
X50130Y17705D01*
X50122Y17726D01*
X50111Y17747D01*
X50097Y17765D01*
X50081Y17781D01*
X50063Y17795D01*
X50042Y17806D01*
X50021Y17814D01*
X49999Y17818D01*
X49976Y17820D01*
X49950Y17818D01*
X49925Y17814D01*
X49900Y17806D01*
X49877Y17794D01*
X49855Y17781D01*
X49835Y17764D01*
X49817Y17745D01*
X49802Y17724D01*
X49790Y17702D01*
X49780Y17677D01*
X50083Y17535D02*
X50098Y17553D01*
X50112Y17572D01*
X50122Y17592D01*
X50130Y17614D01*
X50134Y17637D01*
X50136Y17660D01*
X50082Y17536D02*
X49780Y17180D01*
X50136Y17180D01*
X50371Y17180D02*
X50371Y17216D01*
X50406Y17216D01*
X50406Y17180D01*
X50371Y17180D01*
X50970Y17322D02*
X51112Y17820D01*
X50970Y17322D02*
X51325Y17322D01*
X51219Y17464D02*
X51219Y17180D01*
X51917Y17287D02*
X51917Y17820D01*
X51917Y17287D02*
X51919Y17268D01*
X51923Y17250D01*
X51931Y17234D01*
X51942Y17218D01*
X51955Y17205D01*
X51971Y17194D01*
X51987Y17186D01*
X52005Y17182D01*
X52024Y17180D01*
X52358Y17429D02*
X52518Y17429D01*
X52358Y17428D02*
X52338Y17426D01*
X52318Y17421D01*
X52299Y17413D01*
X52282Y17402D01*
X52267Y17388D01*
X52254Y17372D01*
X52244Y17354D01*
X52238Y17334D01*
X52234Y17314D01*
X52234Y17294D01*
X52238Y17274D01*
X52244Y17254D01*
X52254Y17236D01*
X52267Y17220D01*
X52282Y17206D01*
X52299Y17195D01*
X52318Y17187D01*
X52338Y17182D01*
X52358Y17180D01*
X52518Y17180D01*
X52518Y17500D01*
X52516Y17519D01*
X52512Y17537D01*
X52504Y17554D01*
X52493Y17569D01*
X52480Y17582D01*
X52465Y17593D01*
X52448Y17601D01*
X52430Y17605D01*
X52411Y17607D01*
X52269Y17607D01*
X52769Y16967D02*
X52841Y16967D01*
X53054Y17607D01*
X52769Y17607D02*
X52912Y17180D01*
X53389Y17180D02*
X53567Y17180D01*
X53389Y17180D02*
X53370Y17182D01*
X53352Y17186D01*
X53336Y17194D01*
X53320Y17205D01*
X53307Y17218D01*
X53296Y17234D01*
X53288Y17250D01*
X53284Y17268D01*
X53282Y17287D01*
X53282Y17464D01*
X53283Y17464D02*
X53285Y17486D01*
X53290Y17508D01*
X53298Y17528D01*
X53310Y17547D01*
X53325Y17564D01*
X53342Y17579D01*
X53361Y17591D01*
X53381Y17599D01*
X53403Y17604D01*
X53425Y17606D01*
X53447Y17604D01*
X53469Y17599D01*
X53489Y17591D01*
X53508Y17579D01*
X53525Y17564D01*
X53540Y17547D01*
X53552Y17528D01*
X53560Y17508D01*
X53565Y17486D01*
X53567Y17464D01*
X53567Y17393D01*
X53282Y17393D01*
X53840Y17180D02*
X53840Y17607D01*
X54053Y17607D01*
X54053Y17536D01*
X54300Y17429D02*
X54478Y17358D01*
X54300Y17429D02*
X54284Y17437D01*
X54269Y17448D01*
X54258Y17462D01*
X54249Y17478D01*
X54244Y17496D01*
X54242Y17514D01*
X54244Y17532D01*
X54249Y17549D01*
X54258Y17565D01*
X54269Y17579D01*
X54284Y17591D01*
X54300Y17599D01*
X54317Y17604D01*
X54335Y17606D01*
X54336Y17607D02*
X54369Y17605D01*
X54401Y17601D01*
X54434Y17593D01*
X54465Y17584D01*
X54496Y17571D01*
X54477Y17357D02*
X54493Y17349D01*
X54508Y17338D01*
X54519Y17324D01*
X54528Y17308D01*
X54533Y17290D01*
X54535Y17272D01*
X54533Y17254D01*
X54528Y17237D01*
X54519Y17221D01*
X54508Y17207D01*
X54493Y17195D01*
X54477Y17187D01*
X54460Y17182D01*
X54442Y17180D01*
X54403Y17182D01*
X54363Y17186D01*
X54324Y17194D01*
X54285Y17203D01*
X54247Y17216D01*
X54759Y17180D02*
X54794Y17180D01*
X54759Y17180D02*
X54759Y17216D01*
X54794Y17216D01*
X54794Y17180D01*
X54741Y17038D01*
X55360Y17678D02*
X55537Y17820D01*
X55537Y17180D01*
X55360Y17180D02*
X55715Y17180D01*
X56298Y17322D02*
X56298Y17464D01*
X56300Y17486D01*
X56305Y17508D01*
X56313Y17528D01*
X56325Y17547D01*
X56340Y17564D01*
X56357Y17579D01*
X56376Y17591D01*
X56396Y17599D01*
X56418Y17604D01*
X56440Y17606D01*
X56462Y17604D01*
X56484Y17599D01*
X56504Y17591D01*
X56523Y17579D01*
X56540Y17564D01*
X56555Y17547D01*
X56567Y17528D01*
X56575Y17508D01*
X56580Y17486D01*
X56582Y17464D01*
X56582Y17322D01*
X56580Y17300D01*
X56575Y17278D01*
X56567Y17258D01*
X56555Y17239D01*
X56540Y17222D01*
X56523Y17207D01*
X56504Y17195D01*
X56484Y17187D01*
X56462Y17182D01*
X56440Y17180D01*
X56418Y17182D01*
X56396Y17187D01*
X56376Y17195D01*
X56357Y17207D01*
X56340Y17222D01*
X56325Y17239D01*
X56313Y17258D01*
X56305Y17278D01*
X56300Y17300D01*
X56298Y17322D01*
X56811Y17607D02*
X57095Y17607D01*
X56811Y17180D01*
X57095Y17180D01*
X57759Y17180D02*
X57901Y17180D01*
X57759Y17180D02*
X57740Y17182D01*
X57722Y17186D01*
X57706Y17194D01*
X57690Y17205D01*
X57677Y17218D01*
X57666Y17234D01*
X57658Y17250D01*
X57654Y17268D01*
X57652Y17287D01*
X57652Y17500D01*
X57654Y17519D01*
X57658Y17537D01*
X57666Y17554D01*
X57677Y17569D01*
X57690Y17582D01*
X57706Y17593D01*
X57722Y17601D01*
X57740Y17605D01*
X57759Y17607D01*
X57901Y17607D01*
X58123Y17464D02*
X58123Y17322D01*
X58124Y17464D02*
X58126Y17486D01*
X58131Y17508D01*
X58139Y17528D01*
X58151Y17547D01*
X58166Y17564D01*
X58183Y17579D01*
X58202Y17591D01*
X58222Y17599D01*
X58244Y17604D01*
X58266Y17606D01*
X58288Y17604D01*
X58310Y17599D01*
X58330Y17591D01*
X58349Y17579D01*
X58366Y17564D01*
X58381Y17547D01*
X58393Y17528D01*
X58401Y17508D01*
X58406Y17486D01*
X58408Y17464D01*
X58408Y17322D01*
X58406Y17300D01*
X58401Y17278D01*
X58393Y17258D01*
X58381Y17239D01*
X58366Y17222D01*
X58349Y17207D01*
X58330Y17195D01*
X58310Y17187D01*
X58288Y17182D01*
X58266Y17180D01*
X58244Y17182D01*
X58222Y17187D01*
X58202Y17195D01*
X58183Y17207D01*
X58166Y17222D01*
X58151Y17239D01*
X58139Y17258D01*
X58131Y17278D01*
X58126Y17300D01*
X58124Y17322D01*
X58680Y17607D02*
X58680Y16967D01*
X58680Y17607D02*
X58858Y17607D01*
X58877Y17605D01*
X58895Y17601D01*
X58911Y17593D01*
X58927Y17582D01*
X58940Y17569D01*
X58951Y17554D01*
X58959Y17537D01*
X58963Y17519D01*
X58965Y17500D01*
X58965Y17287D01*
X58963Y17268D01*
X58959Y17250D01*
X58951Y17234D01*
X58940Y17218D01*
X58927Y17205D01*
X58912Y17194D01*
X58895Y17186D01*
X58877Y17182D01*
X58858Y17180D01*
X58680Y17180D01*
X59234Y16967D02*
X59234Y17607D01*
X59412Y17607D01*
X59431Y17605D01*
X59449Y17601D01*
X59465Y17593D01*
X59481Y17582D01*
X59494Y17569D01*
X59505Y17554D01*
X59513Y17537D01*
X59517Y17519D01*
X59519Y17500D01*
X59519Y17287D01*
X59517Y17268D01*
X59513Y17250D01*
X59505Y17234D01*
X59494Y17218D01*
X59481Y17205D01*
X59466Y17194D01*
X59449Y17186D01*
X59431Y17182D01*
X59412Y17180D01*
X59234Y17180D01*
X59871Y17180D02*
X60049Y17180D01*
X59871Y17180D02*
X59852Y17182D01*
X59834Y17186D01*
X59818Y17194D01*
X59802Y17205D01*
X59789Y17218D01*
X59778Y17234D01*
X59770Y17250D01*
X59766Y17268D01*
X59764Y17287D01*
X59765Y17287D02*
X59765Y17464D01*
X59767Y17486D01*
X59772Y17508D01*
X59780Y17528D01*
X59792Y17547D01*
X59807Y17564D01*
X59824Y17579D01*
X59843Y17591D01*
X59863Y17599D01*
X59885Y17604D01*
X59907Y17606D01*
X59929Y17604D01*
X59951Y17599D01*
X59971Y17591D01*
X59990Y17579D01*
X60007Y17564D01*
X60022Y17547D01*
X60034Y17528D01*
X60042Y17508D01*
X60047Y17486D01*
X60049Y17464D01*
X60049Y17393D01*
X59765Y17393D01*
X60322Y17180D02*
X60322Y17607D01*
X60535Y17607D01*
X60535Y17536D01*
X61178Y17429D02*
X61338Y17429D01*
X61178Y17428D02*
X61158Y17426D01*
X61138Y17421D01*
X61119Y17413D01*
X61102Y17402D01*
X61087Y17388D01*
X61074Y17372D01*
X61064Y17354D01*
X61058Y17334D01*
X61054Y17314D01*
X61054Y17294D01*
X61058Y17274D01*
X61064Y17254D01*
X61074Y17236D01*
X61087Y17220D01*
X61102Y17206D01*
X61119Y17195D01*
X61138Y17187D01*
X61158Y17182D01*
X61178Y17180D01*
X61338Y17180D01*
X61338Y17500D01*
X61339Y17500D02*
X61337Y17519D01*
X61333Y17537D01*
X61325Y17554D01*
X61314Y17569D01*
X61301Y17582D01*
X61286Y17593D01*
X61269Y17601D01*
X61251Y17605D01*
X61232Y17607D01*
X61090Y17607D01*
X61620Y17820D02*
X61620Y17287D01*
X61622Y17268D01*
X61626Y17250D01*
X61634Y17234D01*
X61645Y17218D01*
X61658Y17205D01*
X61674Y17194D01*
X61690Y17186D01*
X61708Y17182D01*
X61727Y17180D01*
X61948Y17287D02*
X61948Y17820D01*
X61948Y17287D02*
X61950Y17268D01*
X61954Y17250D01*
X61962Y17234D01*
X61973Y17218D01*
X61986Y17205D01*
X62002Y17194D01*
X62018Y17186D01*
X62036Y17182D01*
X62055Y17180D01*
X62605Y17287D02*
X62605Y17820D01*
X62604Y17287D02*
X62606Y17268D01*
X62610Y17250D01*
X62618Y17234D01*
X62629Y17218D01*
X62642Y17205D01*
X62658Y17194D01*
X62674Y17186D01*
X62692Y17182D01*
X62711Y17180D01*
X63045Y17429D02*
X63205Y17429D01*
X63045Y17428D02*
X63025Y17426D01*
X63005Y17421D01*
X62986Y17413D01*
X62969Y17402D01*
X62954Y17388D01*
X62941Y17372D01*
X62931Y17354D01*
X62925Y17334D01*
X62921Y17314D01*
X62921Y17294D01*
X62925Y17274D01*
X62931Y17254D01*
X62941Y17236D01*
X62954Y17220D01*
X62969Y17206D01*
X62986Y17195D01*
X63005Y17187D01*
X63025Y17182D01*
X63045Y17180D01*
X63205Y17180D01*
X63205Y17500D01*
X63206Y17500D02*
X63204Y17519D01*
X63200Y17537D01*
X63192Y17554D01*
X63181Y17569D01*
X63168Y17582D01*
X63153Y17593D01*
X63136Y17601D01*
X63118Y17605D01*
X63099Y17607D01*
X62956Y17607D01*
X63457Y16967D02*
X63528Y16967D01*
X63741Y17607D01*
X63457Y17607D02*
X63599Y17180D01*
X64076Y17180D02*
X64254Y17180D01*
X64076Y17180D02*
X64057Y17182D01*
X64039Y17186D01*
X64023Y17194D01*
X64007Y17205D01*
X63994Y17218D01*
X63983Y17234D01*
X63975Y17250D01*
X63971Y17268D01*
X63969Y17287D01*
X63970Y17287D02*
X63970Y17464D01*
X63972Y17486D01*
X63977Y17508D01*
X63985Y17528D01*
X63997Y17547D01*
X64012Y17564D01*
X64029Y17579D01*
X64048Y17591D01*
X64068Y17599D01*
X64090Y17604D01*
X64112Y17606D01*
X64134Y17604D01*
X64156Y17599D01*
X64176Y17591D01*
X64195Y17579D01*
X64212Y17564D01*
X64227Y17547D01*
X64239Y17528D01*
X64247Y17508D01*
X64252Y17486D01*
X64254Y17464D01*
X64254Y17393D01*
X63970Y17393D01*
X64527Y17180D02*
X64527Y17607D01*
X64740Y17607D01*
X64740Y17536D01*
X64987Y17429D02*
X65165Y17358D01*
X64988Y17429D02*
X64972Y17437D01*
X64957Y17448D01*
X64946Y17462D01*
X64937Y17478D01*
X64932Y17496D01*
X64930Y17514D01*
X64932Y17532D01*
X64937Y17549D01*
X64946Y17565D01*
X64957Y17579D01*
X64972Y17591D01*
X64988Y17599D01*
X65005Y17604D01*
X65023Y17606D01*
X65023Y17607D02*
X65056Y17605D01*
X65088Y17601D01*
X65121Y17593D01*
X65152Y17584D01*
X65183Y17571D01*
X65165Y17357D02*
X65181Y17349D01*
X65196Y17338D01*
X65207Y17324D01*
X65216Y17308D01*
X65221Y17290D01*
X65223Y17272D01*
X65221Y17254D01*
X65216Y17237D01*
X65207Y17221D01*
X65196Y17207D01*
X65181Y17195D01*
X65165Y17187D01*
X65148Y17182D01*
X65130Y17180D01*
X65129Y17180D02*
X65090Y17182D01*
X65050Y17186D01*
X65011Y17194D01*
X64972Y17203D01*
X64934Y17216D01*
X49958Y16130D02*
X49780Y16130D01*
X49958Y16130D02*
X49983Y16132D01*
X50008Y16137D01*
X50032Y16146D01*
X50054Y16158D01*
X50075Y16173D01*
X50093Y16191D01*
X50108Y16212D01*
X50120Y16234D01*
X50129Y16258D01*
X50134Y16283D01*
X50136Y16308D01*
X50134Y16333D01*
X50129Y16358D01*
X50120Y16382D01*
X50108Y16404D01*
X50093Y16425D01*
X50075Y16443D01*
X50054Y16458D01*
X50032Y16470D01*
X50008Y16479D01*
X49983Y16484D01*
X49958Y16486D01*
X49993Y16770D02*
X49780Y16770D01*
X49993Y16770D02*
X50015Y16768D01*
X50037Y16763D01*
X50057Y16755D01*
X50076Y16743D01*
X50093Y16728D01*
X50108Y16711D01*
X50120Y16692D01*
X50128Y16672D01*
X50133Y16650D01*
X50135Y16628D01*
X50133Y16606D01*
X50128Y16584D01*
X50120Y16564D01*
X50108Y16545D01*
X50093Y16528D01*
X50076Y16513D01*
X50057Y16501D01*
X50037Y16493D01*
X50015Y16488D01*
X49993Y16486D01*
X49851Y16486D01*
X50371Y16166D02*
X50371Y16130D01*
X50371Y16166D02*
X50406Y16166D01*
X50406Y16130D01*
X50371Y16130D01*
X50970Y16308D02*
X50970Y16592D01*
X50972Y16617D01*
X50977Y16642D01*
X50986Y16666D01*
X50998Y16688D01*
X51013Y16709D01*
X51031Y16727D01*
X51052Y16742D01*
X51074Y16754D01*
X51098Y16763D01*
X51123Y16768D01*
X51148Y16770D01*
X51173Y16768D01*
X51198Y16763D01*
X51222Y16754D01*
X51244Y16742D01*
X51265Y16727D01*
X51283Y16709D01*
X51298Y16688D01*
X51310Y16666D01*
X51319Y16642D01*
X51324Y16617D01*
X51326Y16592D01*
X51325Y16592D02*
X51325Y16308D01*
X51326Y16308D02*
X51324Y16283D01*
X51319Y16258D01*
X51310Y16234D01*
X51298Y16212D01*
X51283Y16191D01*
X51265Y16173D01*
X51244Y16158D01*
X51222Y16146D01*
X51198Y16137D01*
X51173Y16132D01*
X51148Y16130D01*
X51123Y16132D01*
X51098Y16137D01*
X51074Y16146D01*
X51052Y16158D01*
X51031Y16173D01*
X51013Y16191D01*
X50998Y16212D01*
X50986Y16234D01*
X50977Y16258D01*
X50972Y16283D01*
X50970Y16308D01*
X51559Y16557D02*
X51701Y16130D01*
X51844Y16557D01*
X52179Y16130D02*
X52356Y16130D01*
X52179Y16130D02*
X52160Y16132D01*
X52142Y16136D01*
X52126Y16144D01*
X52110Y16155D01*
X52097Y16168D01*
X52086Y16184D01*
X52078Y16200D01*
X52074Y16218D01*
X52072Y16237D01*
X52072Y16414D01*
X52074Y16436D01*
X52079Y16458D01*
X52087Y16478D01*
X52099Y16497D01*
X52114Y16514D01*
X52131Y16529D01*
X52150Y16541D01*
X52170Y16549D01*
X52192Y16554D01*
X52214Y16556D01*
X52236Y16554D01*
X52258Y16549D01*
X52278Y16541D01*
X52297Y16529D01*
X52314Y16514D01*
X52329Y16497D01*
X52341Y16478D01*
X52349Y16458D01*
X52354Y16436D01*
X52356Y16414D01*
X52356Y16343D01*
X52072Y16343D01*
X52629Y16130D02*
X52629Y16557D01*
X52843Y16557D01*
X52843Y16486D01*
X53158Y16379D02*
X53318Y16379D01*
X53158Y16378D02*
X53138Y16376D01*
X53118Y16371D01*
X53099Y16363D01*
X53082Y16352D01*
X53067Y16338D01*
X53054Y16322D01*
X53044Y16304D01*
X53038Y16284D01*
X53034Y16264D01*
X53034Y16244D01*
X53038Y16224D01*
X53044Y16204D01*
X53054Y16186D01*
X53067Y16170D01*
X53082Y16156D01*
X53099Y16145D01*
X53118Y16137D01*
X53138Y16132D01*
X53158Y16130D01*
X53318Y16130D01*
X53318Y16450D01*
X53316Y16469D01*
X53312Y16487D01*
X53304Y16504D01*
X53293Y16519D01*
X53280Y16532D01*
X53265Y16543D01*
X53248Y16551D01*
X53230Y16555D01*
X53211Y16557D01*
X53069Y16557D01*
X53599Y16770D02*
X53599Y16237D01*
X53601Y16218D01*
X53605Y16200D01*
X53613Y16184D01*
X53624Y16168D01*
X53637Y16155D01*
X53653Y16144D01*
X53669Y16136D01*
X53687Y16132D01*
X53706Y16130D01*
X53928Y16237D02*
X53928Y16770D01*
X53927Y16237D02*
X53929Y16218D01*
X53933Y16200D01*
X53941Y16184D01*
X53952Y16168D01*
X53965Y16155D01*
X53981Y16144D01*
X53997Y16136D01*
X54015Y16132D01*
X54034Y16130D01*
X54524Y16557D02*
X54737Y16557D01*
X54595Y16770D02*
X54595Y16237D01*
X54594Y16237D02*
X54596Y16218D01*
X54600Y16200D01*
X54608Y16184D01*
X54619Y16168D01*
X54632Y16155D01*
X54648Y16144D01*
X54664Y16136D01*
X54682Y16132D01*
X54701Y16130D01*
X54737Y16130D01*
X54985Y16130D02*
X54985Y16770D01*
X54985Y16557D02*
X55163Y16557D01*
X55182Y16555D01*
X55200Y16551D01*
X55216Y16543D01*
X55232Y16532D01*
X55245Y16519D01*
X55256Y16504D01*
X55264Y16487D01*
X55268Y16469D01*
X55270Y16450D01*
X55269Y16450D02*
X55269Y16130D01*
X55537Y16130D02*
X55537Y16557D01*
X55520Y16734D02*
X55520Y16770D01*
X55555Y16770D01*
X55555Y16734D01*
X55520Y16734D01*
X55892Y16130D02*
X56035Y16130D01*
X55892Y16130D02*
X55873Y16132D01*
X55855Y16136D01*
X55839Y16144D01*
X55823Y16155D01*
X55810Y16168D01*
X55799Y16184D01*
X55791Y16200D01*
X55787Y16218D01*
X55785Y16237D01*
X55786Y16237D02*
X55786Y16450D01*
X55785Y16450D02*
X55787Y16469D01*
X55791Y16487D01*
X55799Y16504D01*
X55810Y16519D01*
X55823Y16532D01*
X55839Y16543D01*
X55855Y16551D01*
X55873Y16555D01*
X55892Y16557D01*
X56035Y16557D01*
X56284Y16770D02*
X56284Y16130D01*
X56284Y16343D02*
X56568Y16557D01*
X56408Y16432D02*
X56568Y16130D01*
X56811Y16130D02*
X56811Y16557D01*
X56988Y16557D01*
X57007Y16555D01*
X57025Y16551D01*
X57041Y16543D01*
X57057Y16532D01*
X57070Y16519D01*
X57081Y16504D01*
X57089Y16487D01*
X57093Y16469D01*
X57095Y16450D01*
X57095Y16130D01*
X57471Y16130D02*
X57649Y16130D01*
X57471Y16130D02*
X57452Y16132D01*
X57434Y16136D01*
X57418Y16144D01*
X57402Y16155D01*
X57389Y16168D01*
X57378Y16184D01*
X57370Y16200D01*
X57366Y16218D01*
X57364Y16237D01*
X57364Y16414D01*
X57365Y16414D02*
X57367Y16436D01*
X57372Y16458D01*
X57380Y16478D01*
X57392Y16497D01*
X57407Y16514D01*
X57424Y16529D01*
X57443Y16541D01*
X57463Y16549D01*
X57485Y16554D01*
X57507Y16556D01*
X57529Y16554D01*
X57551Y16549D01*
X57571Y16541D01*
X57590Y16529D01*
X57607Y16514D01*
X57622Y16497D01*
X57634Y16478D01*
X57642Y16458D01*
X57647Y16436D01*
X57649Y16414D01*
X57649Y16343D01*
X57364Y16343D01*
X57951Y16379D02*
X58129Y16308D01*
X57951Y16379D02*
X57935Y16387D01*
X57920Y16398D01*
X57909Y16412D01*
X57900Y16428D01*
X57895Y16446D01*
X57893Y16464D01*
X57895Y16482D01*
X57900Y16499D01*
X57909Y16515D01*
X57920Y16529D01*
X57935Y16541D01*
X57951Y16549D01*
X57968Y16554D01*
X57986Y16556D01*
X57987Y16557D02*
X58020Y16555D01*
X58052Y16551D01*
X58085Y16543D01*
X58116Y16534D01*
X58147Y16521D01*
X58129Y16307D02*
X58145Y16299D01*
X58160Y16288D01*
X58171Y16274D01*
X58180Y16258D01*
X58185Y16240D01*
X58187Y16222D01*
X58185Y16204D01*
X58180Y16187D01*
X58171Y16171D01*
X58160Y16157D01*
X58145Y16145D01*
X58129Y16137D01*
X58112Y16132D01*
X58094Y16130D01*
X58093Y16130D02*
X58054Y16132D01*
X58014Y16136D01*
X57975Y16144D01*
X57936Y16153D01*
X57898Y16166D01*
X58485Y16379D02*
X58662Y16308D01*
X58485Y16379D02*
X58469Y16387D01*
X58454Y16398D01*
X58443Y16412D01*
X58434Y16428D01*
X58429Y16446D01*
X58427Y16464D01*
X58429Y16482D01*
X58434Y16499D01*
X58443Y16515D01*
X58454Y16529D01*
X58469Y16541D01*
X58485Y16549D01*
X58502Y16554D01*
X58520Y16556D01*
X58520Y16557D02*
X58553Y16555D01*
X58585Y16551D01*
X58618Y16543D01*
X58649Y16534D01*
X58680Y16521D01*
X58662Y16307D02*
X58678Y16299D01*
X58693Y16288D01*
X58704Y16274D01*
X58713Y16258D01*
X58718Y16240D01*
X58720Y16222D01*
X58718Y16204D01*
X58713Y16187D01*
X58704Y16171D01*
X58693Y16157D01*
X58678Y16145D01*
X58662Y16137D01*
X58645Y16132D01*
X58627Y16130D01*
X58626Y16130D02*
X58587Y16132D01*
X58547Y16136D01*
X58508Y16144D01*
X58469Y16153D01*
X58431Y16166D01*
X58966Y16183D02*
X58966Y16219D01*
X59001Y16219D01*
X59001Y16183D01*
X58966Y16183D01*
X58966Y16468D02*
X58966Y16503D01*
X59001Y16503D01*
X59001Y16468D01*
X58966Y16468D01*
X59586Y16450D02*
X59588Y16490D01*
X59592Y16529D01*
X59599Y16569D01*
X59610Y16607D01*
X59623Y16644D01*
X59639Y16681D01*
X59638Y16681D02*
X59646Y16700D01*
X59657Y16717D01*
X59671Y16732D01*
X59686Y16745D01*
X59704Y16756D01*
X59723Y16764D01*
X59743Y16768D01*
X59763Y16770D01*
X59783Y16768D01*
X59803Y16764D01*
X59822Y16756D01*
X59840Y16745D01*
X59855Y16732D01*
X59869Y16717D01*
X59880Y16700D01*
X59888Y16681D01*
X59904Y16644D01*
X59917Y16607D01*
X59928Y16569D01*
X59935Y16529D01*
X59939Y16490D01*
X59941Y16450D01*
X59586Y16450D02*
X59588Y16410D01*
X59592Y16371D01*
X59599Y16332D01*
X59610Y16293D01*
X59623Y16256D01*
X59639Y16219D01*
X59638Y16219D02*
X59646Y16200D01*
X59657Y16183D01*
X59671Y16168D01*
X59686Y16155D01*
X59704Y16144D01*
X59723Y16136D01*
X59743Y16132D01*
X59763Y16130D01*
X59888Y16219D02*
X59904Y16256D01*
X59917Y16293D01*
X59928Y16332D01*
X59935Y16371D01*
X59939Y16410D01*
X59941Y16450D01*
X59888Y16219D02*
X59880Y16200D01*
X59869Y16183D01*
X59855Y16168D01*
X59840Y16155D01*
X59822Y16144D01*
X59803Y16136D01*
X59783Y16132D01*
X59763Y16130D01*
X59621Y16272D02*
X59905Y16628D01*
X60176Y16166D02*
X60176Y16130D01*
X60176Y16166D02*
X60212Y16166D01*
X60212Y16130D01*
X60176Y16130D01*
X60447Y16450D02*
X60449Y16490D01*
X60453Y16529D01*
X60460Y16569D01*
X60471Y16607D01*
X60484Y16644D01*
X60500Y16681D01*
X60508Y16700D01*
X60519Y16717D01*
X60533Y16732D01*
X60548Y16745D01*
X60566Y16756D01*
X60585Y16764D01*
X60605Y16768D01*
X60625Y16770D01*
X60645Y16768D01*
X60665Y16764D01*
X60684Y16756D01*
X60702Y16745D01*
X60717Y16732D01*
X60731Y16717D01*
X60742Y16700D01*
X60750Y16681D01*
X60749Y16681D02*
X60765Y16644D01*
X60778Y16607D01*
X60789Y16569D01*
X60796Y16529D01*
X60800Y16490D01*
X60802Y16450D01*
X60447Y16450D02*
X60449Y16410D01*
X60453Y16371D01*
X60460Y16332D01*
X60471Y16293D01*
X60484Y16256D01*
X60500Y16219D01*
X60508Y16200D01*
X60519Y16183D01*
X60533Y16168D01*
X60548Y16155D01*
X60566Y16144D01*
X60585Y16136D01*
X60605Y16132D01*
X60625Y16130D01*
X60749Y16219D02*
X60765Y16256D01*
X60778Y16293D01*
X60789Y16332D01*
X60796Y16371D01*
X60800Y16410D01*
X60802Y16450D01*
X60750Y16219D02*
X60742Y16200D01*
X60731Y16183D01*
X60717Y16168D01*
X60702Y16155D01*
X60684Y16144D01*
X60665Y16136D01*
X60645Y16132D01*
X60625Y16130D01*
X60483Y16272D02*
X60767Y16628D01*
X61205Y16414D02*
X61418Y16414D01*
X61205Y16415D02*
X61183Y16417D01*
X61161Y16422D01*
X61141Y16430D01*
X61122Y16442D01*
X61105Y16457D01*
X61090Y16474D01*
X61078Y16493D01*
X61070Y16513D01*
X61065Y16535D01*
X61063Y16557D01*
X61062Y16557D02*
X61062Y16592D01*
X61064Y16617D01*
X61069Y16642D01*
X61078Y16666D01*
X61090Y16688D01*
X61105Y16709D01*
X61123Y16727D01*
X61144Y16742D01*
X61166Y16754D01*
X61190Y16763D01*
X61215Y16768D01*
X61240Y16770D01*
X61265Y16768D01*
X61290Y16763D01*
X61314Y16754D01*
X61336Y16742D01*
X61357Y16727D01*
X61375Y16709D01*
X61390Y16688D01*
X61402Y16666D01*
X61411Y16642D01*
X61416Y16617D01*
X61418Y16592D01*
X61418Y16414D01*
X61417Y16414D02*
X61415Y16382D01*
X61410Y16351D01*
X61401Y16320D01*
X61389Y16291D01*
X61373Y16263D01*
X61355Y16237D01*
X61334Y16213D01*
X61310Y16192D01*
X61284Y16174D01*
X61256Y16158D01*
X61227Y16146D01*
X61196Y16137D01*
X61165Y16132D01*
X61133Y16130D01*
X61678Y16130D02*
X61856Y16130D01*
X61881Y16132D01*
X61906Y16137D01*
X61930Y16146D01*
X61952Y16158D01*
X61973Y16173D01*
X61991Y16191D01*
X62006Y16212D01*
X62018Y16234D01*
X62027Y16258D01*
X62032Y16283D01*
X62034Y16308D01*
X62032Y16333D01*
X62027Y16358D01*
X62018Y16382D01*
X62006Y16404D01*
X61991Y16425D01*
X61973Y16443D01*
X61952Y16458D01*
X61930Y16470D01*
X61906Y16479D01*
X61881Y16484D01*
X61856Y16486D01*
X61891Y16770D02*
X61678Y16770D01*
X61891Y16770D02*
X61913Y16768D01*
X61935Y16763D01*
X61955Y16755D01*
X61974Y16743D01*
X61991Y16728D01*
X62006Y16711D01*
X62018Y16692D01*
X62026Y16672D01*
X62031Y16650D01*
X62033Y16628D01*
X62031Y16606D01*
X62026Y16584D01*
X62018Y16564D01*
X62006Y16545D01*
X61991Y16528D01*
X61974Y16513D01*
X61955Y16501D01*
X61935Y16493D01*
X61913Y16488D01*
X61891Y16486D01*
X61749Y16486D01*
X62259Y16770D02*
X62259Y16912D01*
X62437Y16912D02*
X62437Y16770D01*
X62996Y16379D02*
X63423Y16379D01*
X63209Y16166D02*
X63209Y16592D01*
X63662Y16059D02*
X63947Y16841D01*
X64186Y16379D02*
X64613Y16379D01*
X65206Y16628D02*
X65384Y16770D01*
X65384Y16130D01*
X65206Y16130D02*
X65562Y16130D01*
X65822Y16450D02*
X65824Y16490D01*
X65828Y16529D01*
X65835Y16569D01*
X65846Y16607D01*
X65859Y16644D01*
X65875Y16681D01*
X65874Y16681D02*
X65882Y16700D01*
X65893Y16717D01*
X65907Y16732D01*
X65922Y16745D01*
X65940Y16756D01*
X65959Y16764D01*
X65979Y16768D01*
X65999Y16770D01*
X66019Y16768D01*
X66039Y16764D01*
X66058Y16756D01*
X66076Y16745D01*
X66091Y16732D01*
X66105Y16717D01*
X66116Y16700D01*
X66124Y16681D01*
X66140Y16644D01*
X66153Y16607D01*
X66164Y16569D01*
X66171Y16529D01*
X66175Y16490D01*
X66177Y16450D01*
X65822Y16450D02*
X65824Y16410D01*
X65828Y16371D01*
X65835Y16332D01*
X65846Y16293D01*
X65859Y16256D01*
X65875Y16219D01*
X65874Y16219D02*
X65882Y16200D01*
X65893Y16183D01*
X65907Y16168D01*
X65922Y16155D01*
X65940Y16144D01*
X65959Y16136D01*
X65979Y16132D01*
X65999Y16130D01*
X66124Y16219D02*
X66140Y16256D01*
X66153Y16293D01*
X66164Y16332D01*
X66171Y16371D01*
X66175Y16410D01*
X66177Y16450D01*
X66124Y16219D02*
X66116Y16200D01*
X66105Y16183D01*
X66091Y16168D01*
X66076Y16155D01*
X66058Y16144D01*
X66039Y16136D01*
X66019Y16132D01*
X65999Y16130D01*
X65857Y16272D02*
X66141Y16628D01*
X66453Y16130D02*
X67022Y16770D01*
X66667Y16663D02*
X66665Y16683D01*
X66660Y16702D01*
X66651Y16719D01*
X66639Y16735D01*
X66624Y16748D01*
X66608Y16759D01*
X66589Y16766D01*
X66570Y16770D01*
X66550Y16770D01*
X66531Y16766D01*
X66512Y16759D01*
X66496Y16748D01*
X66481Y16735D01*
X66469Y16719D01*
X66460Y16702D01*
X66455Y16683D01*
X66453Y16663D01*
X66455Y16643D01*
X66460Y16624D01*
X66469Y16607D01*
X66481Y16591D01*
X66496Y16578D01*
X66512Y16567D01*
X66531Y16560D01*
X66550Y16556D01*
X66570Y16556D01*
X66589Y16560D01*
X66608Y16567D01*
X66624Y16578D01*
X66639Y16591D01*
X66651Y16607D01*
X66660Y16624D01*
X66665Y16643D01*
X66667Y16663D01*
X66809Y16237D02*
X66811Y16257D01*
X66816Y16276D01*
X66825Y16293D01*
X66837Y16309D01*
X66852Y16322D01*
X66868Y16333D01*
X66887Y16340D01*
X66906Y16344D01*
X66926Y16344D01*
X66945Y16340D01*
X66964Y16333D01*
X66980Y16322D01*
X66995Y16309D01*
X67007Y16293D01*
X67016Y16276D01*
X67021Y16257D01*
X67023Y16237D01*
X67021Y16217D01*
X67016Y16198D01*
X67007Y16181D01*
X66995Y16165D01*
X66980Y16152D01*
X66964Y16141D01*
X66945Y16134D01*
X66926Y16130D01*
X66906Y16130D01*
X66887Y16134D01*
X66868Y16141D01*
X66852Y16152D01*
X66837Y16165D01*
X66825Y16181D01*
X66816Y16198D01*
X66811Y16217D01*
X66809Y16237D01*
X49922Y15720D02*
X49780Y15222D01*
X50136Y15222D01*
X50029Y15364D02*
X50029Y15080D01*
X50371Y15080D02*
X50371Y15116D01*
X50406Y15116D01*
X50406Y15080D01*
X50371Y15080D01*
X50991Y15080D02*
X50991Y15720D01*
X51276Y15720D01*
X51276Y15436D02*
X50991Y15436D01*
X51496Y15507D02*
X51496Y15080D01*
X51479Y15684D02*
X51479Y15720D01*
X51514Y15720D01*
X51514Y15684D01*
X51479Y15684D01*
X51764Y15507D02*
X51764Y15080D01*
X51764Y15507D02*
X51942Y15507D01*
X51961Y15505D01*
X51979Y15501D01*
X51995Y15493D01*
X52011Y15482D01*
X52024Y15469D01*
X52035Y15454D01*
X52043Y15437D01*
X52047Y15419D01*
X52049Y15400D01*
X52049Y15080D01*
X52317Y15080D02*
X52317Y15507D01*
X52299Y15684D02*
X52299Y15720D01*
X52335Y15720D01*
X52335Y15684D01*
X52299Y15684D01*
X52618Y15329D02*
X52795Y15258D01*
X52618Y15329D02*
X52602Y15337D01*
X52587Y15348D01*
X52576Y15362D01*
X52567Y15378D01*
X52562Y15396D01*
X52560Y15414D01*
X52562Y15432D01*
X52567Y15449D01*
X52576Y15465D01*
X52587Y15479D01*
X52602Y15491D01*
X52618Y15499D01*
X52635Y15504D01*
X52653Y15506D01*
X52653Y15507D02*
X52686Y15505D01*
X52718Y15501D01*
X52751Y15493D01*
X52782Y15484D01*
X52813Y15471D01*
X52795Y15257D02*
X52811Y15249D01*
X52826Y15238D01*
X52837Y15224D01*
X52846Y15208D01*
X52851Y15190D01*
X52853Y15172D01*
X52851Y15154D01*
X52846Y15137D01*
X52837Y15121D01*
X52826Y15107D01*
X52811Y15095D01*
X52795Y15087D01*
X52778Y15082D01*
X52760Y15080D01*
X52721Y15082D01*
X52681Y15086D01*
X52642Y15094D01*
X52603Y15103D01*
X52565Y15116D01*
X53118Y15080D02*
X53118Y15720D01*
X53118Y15507D02*
X53296Y15507D01*
X53315Y15505D01*
X53333Y15501D01*
X53349Y15493D01*
X53365Y15482D01*
X53378Y15469D01*
X53389Y15454D01*
X53397Y15437D01*
X53401Y15419D01*
X53403Y15400D01*
X53403Y15080D01*
X53673Y15133D02*
X53673Y15169D01*
X53709Y15169D01*
X53709Y15133D01*
X53673Y15133D01*
X53673Y15418D02*
X53673Y15453D01*
X53709Y15453D01*
X53709Y15418D01*
X53673Y15418D01*
X54313Y15720D02*
X54313Y15080D01*
X54313Y15436D02*
X54669Y15436D01*
X54669Y15720D02*
X54669Y15080D01*
X54914Y15080D02*
X55127Y15720D01*
X55340Y15080D01*
X55287Y15240D02*
X54967Y15240D01*
X55758Y15080D02*
X55780Y15082D01*
X55802Y15087D01*
X55822Y15095D01*
X55841Y15107D01*
X55858Y15122D01*
X55873Y15139D01*
X55885Y15158D01*
X55893Y15178D01*
X55898Y15200D01*
X55900Y15222D01*
X55758Y15080D02*
X55724Y15082D01*
X55691Y15088D01*
X55658Y15097D01*
X55627Y15110D01*
X55598Y15126D01*
X55570Y15146D01*
X55545Y15169D01*
X55562Y15578D02*
X55564Y15600D01*
X55569Y15622D01*
X55577Y15642D01*
X55589Y15661D01*
X55604Y15678D01*
X55621Y15693D01*
X55640Y15705D01*
X55660Y15713D01*
X55682Y15718D01*
X55704Y15720D01*
X55733Y15718D01*
X55761Y15714D01*
X55788Y15706D01*
X55815Y15696D01*
X55840Y15683D01*
X55864Y15667D01*
X55562Y15578D02*
X55564Y15557D01*
X55568Y15536D01*
X55576Y15516D01*
X55587Y15497D01*
X55600Y15481D01*
X55615Y15466D01*
X55633Y15454D01*
X55828Y15346D02*
X55846Y15334D01*
X55861Y15319D01*
X55874Y15303D01*
X55885Y15284D01*
X55893Y15264D01*
X55897Y15243D01*
X55899Y15222D01*
X55829Y15347D02*
X55633Y15453D01*
X56161Y15720D02*
X56161Y15080D01*
X56445Y15080D01*
X56646Y15080D02*
X56681Y15080D01*
X56646Y15080D02*
X56646Y15116D01*
X56681Y15116D01*
X56681Y15080D01*
X56628Y14938D01*
X57440Y15080D02*
X57462Y15082D01*
X57484Y15087D01*
X57504Y15095D01*
X57523Y15107D01*
X57540Y15122D01*
X57555Y15139D01*
X57567Y15158D01*
X57575Y15178D01*
X57580Y15200D01*
X57582Y15222D01*
X57440Y15080D02*
X57406Y15082D01*
X57373Y15088D01*
X57340Y15097D01*
X57309Y15110D01*
X57280Y15126D01*
X57252Y15146D01*
X57227Y15169D01*
X57244Y15578D02*
X57246Y15600D01*
X57251Y15622D01*
X57259Y15642D01*
X57271Y15661D01*
X57286Y15678D01*
X57303Y15693D01*
X57322Y15705D01*
X57342Y15713D01*
X57364Y15718D01*
X57386Y15720D01*
X57415Y15718D01*
X57443Y15714D01*
X57470Y15706D01*
X57497Y15696D01*
X57522Y15683D01*
X57546Y15667D01*
X57245Y15578D02*
X57247Y15557D01*
X57251Y15536D01*
X57259Y15516D01*
X57270Y15497D01*
X57283Y15481D01*
X57298Y15466D01*
X57316Y15454D01*
X57510Y15346D02*
X57528Y15334D01*
X57543Y15319D01*
X57556Y15303D01*
X57567Y15284D01*
X57575Y15264D01*
X57579Y15243D01*
X57581Y15222D01*
X57511Y15347D02*
X57315Y15453D01*
X57816Y15364D02*
X57816Y15222D01*
X57816Y15364D02*
X57818Y15386D01*
X57823Y15408D01*
X57831Y15428D01*
X57843Y15447D01*
X57858Y15464D01*
X57875Y15479D01*
X57894Y15491D01*
X57914Y15499D01*
X57936Y15504D01*
X57958Y15506D01*
X57980Y15504D01*
X58002Y15499D01*
X58022Y15491D01*
X58041Y15479D01*
X58058Y15464D01*
X58073Y15447D01*
X58085Y15428D01*
X58093Y15408D01*
X58098Y15386D01*
X58100Y15364D01*
X58100Y15222D01*
X58098Y15200D01*
X58093Y15178D01*
X58085Y15158D01*
X58073Y15139D01*
X58058Y15122D01*
X58041Y15107D01*
X58022Y15095D01*
X58002Y15087D01*
X57980Y15082D01*
X57958Y15080D01*
X57936Y15082D01*
X57914Y15087D01*
X57894Y15095D01*
X57875Y15107D01*
X57858Y15122D01*
X57843Y15139D01*
X57831Y15158D01*
X57823Y15178D01*
X57818Y15200D01*
X57816Y15222D01*
X58358Y15187D02*
X58358Y15720D01*
X58358Y15187D02*
X58360Y15168D01*
X58364Y15150D01*
X58372Y15134D01*
X58383Y15118D01*
X58396Y15105D01*
X58412Y15094D01*
X58428Y15086D01*
X58446Y15082D01*
X58465Y15080D01*
X58959Y15080D02*
X58959Y15720D01*
X58959Y15080D02*
X58781Y15080D01*
X58762Y15082D01*
X58744Y15086D01*
X58728Y15094D01*
X58712Y15105D01*
X58699Y15118D01*
X58688Y15134D01*
X58680Y15150D01*
X58676Y15168D01*
X58674Y15187D01*
X58674Y15400D01*
X58676Y15419D01*
X58680Y15437D01*
X58688Y15454D01*
X58699Y15469D01*
X58712Y15482D01*
X58728Y15493D01*
X58744Y15501D01*
X58762Y15505D01*
X58781Y15507D01*
X58959Y15507D01*
X59338Y15080D02*
X59516Y15080D01*
X59338Y15080D02*
X59319Y15082D01*
X59301Y15086D01*
X59285Y15094D01*
X59269Y15105D01*
X59256Y15118D01*
X59245Y15134D01*
X59237Y15150D01*
X59233Y15168D01*
X59231Y15187D01*
X59231Y15364D01*
X59233Y15386D01*
X59238Y15408D01*
X59246Y15428D01*
X59258Y15447D01*
X59273Y15464D01*
X59290Y15479D01*
X59309Y15491D01*
X59329Y15499D01*
X59351Y15504D01*
X59373Y15506D01*
X59395Y15504D01*
X59417Y15499D01*
X59437Y15491D01*
X59456Y15479D01*
X59473Y15464D01*
X59488Y15447D01*
X59500Y15428D01*
X59508Y15408D01*
X59513Y15386D01*
X59515Y15364D01*
X59516Y15364D02*
X59516Y15293D01*
X59231Y15293D01*
X59788Y15080D02*
X59788Y15507D01*
X60002Y15507D01*
X60002Y15436D01*
X60227Y15507D02*
X60227Y15080D01*
X60227Y15507D02*
X60547Y15507D01*
X60566Y15505D01*
X60584Y15501D01*
X60601Y15493D01*
X60616Y15482D01*
X60629Y15469D01*
X60640Y15454D01*
X60648Y15437D01*
X60652Y15419D01*
X60654Y15400D01*
X60653Y15400D02*
X60653Y15080D01*
X60440Y15080D02*
X60440Y15507D01*
X61055Y15329D02*
X61215Y15329D01*
X61055Y15328D02*
X61035Y15326D01*
X61015Y15321D01*
X60996Y15313D01*
X60979Y15302D01*
X60964Y15288D01*
X60951Y15272D01*
X60941Y15254D01*
X60935Y15234D01*
X60931Y15214D01*
X60931Y15194D01*
X60935Y15174D01*
X60941Y15154D01*
X60951Y15136D01*
X60964Y15120D01*
X60979Y15106D01*
X60996Y15095D01*
X61015Y15087D01*
X61035Y15082D01*
X61055Y15080D01*
X61215Y15080D01*
X61215Y15400D01*
X61216Y15400D02*
X61214Y15419D01*
X61210Y15437D01*
X61202Y15454D01*
X61191Y15469D01*
X61178Y15482D01*
X61163Y15493D01*
X61146Y15501D01*
X61128Y15505D01*
X61109Y15507D01*
X60966Y15507D01*
X61541Y15329D02*
X61719Y15258D01*
X61541Y15329D02*
X61525Y15337D01*
X61510Y15348D01*
X61499Y15362D01*
X61490Y15378D01*
X61485Y15396D01*
X61483Y15414D01*
X61485Y15432D01*
X61490Y15449D01*
X61499Y15465D01*
X61510Y15479D01*
X61525Y15491D01*
X61541Y15499D01*
X61558Y15504D01*
X61576Y15506D01*
X61577Y15507D02*
X61610Y15505D01*
X61642Y15501D01*
X61675Y15493D01*
X61706Y15484D01*
X61737Y15471D01*
X61719Y15257D02*
X61735Y15249D01*
X61750Y15238D01*
X61761Y15224D01*
X61770Y15208D01*
X61775Y15190D01*
X61777Y15172D01*
X61775Y15154D01*
X61770Y15137D01*
X61761Y15121D01*
X61750Y15107D01*
X61735Y15095D01*
X61719Y15087D01*
X61702Y15082D01*
X61684Y15080D01*
X61683Y15080D02*
X61644Y15082D01*
X61604Y15086D01*
X61565Y15094D01*
X61526Y15103D01*
X61488Y15116D01*
X62048Y15080D02*
X62048Y15720D01*
X62333Y15507D02*
X62048Y15293D01*
X62173Y15382D02*
X62333Y15080D01*
X62556Y15133D02*
X62556Y15169D01*
X62591Y15169D01*
X62591Y15133D01*
X62556Y15133D01*
X62556Y15418D02*
X62556Y15453D01*
X62591Y15453D01*
X62591Y15418D01*
X62556Y15418D01*
X63445Y15436D02*
X63551Y15436D01*
X63551Y15080D01*
X63338Y15080D01*
X63316Y15082D01*
X63294Y15087D01*
X63274Y15095D01*
X63255Y15107D01*
X63238Y15122D01*
X63223Y15139D01*
X63211Y15158D01*
X63203Y15178D01*
X63198Y15200D01*
X63196Y15222D01*
X63196Y15578D01*
X63198Y15600D01*
X63203Y15622D01*
X63211Y15642D01*
X63223Y15661D01*
X63238Y15678D01*
X63255Y15693D01*
X63274Y15705D01*
X63294Y15713D01*
X63316Y15718D01*
X63338Y15720D01*
X63551Y15720D01*
X63856Y15720D02*
X63856Y15080D01*
X63856Y15720D02*
X64034Y15720D01*
X64059Y15718D01*
X64084Y15713D01*
X64108Y15704D01*
X64130Y15692D01*
X64151Y15677D01*
X64169Y15659D01*
X64184Y15638D01*
X64196Y15616D01*
X64205Y15592D01*
X64210Y15567D01*
X64212Y15542D01*
X64210Y15517D01*
X64205Y15492D01*
X64196Y15468D01*
X64184Y15446D01*
X64169Y15425D01*
X64151Y15407D01*
X64130Y15392D01*
X64108Y15380D01*
X64084Y15371D01*
X64059Y15366D01*
X64034Y15364D01*
X63856Y15364D01*
X64069Y15364D02*
X64211Y15080D01*
X64489Y15080D02*
X64774Y15080D01*
X64489Y15080D02*
X64489Y15720D01*
X64774Y15720D01*
X64703Y15436D02*
X64489Y15436D01*
X65023Y15080D02*
X65307Y15080D01*
X65023Y15080D02*
X65023Y15720D01*
X65307Y15720D01*
X65236Y15436D02*
X65023Y15436D01*
X65555Y15720D02*
X65555Y15080D01*
X65910Y15080D02*
X65555Y15720D01*
X65910Y15720D02*
X65910Y15080D01*
X66164Y15080D02*
X66200Y15080D01*
X66164Y15080D02*
X66164Y15116D01*
X66200Y15116D01*
X66200Y15080D01*
X66146Y14938D01*
X66958Y15080D02*
X66980Y15082D01*
X67002Y15087D01*
X67022Y15095D01*
X67041Y15107D01*
X67058Y15122D01*
X67073Y15139D01*
X67085Y15158D01*
X67093Y15178D01*
X67098Y15200D01*
X67100Y15222D01*
X66958Y15080D02*
X66924Y15082D01*
X66891Y15088D01*
X66858Y15097D01*
X66827Y15110D01*
X66798Y15126D01*
X66770Y15146D01*
X66745Y15169D01*
X66763Y15578D02*
X66765Y15600D01*
X66770Y15622D01*
X66778Y15642D01*
X66790Y15661D01*
X66805Y15678D01*
X66822Y15693D01*
X66841Y15705D01*
X66861Y15713D01*
X66883Y15718D01*
X66905Y15720D01*
X66934Y15718D01*
X66962Y15714D01*
X66989Y15706D01*
X67016Y15696D01*
X67041Y15683D01*
X67065Y15667D01*
X66763Y15578D02*
X66765Y15557D01*
X66769Y15536D01*
X66777Y15516D01*
X66788Y15497D01*
X66801Y15481D01*
X66816Y15466D01*
X66834Y15454D01*
X67029Y15346D02*
X67047Y15334D01*
X67062Y15319D01*
X67075Y15303D01*
X67086Y15284D01*
X67094Y15264D01*
X67098Y15243D01*
X67100Y15222D01*
X67029Y15347D02*
X66833Y15453D01*
X67333Y15507D02*
X67333Y15080D01*
X67315Y15684D02*
X67315Y15720D01*
X67350Y15720D01*
X67350Y15684D01*
X67315Y15684D01*
X67589Y15720D02*
X67589Y15187D01*
X67591Y15168D01*
X67595Y15150D01*
X67603Y15134D01*
X67614Y15118D01*
X67627Y15105D01*
X67643Y15094D01*
X67659Y15086D01*
X67677Y15082D01*
X67696Y15080D01*
X67936Y15080D02*
X67936Y15720D01*
X68220Y15507D02*
X67936Y15293D01*
X68060Y15382D02*
X68220Y15080D01*
X68495Y15329D02*
X68673Y15258D01*
X68495Y15329D02*
X68479Y15337D01*
X68464Y15348D01*
X68453Y15362D01*
X68444Y15378D01*
X68439Y15396D01*
X68437Y15414D01*
X68439Y15432D01*
X68444Y15449D01*
X68453Y15465D01*
X68464Y15479D01*
X68479Y15491D01*
X68495Y15499D01*
X68512Y15504D01*
X68530Y15506D01*
X68531Y15507D02*
X68564Y15505D01*
X68596Y15501D01*
X68629Y15493D01*
X68660Y15484D01*
X68691Y15471D01*
X68673Y15257D02*
X68689Y15249D01*
X68704Y15238D01*
X68715Y15224D01*
X68724Y15208D01*
X68729Y15190D01*
X68731Y15172D01*
X68729Y15154D01*
X68724Y15137D01*
X68715Y15121D01*
X68704Y15107D01*
X68689Y15095D01*
X68673Y15087D01*
X68656Y15082D01*
X68638Y15080D01*
X68637Y15080D02*
X68598Y15082D01*
X68558Y15086D01*
X68519Y15094D01*
X68480Y15103D01*
X68442Y15116D01*
X69082Y15080D02*
X69225Y15080D01*
X69082Y15080D02*
X69063Y15082D01*
X69045Y15086D01*
X69029Y15094D01*
X69013Y15105D01*
X69000Y15118D01*
X68989Y15134D01*
X68981Y15150D01*
X68977Y15168D01*
X68975Y15187D01*
X68976Y15187D02*
X68976Y15400D01*
X68975Y15400D02*
X68977Y15419D01*
X68981Y15437D01*
X68989Y15454D01*
X69000Y15469D01*
X69013Y15482D01*
X69029Y15493D01*
X69045Y15501D01*
X69063Y15505D01*
X69082Y15507D01*
X69225Y15507D01*
X69471Y15507D02*
X69471Y15080D01*
X69471Y15507D02*
X69684Y15507D01*
X69684Y15436D01*
X69984Y15080D02*
X70162Y15080D01*
X69984Y15080D02*
X69965Y15082D01*
X69947Y15086D01*
X69931Y15094D01*
X69915Y15105D01*
X69902Y15118D01*
X69891Y15134D01*
X69883Y15150D01*
X69879Y15168D01*
X69877Y15187D01*
X69878Y15187D02*
X69878Y15364D01*
X69880Y15386D01*
X69885Y15408D01*
X69893Y15428D01*
X69905Y15447D01*
X69920Y15464D01*
X69937Y15479D01*
X69956Y15491D01*
X69976Y15499D01*
X69998Y15504D01*
X70020Y15506D01*
X70042Y15504D01*
X70064Y15499D01*
X70084Y15491D01*
X70103Y15479D01*
X70120Y15464D01*
X70135Y15447D01*
X70147Y15428D01*
X70155Y15408D01*
X70160Y15386D01*
X70162Y15364D01*
X70162Y15293D01*
X69878Y15293D01*
X70518Y15080D02*
X70695Y15080D01*
X70518Y15080D02*
X70499Y15082D01*
X70481Y15086D01*
X70465Y15094D01*
X70449Y15105D01*
X70436Y15118D01*
X70425Y15134D01*
X70417Y15150D01*
X70413Y15168D01*
X70411Y15187D01*
X70411Y15364D01*
X70413Y15386D01*
X70418Y15408D01*
X70426Y15428D01*
X70438Y15447D01*
X70453Y15464D01*
X70470Y15479D01*
X70489Y15491D01*
X70509Y15499D01*
X70531Y15504D01*
X70553Y15506D01*
X70575Y15504D01*
X70597Y15499D01*
X70617Y15491D01*
X70636Y15479D01*
X70653Y15464D01*
X70668Y15447D01*
X70680Y15428D01*
X70688Y15408D01*
X70693Y15386D01*
X70695Y15364D01*
X70695Y15293D01*
X70411Y15293D01*
X70965Y15080D02*
X70965Y15507D01*
X71143Y15507D01*
X71162Y15505D01*
X71180Y15501D01*
X71196Y15493D01*
X71212Y15482D01*
X71225Y15469D01*
X71236Y15454D01*
X71244Y15437D01*
X71248Y15419D01*
X71250Y15400D01*
X71249Y15400D02*
X71249Y15080D01*
X71520Y15133D02*
X71520Y15169D01*
X71556Y15169D01*
X71556Y15133D01*
X71520Y15133D01*
X71520Y15418D02*
X71520Y15453D01*
X71556Y15453D01*
X71556Y15418D01*
X71520Y15418D01*
X72115Y15720D02*
X72257Y15080D01*
X72399Y15507D01*
X72542Y15080D01*
X72684Y15720D01*
X72940Y15720D02*
X72940Y15080D01*
X72940Y15436D02*
X73295Y15436D01*
X73295Y15720D02*
X73295Y15080D01*
X73630Y15080D02*
X73630Y15720D01*
X73559Y15080D02*
X73701Y15080D01*
X73701Y15720D02*
X73559Y15720D01*
X74082Y15720D02*
X74082Y15080D01*
X73904Y15720D02*
X74259Y15720D01*
X74500Y15080D02*
X74784Y15080D01*
X74500Y15080D02*
X74500Y15720D01*
X74784Y15720D01*
X74713Y15436D02*
X74500Y15436D01*
D12*
X150000Y77000D02*
X158768Y77000D01*
X158768Y9500D02*
X150000Y9500D01*
X158000Y9526D02*
X158000Y76974D01*
X157874Y75976D01*
X158126Y75976D01*
X158000Y76974D01*
X157949Y75976D01*
X158051Y75976D02*
X158000Y76974D01*
X157898Y75976D01*
X158102Y75976D02*
X158000Y76974D01*
X157874Y10524D02*
X158000Y9526D01*
X157874Y10524D02*
X158126Y10524D01*
X158000Y9526D01*
X157949Y10524D01*
X158051Y10524D02*
X158000Y9526D01*
X157898Y10524D01*
X158102Y10524D02*
X158000Y9526D01*
D13*
X156747Y38069D02*
X156747Y38529D01*
X156749Y38561D01*
X156754Y38593D01*
X156762Y38624D01*
X156774Y38654D01*
X156788Y38683D01*
X156806Y38709D01*
X156826Y38734D01*
X156849Y38757D01*
X156874Y38777D01*
X156901Y38795D01*
X156929Y38809D01*
X156959Y38821D01*
X156990Y38829D01*
X157022Y38834D01*
X157054Y38836D01*
X157054Y38835D02*
X157130Y38835D01*
X157168Y38833D01*
X157205Y38828D01*
X157241Y38819D01*
X157277Y38806D01*
X157311Y38790D01*
X157343Y38770D01*
X157373Y38748D01*
X157401Y38723D01*
X157426Y38695D01*
X157448Y38665D01*
X157468Y38633D01*
X157484Y38599D01*
X157497Y38563D01*
X157506Y38527D01*
X157511Y38490D01*
X157513Y38452D01*
X157511Y38414D01*
X157506Y38377D01*
X157497Y38341D01*
X157484Y38305D01*
X157468Y38271D01*
X157448Y38239D01*
X157426Y38209D01*
X157401Y38181D01*
X157373Y38156D01*
X157343Y38134D01*
X157311Y38114D01*
X157277Y38098D01*
X157241Y38085D01*
X157205Y38076D01*
X157168Y38071D01*
X157130Y38069D01*
X156747Y38069D01*
X156699Y38071D01*
X156651Y38077D01*
X156604Y38086D01*
X156558Y38099D01*
X156512Y38116D01*
X156469Y38136D01*
X156427Y38159D01*
X156387Y38186D01*
X156349Y38216D01*
X156314Y38249D01*
X156281Y38284D01*
X156251Y38322D01*
X156224Y38362D01*
X156201Y38404D01*
X156181Y38447D01*
X156164Y38493D01*
X156151Y38539D01*
X156142Y38586D01*
X156136Y38634D01*
X156134Y38682D01*
X156134Y39194D02*
X156287Y39194D01*
X156134Y39194D02*
X156134Y39960D01*
X157514Y39577D01*
X157514Y40319D02*
X157514Y40779D01*
X157512Y40811D01*
X157507Y40843D01*
X157499Y40874D01*
X157487Y40904D01*
X157473Y40933D01*
X157455Y40959D01*
X157435Y40984D01*
X157412Y41007D01*
X157387Y41027D01*
X157361Y41045D01*
X157332Y41059D01*
X157302Y41071D01*
X157271Y41079D01*
X157239Y41084D01*
X157207Y41086D01*
X157207Y41085D02*
X157054Y41085D01*
X157054Y41086D02*
X157022Y41084D01*
X156990Y41079D01*
X156959Y41071D01*
X156929Y41059D01*
X156901Y41045D01*
X156874Y41027D01*
X156849Y41007D01*
X156826Y40984D01*
X156806Y40959D01*
X156788Y40933D01*
X156774Y40904D01*
X156762Y40874D01*
X156754Y40843D01*
X156749Y40811D01*
X156747Y40779D01*
X156747Y40319D01*
X156134Y40319D01*
X156134Y41085D01*
X156326Y41559D02*
X156384Y41532D01*
X156445Y41509D01*
X156506Y41489D01*
X156568Y41473D01*
X156632Y41460D01*
X156695Y41451D01*
X156760Y41446D01*
X156824Y41444D01*
X156325Y41558D02*
X156295Y41570D01*
X156267Y41586D01*
X156241Y41604D01*
X156217Y41625D01*
X156196Y41649D01*
X156177Y41675D01*
X156161Y41703D01*
X156149Y41733D01*
X156140Y41763D01*
X156135Y41795D01*
X156133Y41827D01*
X156135Y41859D01*
X156140Y41891D01*
X156149Y41921D01*
X156161Y41951D01*
X156177Y41979D01*
X156196Y42005D01*
X156217Y42029D01*
X156241Y42050D01*
X156267Y42068D01*
X156295Y42084D01*
X156325Y42096D01*
X156326Y42095D02*
X156384Y42122D01*
X156445Y42145D01*
X156506Y42165D01*
X156568Y42181D01*
X156632Y42194D01*
X156695Y42203D01*
X156760Y42208D01*
X156824Y42210D01*
X156824Y41444D02*
X156888Y41446D01*
X156953Y41451D01*
X157016Y41460D01*
X157080Y41473D01*
X157142Y41489D01*
X157203Y41509D01*
X157264Y41532D01*
X157322Y41559D01*
X157322Y41558D02*
X157352Y41570D01*
X157380Y41586D01*
X157406Y41604D01*
X157430Y41625D01*
X157451Y41649D01*
X157470Y41675D01*
X157486Y41703D01*
X157498Y41733D01*
X157507Y41763D01*
X157512Y41795D01*
X157514Y41827D01*
X157322Y42095D02*
X157264Y42122D01*
X157203Y42145D01*
X157142Y42165D01*
X157080Y42181D01*
X157016Y42194D01*
X156953Y42203D01*
X156888Y42208D01*
X156824Y42210D01*
X157322Y42096D02*
X157352Y42084D01*
X157380Y42068D01*
X157406Y42050D01*
X157430Y42029D01*
X157451Y42005D01*
X157470Y41979D01*
X157486Y41951D01*
X157498Y41921D01*
X157507Y41891D01*
X157512Y41859D01*
X157514Y41827D01*
X157207Y41520D02*
X156440Y42134D01*
X157437Y42576D02*
X157514Y42576D01*
X157437Y42576D02*
X157437Y42653D01*
X157514Y42653D01*
X157514Y42576D01*
X156824Y43019D02*
X156760Y43021D01*
X156695Y43026D01*
X156632Y43035D01*
X156568Y43048D01*
X156506Y43064D01*
X156445Y43084D01*
X156384Y43107D01*
X156326Y43134D01*
X156325Y43133D02*
X156295Y43145D01*
X156267Y43161D01*
X156241Y43179D01*
X156217Y43200D01*
X156196Y43224D01*
X156177Y43250D01*
X156161Y43278D01*
X156149Y43308D01*
X156140Y43338D01*
X156135Y43370D01*
X156133Y43402D01*
X156135Y43434D01*
X156140Y43466D01*
X156149Y43496D01*
X156161Y43526D01*
X156177Y43554D01*
X156196Y43580D01*
X156217Y43604D01*
X156241Y43625D01*
X156267Y43643D01*
X156295Y43659D01*
X156325Y43671D01*
X156326Y43670D02*
X156384Y43697D01*
X156445Y43720D01*
X156506Y43740D01*
X156568Y43756D01*
X156632Y43769D01*
X156695Y43778D01*
X156760Y43783D01*
X156824Y43785D01*
X156824Y43019D02*
X156888Y43021D01*
X156953Y43026D01*
X157016Y43035D01*
X157080Y43048D01*
X157142Y43064D01*
X157203Y43084D01*
X157264Y43107D01*
X157322Y43134D01*
X157322Y43133D02*
X157352Y43145D01*
X157380Y43161D01*
X157406Y43179D01*
X157430Y43200D01*
X157451Y43224D01*
X157470Y43250D01*
X157486Y43278D01*
X157498Y43308D01*
X157507Y43338D01*
X157512Y43370D01*
X157514Y43402D01*
X157322Y43670D02*
X157264Y43697D01*
X157203Y43720D01*
X157142Y43740D01*
X157080Y43756D01*
X157016Y43769D01*
X156953Y43778D01*
X156888Y43783D01*
X156824Y43785D01*
X157322Y43671D02*
X157352Y43659D01*
X157380Y43643D01*
X157406Y43625D01*
X157430Y43604D01*
X157451Y43580D01*
X157470Y43554D01*
X157486Y43526D01*
X157498Y43496D01*
X157507Y43466D01*
X157512Y43434D01*
X157514Y43402D01*
X157207Y43095D02*
X156440Y43709D01*
X156326Y44259D02*
X156384Y44232D01*
X156445Y44209D01*
X156506Y44189D01*
X156568Y44173D01*
X156632Y44160D01*
X156695Y44151D01*
X156760Y44146D01*
X156824Y44144D01*
X156325Y44258D02*
X156295Y44270D01*
X156267Y44286D01*
X156241Y44304D01*
X156217Y44325D01*
X156196Y44349D01*
X156177Y44375D01*
X156161Y44403D01*
X156149Y44433D01*
X156140Y44463D01*
X156135Y44495D01*
X156133Y44527D01*
X156135Y44559D01*
X156140Y44591D01*
X156149Y44621D01*
X156161Y44651D01*
X156177Y44679D01*
X156196Y44705D01*
X156217Y44729D01*
X156241Y44750D01*
X156267Y44768D01*
X156295Y44784D01*
X156325Y44796D01*
X156326Y44795D02*
X156384Y44822D01*
X156445Y44845D01*
X156506Y44865D01*
X156568Y44881D01*
X156632Y44894D01*
X156695Y44903D01*
X156760Y44908D01*
X156824Y44910D01*
X156824Y44144D02*
X156888Y44146D01*
X156953Y44151D01*
X157016Y44160D01*
X157080Y44173D01*
X157142Y44189D01*
X157203Y44209D01*
X157264Y44232D01*
X157322Y44259D01*
X157322Y44258D02*
X157352Y44270D01*
X157380Y44286D01*
X157406Y44304D01*
X157430Y44325D01*
X157451Y44349D01*
X157470Y44375D01*
X157486Y44403D01*
X157498Y44433D01*
X157507Y44463D01*
X157512Y44495D01*
X157514Y44527D01*
X157322Y44795D02*
X157264Y44822D01*
X157203Y44845D01*
X157142Y44865D01*
X157080Y44881D01*
X157016Y44894D01*
X156953Y44903D01*
X156888Y44908D01*
X156824Y44910D01*
X157322Y44796D02*
X157352Y44784D01*
X157380Y44768D01*
X157406Y44750D01*
X157430Y44729D01*
X157451Y44705D01*
X157470Y44679D01*
X157486Y44651D01*
X157498Y44621D01*
X157507Y44591D01*
X157512Y44559D01*
X157514Y44527D01*
X157207Y44220D02*
X156440Y44834D01*
X156594Y45305D02*
X157514Y45305D01*
X156594Y45305D02*
X156594Y45995D01*
X156596Y46023D01*
X156601Y46050D01*
X156609Y46077D01*
X156620Y46102D01*
X156635Y46126D01*
X156652Y46148D01*
X156671Y46167D01*
X156693Y46184D01*
X156717Y46199D01*
X156742Y46210D01*
X156769Y46218D01*
X156796Y46223D01*
X156824Y46225D01*
X157514Y46225D01*
X157514Y45765D02*
X156594Y45765D01*
X156594Y46665D02*
X157514Y46665D01*
X156210Y46626D02*
X156134Y46626D01*
X156134Y46703D01*
X156210Y46703D01*
X156210Y46626D01*
X156134Y47111D02*
X157284Y47111D01*
X157312Y47113D01*
X157339Y47118D01*
X157366Y47126D01*
X157391Y47137D01*
X157415Y47152D01*
X157437Y47169D01*
X157456Y47188D01*
X157473Y47210D01*
X157488Y47234D01*
X157499Y47259D01*
X157507Y47286D01*
X157512Y47313D01*
X157514Y47341D01*
D12*
X0Y0D02*
X0Y-8518D01*
X28000Y-8518D02*
X28000Y0D01*
X27974Y-7750D02*
X26Y-7750D01*
X1024Y-7624D01*
X1024Y-7876D01*
X26Y-7750D01*
X1024Y-7699D01*
X1024Y-7801D02*
X26Y-7750D01*
X1024Y-7648D01*
X1024Y-7852D02*
X26Y-7750D01*
X26976Y-7624D02*
X27974Y-7750D01*
X26976Y-7624D02*
X26976Y-7876D01*
X27974Y-7750D01*
X26976Y-7699D01*
X26976Y-7801D02*
X27974Y-7750D01*
X26976Y-7648D01*
X26976Y-7852D02*
X27974Y-7750D01*
D13*
X9585Y-6229D02*
X9583Y-6193D01*
X9577Y-6157D01*
X9568Y-6122D01*
X9555Y-6089D01*
X9539Y-6057D01*
X9519Y-6026D01*
X9496Y-5998D01*
X9471Y-5973D01*
X9443Y-5950D01*
X9413Y-5930D01*
X9380Y-5914D01*
X9347Y-5901D01*
X9312Y-5892D01*
X9276Y-5886D01*
X9240Y-5884D01*
X9200Y-5886D01*
X9161Y-5891D01*
X9122Y-5900D01*
X9084Y-5912D01*
X9048Y-5928D01*
X9013Y-5947D01*
X8979Y-5969D01*
X8948Y-5994D01*
X8920Y-6021D01*
X8893Y-6051D01*
X8870Y-6083D01*
X8850Y-6117D01*
X8832Y-6153D01*
X8819Y-6191D01*
X9471Y-6498D02*
X9497Y-6470D01*
X9520Y-6441D01*
X9539Y-6409D01*
X9556Y-6375D01*
X9569Y-6340D01*
X9578Y-6304D01*
X9584Y-6266D01*
X9586Y-6229D01*
X9470Y-6497D02*
X8819Y-7264D01*
X9585Y-7264D01*
X9944Y-6880D02*
X9946Y-6842D01*
X9951Y-6805D01*
X9960Y-6769D01*
X9973Y-6733D01*
X9989Y-6699D01*
X10009Y-6667D01*
X10031Y-6637D01*
X10056Y-6609D01*
X10084Y-6584D01*
X10114Y-6562D01*
X10146Y-6542D01*
X10180Y-6526D01*
X10216Y-6513D01*
X10252Y-6504D01*
X10289Y-6499D01*
X10327Y-6497D01*
X10365Y-6499D01*
X10402Y-6504D01*
X10438Y-6513D01*
X10474Y-6526D01*
X10508Y-6542D01*
X10540Y-6562D01*
X10570Y-6584D01*
X10598Y-6609D01*
X10623Y-6637D01*
X10645Y-6667D01*
X10665Y-6699D01*
X10681Y-6733D01*
X10694Y-6769D01*
X10703Y-6805D01*
X10708Y-6842D01*
X10710Y-6880D01*
X10708Y-6918D01*
X10703Y-6955D01*
X10694Y-6991D01*
X10681Y-7027D01*
X10665Y-7061D01*
X10645Y-7093D01*
X10623Y-7123D01*
X10598Y-7151D01*
X10570Y-7176D01*
X10540Y-7198D01*
X10508Y-7218D01*
X10474Y-7234D01*
X10438Y-7247D01*
X10402Y-7256D01*
X10365Y-7261D01*
X10327Y-7263D01*
X10289Y-7261D01*
X10252Y-7256D01*
X10216Y-7247D01*
X10180Y-7234D01*
X10146Y-7218D01*
X10114Y-7198D01*
X10084Y-7176D01*
X10056Y-7151D01*
X10031Y-7123D01*
X10009Y-7093D01*
X9989Y-7061D01*
X9973Y-7027D01*
X9960Y-6991D01*
X9951Y-6955D01*
X9946Y-6918D01*
X9944Y-6880D01*
X10020Y-6190D02*
X10022Y-6157D01*
X10027Y-6124D01*
X10036Y-6092D01*
X10048Y-6061D01*
X10064Y-6032D01*
X10083Y-6004D01*
X10104Y-5979D01*
X10128Y-5956D01*
X10155Y-5936D01*
X10183Y-5919D01*
X10213Y-5905D01*
X10245Y-5894D01*
X10277Y-5887D01*
X10310Y-5883D01*
X10344Y-5883D01*
X10377Y-5887D01*
X10409Y-5894D01*
X10441Y-5905D01*
X10471Y-5919D01*
X10499Y-5936D01*
X10526Y-5956D01*
X10550Y-5979D01*
X10571Y-6004D01*
X10590Y-6032D01*
X10606Y-6061D01*
X10618Y-6092D01*
X10627Y-6124D01*
X10632Y-6157D01*
X10634Y-6190D01*
X10632Y-6223D01*
X10627Y-6256D01*
X10618Y-6288D01*
X10606Y-6319D01*
X10590Y-6348D01*
X10571Y-6376D01*
X10550Y-6401D01*
X10526Y-6424D01*
X10499Y-6444D01*
X10471Y-6461D01*
X10441Y-6475D01*
X10409Y-6486D01*
X10377Y-6493D01*
X10344Y-6497D01*
X10310Y-6497D01*
X10277Y-6493D01*
X10245Y-6486D01*
X10213Y-6475D01*
X10183Y-6461D01*
X10155Y-6444D01*
X10128Y-6424D01*
X10104Y-6401D01*
X10083Y-6376D01*
X10064Y-6348D01*
X10048Y-6319D01*
X10036Y-6288D01*
X10027Y-6256D01*
X10022Y-6223D01*
X10020Y-6190D01*
X11069Y-6574D02*
X11071Y-6510D01*
X11076Y-6445D01*
X11085Y-6382D01*
X11098Y-6318D01*
X11114Y-6256D01*
X11134Y-6195D01*
X11157Y-6134D01*
X11184Y-6076D01*
X11183Y-6075D02*
X11195Y-6045D01*
X11211Y-6017D01*
X11229Y-5991D01*
X11250Y-5967D01*
X11274Y-5946D01*
X11300Y-5927D01*
X11328Y-5911D01*
X11358Y-5899D01*
X11388Y-5890D01*
X11420Y-5885D01*
X11452Y-5883D01*
X11484Y-5885D01*
X11516Y-5890D01*
X11546Y-5899D01*
X11576Y-5911D01*
X11604Y-5927D01*
X11630Y-5946D01*
X11654Y-5967D01*
X11675Y-5991D01*
X11693Y-6017D01*
X11709Y-6045D01*
X11721Y-6075D01*
X11720Y-6076D02*
X11747Y-6134D01*
X11770Y-6195D01*
X11790Y-6256D01*
X11806Y-6318D01*
X11819Y-6382D01*
X11828Y-6445D01*
X11833Y-6510D01*
X11835Y-6574D01*
X11069Y-6574D02*
X11071Y-6638D01*
X11076Y-6703D01*
X11085Y-6766D01*
X11098Y-6830D01*
X11114Y-6892D01*
X11134Y-6953D01*
X11157Y-7014D01*
X11184Y-7072D01*
X11183Y-7072D02*
X11195Y-7102D01*
X11211Y-7130D01*
X11229Y-7156D01*
X11250Y-7180D01*
X11274Y-7201D01*
X11300Y-7220D01*
X11328Y-7236D01*
X11358Y-7248D01*
X11388Y-7257D01*
X11420Y-7262D01*
X11452Y-7264D01*
X11720Y-7072D02*
X11747Y-7014D01*
X11770Y-6953D01*
X11790Y-6892D01*
X11806Y-6830D01*
X11819Y-6766D01*
X11828Y-6703D01*
X11833Y-6638D01*
X11835Y-6574D01*
X11721Y-7072D02*
X11709Y-7102D01*
X11693Y-7130D01*
X11675Y-7156D01*
X11654Y-7180D01*
X11630Y-7201D01*
X11604Y-7220D01*
X11576Y-7236D01*
X11546Y-7248D01*
X11516Y-7257D01*
X11484Y-7262D01*
X11452Y-7264D01*
X11145Y-6957D02*
X11759Y-6190D01*
X12309Y-6076D02*
X12282Y-6134D01*
X12259Y-6195D01*
X12239Y-6256D01*
X12223Y-6318D01*
X12210Y-6382D01*
X12201Y-6445D01*
X12196Y-6510D01*
X12194Y-6574D01*
X12308Y-6075D02*
X12320Y-6045D01*
X12336Y-6017D01*
X12354Y-5991D01*
X12375Y-5967D01*
X12399Y-5946D01*
X12425Y-5927D01*
X12453Y-5911D01*
X12483Y-5899D01*
X12513Y-5890D01*
X12545Y-5885D01*
X12577Y-5883D01*
X12609Y-5885D01*
X12641Y-5890D01*
X12671Y-5899D01*
X12701Y-5911D01*
X12729Y-5927D01*
X12755Y-5946D01*
X12779Y-5967D01*
X12800Y-5991D01*
X12818Y-6017D01*
X12834Y-6045D01*
X12846Y-6075D01*
X12845Y-6076D02*
X12872Y-6134D01*
X12895Y-6195D01*
X12915Y-6256D01*
X12931Y-6318D01*
X12944Y-6382D01*
X12953Y-6445D01*
X12958Y-6510D01*
X12960Y-6574D01*
X12194Y-6574D02*
X12196Y-6638D01*
X12201Y-6703D01*
X12210Y-6766D01*
X12223Y-6830D01*
X12239Y-6892D01*
X12259Y-6953D01*
X12282Y-7014D01*
X12309Y-7072D01*
X12308Y-7072D02*
X12320Y-7102D01*
X12336Y-7130D01*
X12354Y-7156D01*
X12375Y-7180D01*
X12399Y-7201D01*
X12425Y-7220D01*
X12453Y-7236D01*
X12483Y-7248D01*
X12513Y-7257D01*
X12545Y-7262D01*
X12577Y-7264D01*
X12845Y-7072D02*
X12872Y-7014D01*
X12895Y-6953D01*
X12915Y-6892D01*
X12931Y-6830D01*
X12944Y-6766D01*
X12953Y-6703D01*
X12958Y-6638D01*
X12960Y-6574D01*
X12846Y-7072D02*
X12834Y-7102D01*
X12818Y-7130D01*
X12800Y-7156D01*
X12779Y-7180D01*
X12755Y-7201D01*
X12729Y-7220D01*
X12701Y-7236D01*
X12671Y-7248D01*
X12641Y-7257D01*
X12609Y-7262D01*
X12577Y-7264D01*
X12270Y-6957D02*
X12884Y-6190D01*
X13326Y-7187D02*
X13326Y-7264D01*
X13326Y-7187D02*
X13403Y-7187D01*
X13403Y-7264D01*
X13326Y-7264D01*
X13769Y-6574D02*
X13771Y-6510D01*
X13776Y-6445D01*
X13785Y-6382D01*
X13798Y-6318D01*
X13814Y-6256D01*
X13834Y-6195D01*
X13857Y-6134D01*
X13884Y-6076D01*
X13883Y-6075D02*
X13895Y-6045D01*
X13911Y-6017D01*
X13929Y-5991D01*
X13950Y-5967D01*
X13974Y-5946D01*
X14000Y-5927D01*
X14028Y-5911D01*
X14058Y-5899D01*
X14088Y-5890D01*
X14120Y-5885D01*
X14152Y-5883D01*
X14184Y-5885D01*
X14216Y-5890D01*
X14246Y-5899D01*
X14276Y-5911D01*
X14304Y-5927D01*
X14330Y-5946D01*
X14354Y-5967D01*
X14375Y-5991D01*
X14393Y-6017D01*
X14409Y-6045D01*
X14421Y-6075D01*
X14420Y-6076D02*
X14447Y-6134D01*
X14470Y-6195D01*
X14490Y-6256D01*
X14506Y-6318D01*
X14519Y-6382D01*
X14528Y-6445D01*
X14533Y-6510D01*
X14535Y-6574D01*
X13769Y-6574D02*
X13771Y-6638D01*
X13776Y-6703D01*
X13785Y-6766D01*
X13798Y-6830D01*
X13814Y-6892D01*
X13834Y-6953D01*
X13857Y-7014D01*
X13884Y-7072D01*
X13883Y-7072D02*
X13895Y-7102D01*
X13911Y-7130D01*
X13929Y-7156D01*
X13950Y-7180D01*
X13974Y-7201D01*
X14000Y-7220D01*
X14028Y-7236D01*
X14058Y-7248D01*
X14088Y-7257D01*
X14120Y-7262D01*
X14152Y-7264D01*
X14420Y-7072D02*
X14447Y-7014D01*
X14470Y-6953D01*
X14490Y-6892D01*
X14506Y-6830D01*
X14519Y-6766D01*
X14528Y-6703D01*
X14533Y-6638D01*
X14535Y-6574D01*
X14421Y-7072D02*
X14409Y-7102D01*
X14393Y-7130D01*
X14375Y-7156D01*
X14354Y-7180D01*
X14330Y-7201D01*
X14304Y-7220D01*
X14276Y-7236D01*
X14246Y-7248D01*
X14216Y-7257D01*
X14184Y-7262D01*
X14152Y-7264D01*
X13845Y-6957D02*
X14459Y-6190D01*
X15009Y-6076D02*
X14982Y-6134D01*
X14959Y-6195D01*
X14939Y-6256D01*
X14923Y-6318D01*
X14910Y-6382D01*
X14901Y-6445D01*
X14896Y-6510D01*
X14894Y-6574D01*
X15008Y-6075D02*
X15020Y-6045D01*
X15036Y-6017D01*
X15054Y-5991D01*
X15075Y-5967D01*
X15099Y-5946D01*
X15125Y-5927D01*
X15153Y-5911D01*
X15183Y-5899D01*
X15213Y-5890D01*
X15245Y-5885D01*
X15277Y-5883D01*
X15309Y-5885D01*
X15341Y-5890D01*
X15371Y-5899D01*
X15401Y-5911D01*
X15429Y-5927D01*
X15455Y-5946D01*
X15479Y-5967D01*
X15500Y-5991D01*
X15518Y-6017D01*
X15534Y-6045D01*
X15546Y-6075D01*
X15545Y-6076D02*
X15572Y-6134D01*
X15595Y-6195D01*
X15615Y-6256D01*
X15631Y-6318D01*
X15644Y-6382D01*
X15653Y-6445D01*
X15658Y-6510D01*
X15660Y-6574D01*
X14894Y-6574D02*
X14896Y-6638D01*
X14901Y-6703D01*
X14910Y-6766D01*
X14923Y-6830D01*
X14939Y-6892D01*
X14959Y-6953D01*
X14982Y-7014D01*
X15009Y-7072D01*
X15008Y-7072D02*
X15020Y-7102D01*
X15036Y-7130D01*
X15054Y-7156D01*
X15075Y-7180D01*
X15099Y-7201D01*
X15125Y-7220D01*
X15153Y-7236D01*
X15183Y-7248D01*
X15213Y-7257D01*
X15245Y-7262D01*
X15277Y-7264D01*
X15545Y-7072D02*
X15572Y-7014D01*
X15595Y-6953D01*
X15615Y-6892D01*
X15631Y-6830D01*
X15644Y-6766D01*
X15653Y-6703D01*
X15658Y-6638D01*
X15660Y-6574D01*
X15546Y-7072D02*
X15534Y-7102D01*
X15518Y-7130D01*
X15500Y-7156D01*
X15479Y-7180D01*
X15455Y-7201D01*
X15429Y-7220D01*
X15401Y-7236D01*
X15371Y-7248D01*
X15341Y-7257D01*
X15309Y-7262D01*
X15277Y-7264D01*
X14970Y-6957D02*
X15584Y-6190D01*
X16055Y-6344D02*
X16055Y-7264D01*
X16055Y-6344D02*
X16745Y-6344D01*
X16773Y-6346D01*
X16800Y-6351D01*
X16827Y-6359D01*
X16852Y-6370D01*
X16876Y-6385D01*
X16898Y-6402D01*
X16917Y-6421D01*
X16934Y-6443D01*
X16949Y-6467D01*
X16960Y-6492D01*
X16968Y-6519D01*
X16973Y-6546D01*
X16975Y-6574D01*
X16975Y-7264D01*
X16515Y-7264D02*
X16515Y-6344D01*
X17415Y-6344D02*
X17415Y-7264D01*
X17376Y-5960D02*
X17376Y-5884D01*
X17453Y-5884D01*
X17453Y-5960D01*
X17376Y-5960D01*
X17861Y-5884D02*
X17861Y-7034D01*
X17863Y-7062D01*
X17868Y-7089D01*
X17876Y-7116D01*
X17887Y-7141D01*
X17902Y-7165D01*
X17919Y-7187D01*
X17938Y-7206D01*
X17960Y-7223D01*
X17984Y-7238D01*
X18009Y-7249D01*
X18036Y-7257D01*
X18063Y-7262D01*
X18091Y-7264D01*
D12*
X108000Y982D02*
X108000Y9500D01*
X150000Y9500D02*
X150000Y982D01*
X149974Y1750D02*
X108026Y1750D01*
X109024Y1876D01*
X109024Y1624D01*
X108026Y1750D01*
X109024Y1801D01*
X109024Y1699D02*
X108026Y1750D01*
X109024Y1852D01*
X109024Y1648D02*
X108026Y1750D01*
X148976Y1876D02*
X149974Y1750D01*
X148976Y1876D02*
X148976Y1624D01*
X149974Y1750D01*
X148976Y1801D01*
X148976Y1699D02*
X149974Y1750D01*
X148976Y1852D01*
X148976Y1648D02*
X149974Y1750D01*
D13*
X124125Y3616D02*
X123819Y2543D01*
X124585Y2543D01*
X124355Y2850D02*
X124355Y2236D01*
X125710Y3271D02*
X125708Y3307D01*
X125702Y3343D01*
X125693Y3378D01*
X125680Y3411D01*
X125664Y3444D01*
X125644Y3474D01*
X125621Y3502D01*
X125596Y3527D01*
X125568Y3550D01*
X125538Y3570D01*
X125505Y3586D01*
X125472Y3599D01*
X125437Y3608D01*
X125401Y3614D01*
X125365Y3616D01*
X125325Y3614D01*
X125286Y3609D01*
X125247Y3600D01*
X125209Y3588D01*
X125173Y3572D01*
X125138Y3553D01*
X125104Y3531D01*
X125073Y3506D01*
X125045Y3479D01*
X125018Y3449D01*
X124995Y3417D01*
X124975Y3383D01*
X124957Y3347D01*
X124944Y3309D01*
X125596Y3002D02*
X125622Y3030D01*
X125645Y3059D01*
X125664Y3091D01*
X125681Y3125D01*
X125694Y3160D01*
X125703Y3196D01*
X125709Y3234D01*
X125711Y3271D01*
X125595Y3003D02*
X124944Y2236D01*
X125710Y2236D01*
X126069Y2926D02*
X126071Y2990D01*
X126076Y3055D01*
X126085Y3118D01*
X126098Y3182D01*
X126114Y3244D01*
X126134Y3305D01*
X126157Y3366D01*
X126184Y3424D01*
X126183Y3425D02*
X126195Y3455D01*
X126211Y3483D01*
X126229Y3509D01*
X126250Y3533D01*
X126274Y3554D01*
X126300Y3573D01*
X126328Y3589D01*
X126358Y3601D01*
X126388Y3610D01*
X126420Y3615D01*
X126452Y3617D01*
X126484Y3615D01*
X126516Y3610D01*
X126546Y3601D01*
X126576Y3589D01*
X126604Y3573D01*
X126630Y3554D01*
X126654Y3533D01*
X126675Y3509D01*
X126693Y3483D01*
X126709Y3455D01*
X126721Y3425D01*
X126720Y3424D02*
X126747Y3366D01*
X126770Y3305D01*
X126790Y3244D01*
X126806Y3182D01*
X126819Y3118D01*
X126828Y3055D01*
X126833Y2990D01*
X126835Y2926D01*
X126069Y2926D02*
X126071Y2862D01*
X126076Y2797D01*
X126085Y2734D01*
X126098Y2670D01*
X126114Y2608D01*
X126134Y2547D01*
X126157Y2486D01*
X126184Y2428D01*
X126183Y2428D02*
X126195Y2398D01*
X126211Y2370D01*
X126229Y2344D01*
X126250Y2320D01*
X126274Y2299D01*
X126300Y2280D01*
X126328Y2264D01*
X126358Y2252D01*
X126388Y2243D01*
X126420Y2238D01*
X126452Y2236D01*
X126720Y2428D02*
X126747Y2486D01*
X126770Y2547D01*
X126790Y2608D01*
X126806Y2670D01*
X126819Y2734D01*
X126828Y2797D01*
X126833Y2862D01*
X126835Y2926D01*
X126721Y2428D02*
X126709Y2398D01*
X126693Y2370D01*
X126675Y2344D01*
X126654Y2320D01*
X126630Y2299D01*
X126604Y2280D01*
X126576Y2264D01*
X126546Y2252D01*
X126516Y2243D01*
X126484Y2238D01*
X126452Y2236D01*
X126145Y2543D02*
X126759Y3310D01*
X127309Y3424D02*
X127282Y3366D01*
X127259Y3305D01*
X127239Y3244D01*
X127223Y3182D01*
X127210Y3118D01*
X127201Y3055D01*
X127196Y2990D01*
X127194Y2926D01*
X127308Y3425D02*
X127320Y3455D01*
X127336Y3483D01*
X127354Y3509D01*
X127375Y3533D01*
X127399Y3554D01*
X127425Y3573D01*
X127453Y3589D01*
X127483Y3601D01*
X127513Y3610D01*
X127545Y3615D01*
X127577Y3617D01*
X127609Y3615D01*
X127641Y3610D01*
X127671Y3601D01*
X127701Y3589D01*
X127729Y3573D01*
X127755Y3554D01*
X127779Y3533D01*
X127800Y3509D01*
X127818Y3483D01*
X127834Y3455D01*
X127846Y3425D01*
X127845Y3424D02*
X127872Y3366D01*
X127895Y3305D01*
X127915Y3244D01*
X127931Y3182D01*
X127944Y3118D01*
X127953Y3055D01*
X127958Y2990D01*
X127960Y2926D01*
X127194Y2926D02*
X127196Y2862D01*
X127201Y2797D01*
X127210Y2734D01*
X127223Y2670D01*
X127239Y2608D01*
X127259Y2547D01*
X127282Y2486D01*
X127309Y2428D01*
X127308Y2428D02*
X127320Y2398D01*
X127336Y2370D01*
X127354Y2344D01*
X127375Y2320D01*
X127399Y2299D01*
X127425Y2280D01*
X127453Y2264D01*
X127483Y2252D01*
X127513Y2243D01*
X127545Y2238D01*
X127577Y2236D01*
X127845Y2428D02*
X127872Y2486D01*
X127895Y2547D01*
X127915Y2608D01*
X127931Y2670D01*
X127944Y2734D01*
X127953Y2797D01*
X127958Y2862D01*
X127960Y2926D01*
X127846Y2428D02*
X127834Y2398D01*
X127818Y2370D01*
X127800Y2344D01*
X127779Y2320D01*
X127755Y2299D01*
X127729Y2280D01*
X127701Y2264D01*
X127671Y2252D01*
X127641Y2243D01*
X127609Y2238D01*
X127577Y2236D01*
X127270Y2543D02*
X127884Y3310D01*
X128326Y2313D02*
X128326Y2236D01*
X128326Y2313D02*
X128403Y2313D01*
X128403Y2236D01*
X128326Y2236D01*
X128769Y2926D02*
X128771Y2990D01*
X128776Y3055D01*
X128785Y3118D01*
X128798Y3182D01*
X128814Y3244D01*
X128834Y3305D01*
X128857Y3366D01*
X128884Y3424D01*
X128883Y3425D02*
X128895Y3455D01*
X128911Y3483D01*
X128929Y3509D01*
X128950Y3533D01*
X128974Y3554D01*
X129000Y3573D01*
X129028Y3589D01*
X129058Y3601D01*
X129088Y3610D01*
X129120Y3615D01*
X129152Y3617D01*
X129184Y3615D01*
X129216Y3610D01*
X129246Y3601D01*
X129276Y3589D01*
X129304Y3573D01*
X129330Y3554D01*
X129354Y3533D01*
X129375Y3509D01*
X129393Y3483D01*
X129409Y3455D01*
X129421Y3425D01*
X129420Y3424D02*
X129447Y3366D01*
X129470Y3305D01*
X129490Y3244D01*
X129506Y3182D01*
X129519Y3118D01*
X129528Y3055D01*
X129533Y2990D01*
X129535Y2926D01*
X128769Y2926D02*
X128771Y2862D01*
X128776Y2797D01*
X128785Y2734D01*
X128798Y2670D01*
X128814Y2608D01*
X128834Y2547D01*
X128857Y2486D01*
X128884Y2428D01*
X128883Y2428D02*
X128895Y2398D01*
X128911Y2370D01*
X128929Y2344D01*
X128950Y2320D01*
X128974Y2299D01*
X129000Y2280D01*
X129028Y2264D01*
X129058Y2252D01*
X129088Y2243D01*
X129120Y2238D01*
X129152Y2236D01*
X129420Y2428D02*
X129447Y2486D01*
X129470Y2547D01*
X129490Y2608D01*
X129506Y2670D01*
X129519Y2734D01*
X129528Y2797D01*
X129533Y2862D01*
X129535Y2926D01*
X129421Y2428D02*
X129409Y2398D01*
X129393Y2370D01*
X129375Y2344D01*
X129354Y2320D01*
X129330Y2299D01*
X129304Y2280D01*
X129276Y2264D01*
X129246Y2252D01*
X129216Y2243D01*
X129184Y2238D01*
X129152Y2236D01*
X128845Y2543D02*
X129459Y3310D01*
X130009Y3424D02*
X129982Y3366D01*
X129959Y3305D01*
X129939Y3244D01*
X129923Y3182D01*
X129910Y3118D01*
X129901Y3055D01*
X129896Y2990D01*
X129894Y2926D01*
X130008Y3425D02*
X130020Y3455D01*
X130036Y3483D01*
X130054Y3509D01*
X130075Y3533D01*
X130099Y3554D01*
X130125Y3573D01*
X130153Y3589D01*
X130183Y3601D01*
X130213Y3610D01*
X130245Y3615D01*
X130277Y3617D01*
X130309Y3615D01*
X130341Y3610D01*
X130371Y3601D01*
X130401Y3589D01*
X130429Y3573D01*
X130455Y3554D01*
X130479Y3533D01*
X130500Y3509D01*
X130518Y3483D01*
X130534Y3455D01*
X130546Y3425D01*
X130545Y3424D02*
X130572Y3366D01*
X130595Y3305D01*
X130615Y3244D01*
X130631Y3182D01*
X130644Y3118D01*
X130653Y3055D01*
X130658Y2990D01*
X130660Y2926D01*
X129894Y2926D02*
X129896Y2862D01*
X129901Y2797D01*
X129910Y2734D01*
X129923Y2670D01*
X129939Y2608D01*
X129959Y2547D01*
X129982Y2486D01*
X130009Y2428D01*
X130008Y2428D02*
X130020Y2398D01*
X130036Y2370D01*
X130054Y2344D01*
X130075Y2320D01*
X130099Y2299D01*
X130125Y2280D01*
X130153Y2264D01*
X130183Y2252D01*
X130213Y2243D01*
X130245Y2238D01*
X130277Y2236D01*
X130545Y2428D02*
X130572Y2486D01*
X130595Y2547D01*
X130615Y2608D01*
X130631Y2670D01*
X130644Y2734D01*
X130653Y2797D01*
X130658Y2862D01*
X130660Y2926D01*
X130546Y2428D02*
X130534Y2398D01*
X130518Y2370D01*
X130500Y2344D01*
X130479Y2320D01*
X130455Y2299D01*
X130429Y2280D01*
X130401Y2264D01*
X130371Y2252D01*
X130341Y2243D01*
X130309Y2238D01*
X130277Y2236D01*
X129970Y2543D02*
X130584Y3310D01*
X131055Y3156D02*
X131055Y2236D01*
X131055Y3156D02*
X131745Y3156D01*
X131773Y3154D01*
X131800Y3149D01*
X131827Y3141D01*
X131852Y3130D01*
X131876Y3115D01*
X131898Y3098D01*
X131917Y3079D01*
X131934Y3057D01*
X131949Y3033D01*
X131960Y3008D01*
X131968Y2981D01*
X131973Y2954D01*
X131975Y2926D01*
X131975Y2236D01*
X131515Y2236D02*
X131515Y3156D01*
X132415Y3156D02*
X132415Y2236D01*
X132376Y3540D02*
X132376Y3616D01*
X132453Y3616D01*
X132453Y3540D01*
X132376Y3540D01*
X132861Y3616D02*
X132861Y2466D01*
X132863Y2438D01*
X132868Y2411D01*
X132876Y2384D01*
X132887Y2359D01*
X132902Y2335D01*
X132919Y2313D01*
X132938Y2294D01*
X132960Y2277D01*
X132984Y2262D01*
X133009Y2251D01*
X133036Y2243D01*
X133063Y2238D01*
X133091Y2236D01*
D12*
X43000Y25482D02*
X43000Y31000D01*
X95000Y31000D02*
X95000Y25482D01*
X94974Y26250D02*
X43026Y26250D01*
X44024Y26376D01*
X44024Y26124D01*
X43026Y26250D01*
X44024Y26301D01*
X44024Y26199D02*
X43026Y26250D01*
X44024Y26352D01*
X44024Y26148D02*
X43026Y26250D01*
X93976Y26376D02*
X94974Y26250D01*
X93976Y26376D02*
X93976Y26124D01*
X94974Y26250D01*
X93976Y26301D01*
X93976Y26199D02*
X94974Y26250D01*
X93976Y26352D01*
X93976Y26148D02*
X94974Y26250D01*
D13*
X64279Y26736D02*
X63819Y26736D01*
X64279Y26736D02*
X64311Y26738D01*
X64343Y26743D01*
X64374Y26751D01*
X64404Y26763D01*
X64433Y26777D01*
X64459Y26795D01*
X64484Y26815D01*
X64507Y26838D01*
X64527Y26863D01*
X64545Y26890D01*
X64559Y26918D01*
X64571Y26948D01*
X64579Y26979D01*
X64584Y27011D01*
X64586Y27043D01*
X64585Y27043D02*
X64585Y27196D01*
X64586Y27196D02*
X64584Y27228D01*
X64579Y27260D01*
X64571Y27291D01*
X64559Y27321D01*
X64545Y27350D01*
X64527Y27376D01*
X64507Y27401D01*
X64484Y27424D01*
X64459Y27444D01*
X64433Y27462D01*
X64404Y27476D01*
X64374Y27488D01*
X64343Y27496D01*
X64311Y27501D01*
X64279Y27503D01*
X63819Y27503D01*
X63819Y28116D01*
X64585Y28116D01*
X65365Y28116D02*
X65401Y28114D01*
X65437Y28108D01*
X65472Y28099D01*
X65505Y28086D01*
X65538Y28070D01*
X65568Y28050D01*
X65596Y28027D01*
X65621Y28002D01*
X65644Y27974D01*
X65664Y27944D01*
X65680Y27911D01*
X65693Y27878D01*
X65702Y27843D01*
X65708Y27807D01*
X65710Y27771D01*
X65365Y28116D02*
X65325Y28114D01*
X65286Y28109D01*
X65247Y28100D01*
X65209Y28088D01*
X65173Y28072D01*
X65138Y28053D01*
X65104Y28031D01*
X65073Y28006D01*
X65045Y27979D01*
X65018Y27949D01*
X64995Y27917D01*
X64975Y27883D01*
X64957Y27847D01*
X64944Y27809D01*
X65596Y27502D02*
X65622Y27530D01*
X65645Y27559D01*
X65664Y27591D01*
X65681Y27625D01*
X65694Y27660D01*
X65703Y27696D01*
X65709Y27734D01*
X65711Y27771D01*
X65595Y27503D02*
X64944Y26736D01*
X65710Y26736D01*
X66069Y27426D02*
X66071Y27490D01*
X66076Y27555D01*
X66085Y27618D01*
X66098Y27682D01*
X66114Y27744D01*
X66134Y27805D01*
X66157Y27866D01*
X66184Y27924D01*
X66183Y27925D02*
X66195Y27955D01*
X66211Y27983D01*
X66229Y28009D01*
X66250Y28033D01*
X66274Y28054D01*
X66300Y28073D01*
X66328Y28089D01*
X66358Y28101D01*
X66388Y28110D01*
X66420Y28115D01*
X66452Y28117D01*
X66484Y28115D01*
X66516Y28110D01*
X66546Y28101D01*
X66576Y28089D01*
X66604Y28073D01*
X66630Y28054D01*
X66654Y28033D01*
X66675Y28009D01*
X66693Y27983D01*
X66709Y27955D01*
X66721Y27925D01*
X66720Y27924D02*
X66747Y27866D01*
X66770Y27805D01*
X66790Y27744D01*
X66806Y27682D01*
X66819Y27618D01*
X66828Y27555D01*
X66833Y27490D01*
X66835Y27426D01*
X66069Y27426D02*
X66071Y27362D01*
X66076Y27297D01*
X66085Y27234D01*
X66098Y27170D01*
X66114Y27108D01*
X66134Y27047D01*
X66157Y26986D01*
X66184Y26928D01*
X66183Y26928D02*
X66195Y26898D01*
X66211Y26870D01*
X66229Y26844D01*
X66250Y26820D01*
X66274Y26799D01*
X66300Y26780D01*
X66328Y26764D01*
X66358Y26752D01*
X66388Y26743D01*
X66420Y26738D01*
X66452Y26736D01*
X66720Y26928D02*
X66747Y26986D01*
X66770Y27047D01*
X66790Y27108D01*
X66806Y27170D01*
X66819Y27234D01*
X66828Y27297D01*
X66833Y27362D01*
X66835Y27426D01*
X66721Y26928D02*
X66709Y26898D01*
X66693Y26870D01*
X66675Y26844D01*
X66654Y26820D01*
X66630Y26799D01*
X66604Y26780D01*
X66576Y26764D01*
X66546Y26752D01*
X66516Y26743D01*
X66484Y26738D01*
X66452Y26736D01*
X66145Y27043D02*
X66759Y27810D01*
X67309Y27924D02*
X67282Y27866D01*
X67259Y27805D01*
X67239Y27744D01*
X67223Y27682D01*
X67210Y27618D01*
X67201Y27555D01*
X67196Y27490D01*
X67194Y27426D01*
X67308Y27925D02*
X67320Y27955D01*
X67336Y27983D01*
X67354Y28009D01*
X67375Y28033D01*
X67399Y28054D01*
X67425Y28073D01*
X67453Y28089D01*
X67483Y28101D01*
X67513Y28110D01*
X67545Y28115D01*
X67577Y28117D01*
X67609Y28115D01*
X67641Y28110D01*
X67671Y28101D01*
X67701Y28089D01*
X67729Y28073D01*
X67755Y28054D01*
X67779Y28033D01*
X67800Y28009D01*
X67818Y27983D01*
X67834Y27955D01*
X67846Y27925D01*
X67845Y27924D02*
X67872Y27866D01*
X67895Y27805D01*
X67915Y27744D01*
X67931Y27682D01*
X67944Y27618D01*
X67953Y27555D01*
X67958Y27490D01*
X67960Y27426D01*
X67194Y27426D02*
X67196Y27362D01*
X67201Y27297D01*
X67210Y27234D01*
X67223Y27170D01*
X67239Y27108D01*
X67259Y27047D01*
X67282Y26986D01*
X67309Y26928D01*
X67308Y26928D02*
X67320Y26898D01*
X67336Y26870D01*
X67354Y26844D01*
X67375Y26820D01*
X67399Y26799D01*
X67425Y26780D01*
X67453Y26764D01*
X67483Y26752D01*
X67513Y26743D01*
X67545Y26738D01*
X67577Y26736D01*
X67845Y26928D02*
X67872Y26986D01*
X67895Y27047D01*
X67915Y27108D01*
X67931Y27170D01*
X67944Y27234D01*
X67953Y27297D01*
X67958Y27362D01*
X67960Y27426D01*
X67846Y26928D02*
X67834Y26898D01*
X67818Y26870D01*
X67800Y26844D01*
X67779Y26820D01*
X67755Y26799D01*
X67729Y26780D01*
X67701Y26764D01*
X67671Y26752D01*
X67641Y26743D01*
X67609Y26738D01*
X67577Y26736D01*
X67270Y27043D02*
X67884Y27810D01*
X68326Y26813D02*
X68326Y26736D01*
X68326Y26813D02*
X68403Y26813D01*
X68403Y26736D01*
X68326Y26736D01*
X68769Y27426D02*
X68771Y27490D01*
X68776Y27555D01*
X68785Y27618D01*
X68798Y27682D01*
X68814Y27744D01*
X68834Y27805D01*
X68857Y27866D01*
X68884Y27924D01*
X68883Y27925D02*
X68895Y27955D01*
X68911Y27983D01*
X68929Y28009D01*
X68950Y28033D01*
X68974Y28054D01*
X69000Y28073D01*
X69028Y28089D01*
X69058Y28101D01*
X69088Y28110D01*
X69120Y28115D01*
X69152Y28117D01*
X69184Y28115D01*
X69216Y28110D01*
X69246Y28101D01*
X69276Y28089D01*
X69304Y28073D01*
X69330Y28054D01*
X69354Y28033D01*
X69375Y28009D01*
X69393Y27983D01*
X69409Y27955D01*
X69421Y27925D01*
X69420Y27924D02*
X69447Y27866D01*
X69470Y27805D01*
X69490Y27744D01*
X69506Y27682D01*
X69519Y27618D01*
X69528Y27555D01*
X69533Y27490D01*
X69535Y27426D01*
X68769Y27426D02*
X68771Y27362D01*
X68776Y27297D01*
X68785Y27234D01*
X68798Y27170D01*
X68814Y27108D01*
X68834Y27047D01*
X68857Y26986D01*
X68884Y26928D01*
X68883Y26928D02*
X68895Y26898D01*
X68911Y26870D01*
X68929Y26844D01*
X68950Y26820D01*
X68974Y26799D01*
X69000Y26780D01*
X69028Y26764D01*
X69058Y26752D01*
X69088Y26743D01*
X69120Y26738D01*
X69152Y26736D01*
X69420Y26928D02*
X69447Y26986D01*
X69470Y27047D01*
X69490Y27108D01*
X69506Y27170D01*
X69519Y27234D01*
X69528Y27297D01*
X69533Y27362D01*
X69535Y27426D01*
X69421Y26928D02*
X69409Y26898D01*
X69393Y26870D01*
X69375Y26844D01*
X69354Y26820D01*
X69330Y26799D01*
X69304Y26780D01*
X69276Y26764D01*
X69246Y26752D01*
X69216Y26743D01*
X69184Y26738D01*
X69152Y26736D01*
X68845Y27043D02*
X69459Y27810D01*
X70009Y27924D02*
X69982Y27866D01*
X69959Y27805D01*
X69939Y27744D01*
X69923Y27682D01*
X69910Y27618D01*
X69901Y27555D01*
X69896Y27490D01*
X69894Y27426D01*
X70008Y27925D02*
X70020Y27955D01*
X70036Y27983D01*
X70054Y28009D01*
X70075Y28033D01*
X70099Y28054D01*
X70125Y28073D01*
X70153Y28089D01*
X70183Y28101D01*
X70213Y28110D01*
X70245Y28115D01*
X70277Y28117D01*
X70309Y28115D01*
X70341Y28110D01*
X70371Y28101D01*
X70401Y28089D01*
X70429Y28073D01*
X70455Y28054D01*
X70479Y28033D01*
X70500Y28009D01*
X70518Y27983D01*
X70534Y27955D01*
X70546Y27925D01*
X70545Y27924D02*
X70572Y27866D01*
X70595Y27805D01*
X70615Y27744D01*
X70631Y27682D01*
X70644Y27618D01*
X70653Y27555D01*
X70658Y27490D01*
X70660Y27426D01*
X69894Y27426D02*
X69896Y27362D01*
X69901Y27297D01*
X69910Y27234D01*
X69923Y27170D01*
X69939Y27108D01*
X69959Y27047D01*
X69982Y26986D01*
X70009Y26928D01*
X70008Y26928D02*
X70020Y26898D01*
X70036Y26870D01*
X70054Y26844D01*
X70075Y26820D01*
X70099Y26799D01*
X70125Y26780D01*
X70153Y26764D01*
X70183Y26752D01*
X70213Y26743D01*
X70245Y26738D01*
X70277Y26736D01*
X70545Y26928D02*
X70572Y26986D01*
X70595Y27047D01*
X70615Y27108D01*
X70631Y27170D01*
X70644Y27234D01*
X70653Y27297D01*
X70658Y27362D01*
X70660Y27426D01*
X70546Y26928D02*
X70534Y26898D01*
X70518Y26870D01*
X70500Y26844D01*
X70479Y26820D01*
X70455Y26799D01*
X70429Y26780D01*
X70401Y26764D01*
X70371Y26752D01*
X70341Y26743D01*
X70309Y26738D01*
X70277Y26736D01*
X69970Y27043D02*
X70584Y27810D01*
X71055Y27656D02*
X71055Y26736D01*
X71055Y27656D02*
X71745Y27656D01*
X71773Y27654D01*
X71800Y27649D01*
X71827Y27641D01*
X71852Y27630D01*
X71876Y27615D01*
X71898Y27598D01*
X71917Y27579D01*
X71934Y27557D01*
X71949Y27533D01*
X71960Y27508D01*
X71968Y27481D01*
X71973Y27454D01*
X71975Y27426D01*
X71975Y26736D01*
X71515Y26736D02*
X71515Y27656D01*
X72415Y27656D02*
X72415Y26736D01*
X72376Y28040D02*
X72376Y28116D01*
X72453Y28116D01*
X72453Y28040D01*
X72376Y28040D01*
X72861Y28116D02*
X72861Y26966D01*
X72863Y26938D01*
X72868Y26911D01*
X72876Y26884D01*
X72887Y26859D01*
X72902Y26835D01*
X72919Y26813D01*
X72938Y26794D01*
X72960Y26777D01*
X72984Y26762D01*
X73009Y26751D01*
X73036Y26743D01*
X73063Y26738D01*
X73091Y26736D01*
D12*
X43000Y0D02*
X43000Y0D01*
X43000Y31000D02*
X43000Y31000D01*
X43000Y30974D02*
X43000Y26D01*
X42874Y1024D01*
X43126Y1024D01*
X43000Y26D01*
X42949Y1024D01*
X43051Y1024D02*
X43000Y26D01*
X42898Y1024D01*
X43102Y1024D02*
X43000Y26D01*
X42874Y29976D02*
X43000Y30974D01*
X42874Y29976D02*
X43126Y29976D01*
X43000Y30974D01*
X42949Y29976D01*
X43051Y29976D02*
X43000Y30974D01*
X42898Y29976D01*
X43102Y29976D02*
X43000Y30974D01*
D13*
X42514Y10702D02*
X42514Y10319D01*
X42513Y10702D02*
X42511Y10740D01*
X42506Y10777D01*
X42497Y10813D01*
X42484Y10849D01*
X42468Y10883D01*
X42448Y10915D01*
X42426Y10945D01*
X42401Y10973D01*
X42373Y10998D01*
X42343Y11020D01*
X42311Y11040D01*
X42277Y11056D01*
X42241Y11069D01*
X42205Y11078D01*
X42168Y11083D01*
X42130Y11085D01*
X42092Y11083D01*
X42055Y11078D01*
X42019Y11069D01*
X41983Y11056D01*
X41949Y11040D01*
X41917Y11020D01*
X41887Y10998D01*
X41859Y10973D01*
X41834Y10945D01*
X41812Y10915D01*
X41792Y10883D01*
X41776Y10849D01*
X41763Y10813D01*
X41754Y10777D01*
X41749Y10740D01*
X41747Y10702D01*
X41134Y10779D02*
X41134Y10319D01*
X41133Y10779D02*
X41135Y10812D01*
X41140Y10845D01*
X41149Y10877D01*
X41161Y10908D01*
X41177Y10937D01*
X41196Y10965D01*
X41217Y10990D01*
X41241Y11013D01*
X41268Y11033D01*
X41296Y11050D01*
X41326Y11064D01*
X41358Y11075D01*
X41390Y11082D01*
X41423Y11086D01*
X41457Y11086D01*
X41490Y11082D01*
X41522Y11075D01*
X41554Y11064D01*
X41584Y11050D01*
X41612Y11033D01*
X41639Y11013D01*
X41663Y10990D01*
X41684Y10965D01*
X41703Y10937D01*
X41719Y10908D01*
X41731Y10877D01*
X41740Y10845D01*
X41745Y10812D01*
X41747Y10779D01*
X41747Y10472D01*
X41440Y11444D02*
X41134Y11827D01*
X42514Y11827D01*
X42514Y11444D02*
X42514Y12210D01*
X41824Y12569D02*
X41760Y12571D01*
X41695Y12576D01*
X41632Y12585D01*
X41568Y12598D01*
X41506Y12614D01*
X41445Y12634D01*
X41384Y12657D01*
X41326Y12684D01*
X41325Y12683D02*
X41295Y12695D01*
X41267Y12711D01*
X41241Y12729D01*
X41217Y12750D01*
X41196Y12774D01*
X41177Y12800D01*
X41161Y12828D01*
X41149Y12858D01*
X41140Y12888D01*
X41135Y12920D01*
X41133Y12952D01*
X41135Y12984D01*
X41140Y13016D01*
X41149Y13046D01*
X41161Y13076D01*
X41177Y13104D01*
X41196Y13130D01*
X41217Y13154D01*
X41241Y13175D01*
X41267Y13193D01*
X41295Y13209D01*
X41325Y13221D01*
X41326Y13220D02*
X41384Y13247D01*
X41445Y13270D01*
X41506Y13290D01*
X41568Y13306D01*
X41632Y13319D01*
X41695Y13328D01*
X41760Y13333D01*
X41824Y13335D01*
X41824Y12569D02*
X41888Y12571D01*
X41953Y12576D01*
X42016Y12585D01*
X42080Y12598D01*
X42142Y12614D01*
X42203Y12634D01*
X42264Y12657D01*
X42322Y12684D01*
X42322Y12683D02*
X42352Y12695D01*
X42380Y12711D01*
X42406Y12729D01*
X42430Y12750D01*
X42451Y12774D01*
X42470Y12800D01*
X42486Y12828D01*
X42498Y12858D01*
X42507Y12888D01*
X42512Y12920D01*
X42514Y12952D01*
X42322Y13220D02*
X42264Y13247D01*
X42203Y13270D01*
X42142Y13290D01*
X42080Y13306D01*
X42016Y13319D01*
X41953Y13328D01*
X41888Y13333D01*
X41824Y13335D01*
X42322Y13221D02*
X42352Y13209D01*
X42380Y13193D01*
X42406Y13175D01*
X42430Y13154D01*
X42451Y13130D01*
X42470Y13104D01*
X42486Y13076D01*
X42498Y13046D01*
X42507Y13016D01*
X42512Y12984D01*
X42514Y12952D01*
X42207Y12645D02*
X41440Y13259D01*
X41326Y13809D02*
X41384Y13782D01*
X41445Y13759D01*
X41506Y13739D01*
X41568Y13723D01*
X41632Y13710D01*
X41695Y13701D01*
X41760Y13696D01*
X41824Y13694D01*
X41325Y13808D02*
X41295Y13820D01*
X41267Y13836D01*
X41241Y13854D01*
X41217Y13875D01*
X41196Y13899D01*
X41177Y13925D01*
X41161Y13953D01*
X41149Y13983D01*
X41140Y14013D01*
X41135Y14045D01*
X41133Y14077D01*
X41135Y14109D01*
X41140Y14141D01*
X41149Y14171D01*
X41161Y14201D01*
X41177Y14229D01*
X41196Y14255D01*
X41217Y14279D01*
X41241Y14300D01*
X41267Y14318D01*
X41295Y14334D01*
X41325Y14346D01*
X41326Y14345D02*
X41384Y14372D01*
X41445Y14395D01*
X41506Y14415D01*
X41568Y14431D01*
X41632Y14444D01*
X41695Y14453D01*
X41760Y14458D01*
X41824Y14460D01*
X41824Y13694D02*
X41888Y13696D01*
X41953Y13701D01*
X42016Y13710D01*
X42080Y13723D01*
X42142Y13739D01*
X42203Y13759D01*
X42264Y13782D01*
X42322Y13809D01*
X42322Y13808D02*
X42352Y13820D01*
X42380Y13836D01*
X42406Y13854D01*
X42430Y13875D01*
X42451Y13899D01*
X42470Y13925D01*
X42486Y13953D01*
X42498Y13983D01*
X42507Y14013D01*
X42512Y14045D01*
X42514Y14077D01*
X42322Y14345D02*
X42264Y14372D01*
X42203Y14395D01*
X42142Y14415D01*
X42080Y14431D01*
X42016Y14444D01*
X41953Y14453D01*
X41888Y14458D01*
X41824Y14460D01*
X42322Y14346D02*
X42352Y14334D01*
X42380Y14318D01*
X42406Y14300D01*
X42430Y14279D01*
X42451Y14255D01*
X42470Y14229D01*
X42486Y14201D01*
X42498Y14171D01*
X42507Y14141D01*
X42512Y14109D01*
X42514Y14077D01*
X42207Y13770D02*
X41440Y14384D01*
X42437Y14826D02*
X42514Y14826D01*
X42437Y14826D02*
X42437Y14903D01*
X42514Y14903D01*
X42514Y14826D01*
X41824Y15269D02*
X41760Y15271D01*
X41695Y15276D01*
X41632Y15285D01*
X41568Y15298D01*
X41506Y15314D01*
X41445Y15334D01*
X41384Y15357D01*
X41326Y15384D01*
X41325Y15383D02*
X41295Y15395D01*
X41267Y15411D01*
X41241Y15429D01*
X41217Y15450D01*
X41196Y15474D01*
X41177Y15500D01*
X41161Y15528D01*
X41149Y15558D01*
X41140Y15588D01*
X41135Y15620D01*
X41133Y15652D01*
X41135Y15684D01*
X41140Y15716D01*
X41149Y15746D01*
X41161Y15776D01*
X41177Y15804D01*
X41196Y15830D01*
X41217Y15854D01*
X41241Y15875D01*
X41267Y15893D01*
X41295Y15909D01*
X41325Y15921D01*
X41326Y15920D02*
X41384Y15947D01*
X41445Y15970D01*
X41506Y15990D01*
X41568Y16006D01*
X41632Y16019D01*
X41695Y16028D01*
X41760Y16033D01*
X41824Y16035D01*
X41824Y15269D02*
X41888Y15271D01*
X41953Y15276D01*
X42016Y15285D01*
X42080Y15298D01*
X42142Y15314D01*
X42203Y15334D01*
X42264Y15357D01*
X42322Y15384D01*
X42322Y15383D02*
X42352Y15395D01*
X42380Y15411D01*
X42406Y15429D01*
X42430Y15450D01*
X42451Y15474D01*
X42470Y15500D01*
X42486Y15528D01*
X42498Y15558D01*
X42507Y15588D01*
X42512Y15620D01*
X42514Y15652D01*
X42322Y15920D02*
X42264Y15947D01*
X42203Y15970D01*
X42142Y15990D01*
X42080Y16006D01*
X42016Y16019D01*
X41953Y16028D01*
X41888Y16033D01*
X41824Y16035D01*
X42322Y15921D02*
X42352Y15909D01*
X42380Y15893D01*
X42406Y15875D01*
X42430Y15854D01*
X42451Y15830D01*
X42470Y15804D01*
X42486Y15776D01*
X42498Y15746D01*
X42507Y15716D01*
X42512Y15684D01*
X42514Y15652D01*
X42207Y15345D02*
X41440Y15959D01*
X41326Y16509D02*
X41384Y16482D01*
X41445Y16459D01*
X41506Y16439D01*
X41568Y16423D01*
X41632Y16410D01*
X41695Y16401D01*
X41760Y16396D01*
X41824Y16394D01*
X41325Y16508D02*
X41295Y16520D01*
X41267Y16536D01*
X41241Y16554D01*
X41217Y16575D01*
X41196Y16599D01*
X41177Y16625D01*
X41161Y16653D01*
X41149Y16683D01*
X41140Y16713D01*
X41135Y16745D01*
X41133Y16777D01*
X41135Y16809D01*
X41140Y16841D01*
X41149Y16871D01*
X41161Y16901D01*
X41177Y16929D01*
X41196Y16955D01*
X41217Y16979D01*
X41241Y17000D01*
X41267Y17018D01*
X41295Y17034D01*
X41325Y17046D01*
X41326Y17045D02*
X41384Y17072D01*
X41445Y17095D01*
X41506Y17115D01*
X41568Y17131D01*
X41632Y17144D01*
X41695Y17153D01*
X41760Y17158D01*
X41824Y17160D01*
X41824Y16394D02*
X41888Y16396D01*
X41953Y16401D01*
X42016Y16410D01*
X42080Y16423D01*
X42142Y16439D01*
X42203Y16459D01*
X42264Y16482D01*
X42322Y16509D01*
X42322Y16508D02*
X42352Y16520D01*
X42380Y16536D01*
X42406Y16554D01*
X42430Y16575D01*
X42451Y16599D01*
X42470Y16625D01*
X42486Y16653D01*
X42498Y16683D01*
X42507Y16713D01*
X42512Y16745D01*
X42514Y16777D01*
X42322Y17045D02*
X42264Y17072D01*
X42203Y17095D01*
X42142Y17115D01*
X42080Y17131D01*
X42016Y17144D01*
X41953Y17153D01*
X41888Y17158D01*
X41824Y17160D01*
X42322Y17046D02*
X42352Y17034D01*
X42380Y17018D01*
X42406Y17000D01*
X42430Y16979D01*
X42451Y16955D01*
X42470Y16929D01*
X42486Y16901D01*
X42498Y16871D01*
X42507Y16841D01*
X42512Y16809D01*
X42514Y16777D01*
X42207Y16470D02*
X41440Y17084D01*
X41594Y17555D02*
X42514Y17555D01*
X41594Y17555D02*
X41594Y18245D01*
X41596Y18273D01*
X41601Y18300D01*
X41609Y18327D01*
X41620Y18352D01*
X41635Y18376D01*
X41652Y18398D01*
X41671Y18417D01*
X41693Y18434D01*
X41717Y18449D01*
X41742Y18460D01*
X41769Y18468D01*
X41796Y18473D01*
X41824Y18475D01*
X42514Y18475D01*
X42514Y18015D02*
X41594Y18015D01*
X41594Y18915D02*
X42514Y18915D01*
X41210Y18876D02*
X41134Y18876D01*
X41134Y18953D01*
X41210Y18953D01*
X41210Y18876D01*
X41134Y19361D02*
X42284Y19361D01*
X42312Y19363D01*
X42339Y19368D01*
X42366Y19376D01*
X42391Y19387D01*
X42415Y19402D01*
X42437Y19419D01*
X42456Y19438D01*
X42473Y19460D01*
X42488Y19484D01*
X42499Y19509D01*
X42507Y19536D01*
X42512Y19563D01*
X42514Y19591D01*
D12*
X95000Y9500D02*
X95000Y9500D01*
X95000Y31000D02*
X95000Y31000D01*
X95000Y30974D02*
X95000Y9526D01*
X94874Y10524D01*
X95126Y10524D01*
X95000Y9526D01*
X94949Y10524D01*
X95051Y10524D02*
X95000Y9526D01*
X94898Y10524D01*
X95102Y10524D02*
X95000Y9526D01*
X94874Y29976D02*
X95000Y30974D01*
X94874Y29976D02*
X95126Y29976D01*
X95000Y30974D01*
X94949Y29976D01*
X95051Y29976D02*
X95000Y30974D01*
X94898Y29976D01*
X95102Y29976D02*
X95000Y30974D01*
D13*
X93479Y15835D02*
X93443Y15833D01*
X93407Y15827D01*
X93372Y15818D01*
X93339Y15805D01*
X93307Y15789D01*
X93276Y15769D01*
X93248Y15746D01*
X93223Y15721D01*
X93200Y15693D01*
X93180Y15663D01*
X93164Y15630D01*
X93151Y15597D01*
X93142Y15562D01*
X93136Y15526D01*
X93134Y15490D01*
X93136Y15450D01*
X93141Y15411D01*
X93150Y15372D01*
X93162Y15334D01*
X93178Y15298D01*
X93197Y15263D01*
X93219Y15229D01*
X93244Y15198D01*
X93271Y15170D01*
X93301Y15143D01*
X93333Y15120D01*
X93367Y15100D01*
X93403Y15082D01*
X93441Y15069D01*
X93748Y15721D02*
X93720Y15747D01*
X93691Y15770D01*
X93659Y15789D01*
X93625Y15806D01*
X93590Y15819D01*
X93554Y15828D01*
X93516Y15834D01*
X93479Y15836D01*
X93747Y15720D02*
X94514Y15069D01*
X94514Y15835D01*
X93440Y16194D02*
X93134Y16577D01*
X94514Y16577D01*
X94514Y16194D02*
X94514Y16960D01*
X94514Y17319D02*
X94514Y17779D01*
X94512Y17811D01*
X94507Y17843D01*
X94499Y17874D01*
X94487Y17904D01*
X94473Y17933D01*
X94455Y17959D01*
X94435Y17984D01*
X94412Y18007D01*
X94387Y18027D01*
X94361Y18045D01*
X94332Y18059D01*
X94302Y18071D01*
X94271Y18079D01*
X94239Y18084D01*
X94207Y18086D01*
X94207Y18085D02*
X94054Y18085D01*
X94054Y18086D02*
X94022Y18084D01*
X93990Y18079D01*
X93959Y18071D01*
X93929Y18059D01*
X93901Y18045D01*
X93874Y18027D01*
X93849Y18007D01*
X93826Y17984D01*
X93806Y17959D01*
X93788Y17933D01*
X93774Y17904D01*
X93762Y17874D01*
X93754Y17843D01*
X93749Y17811D01*
X93747Y17779D01*
X93747Y17319D01*
X93134Y17319D01*
X93134Y18085D01*
X93326Y18559D02*
X93384Y18532D01*
X93445Y18509D01*
X93506Y18489D01*
X93568Y18473D01*
X93632Y18460D01*
X93695Y18451D01*
X93760Y18446D01*
X93824Y18444D01*
X93325Y18558D02*
X93295Y18570D01*
X93267Y18586D01*
X93241Y18604D01*
X93217Y18625D01*
X93196Y18649D01*
X93177Y18675D01*
X93161Y18703D01*
X93149Y18733D01*
X93140Y18763D01*
X93135Y18795D01*
X93133Y18827D01*
X93135Y18859D01*
X93140Y18891D01*
X93149Y18921D01*
X93161Y18951D01*
X93177Y18979D01*
X93196Y19005D01*
X93217Y19029D01*
X93241Y19050D01*
X93267Y19068D01*
X93295Y19084D01*
X93325Y19096D01*
X93326Y19095D02*
X93384Y19122D01*
X93445Y19145D01*
X93506Y19165D01*
X93568Y19181D01*
X93632Y19194D01*
X93695Y19203D01*
X93760Y19208D01*
X93824Y19210D01*
X93824Y18444D02*
X93888Y18446D01*
X93953Y18451D01*
X94016Y18460D01*
X94080Y18473D01*
X94142Y18489D01*
X94203Y18509D01*
X94264Y18532D01*
X94322Y18559D01*
X94322Y18558D02*
X94352Y18570D01*
X94380Y18586D01*
X94406Y18604D01*
X94430Y18625D01*
X94451Y18649D01*
X94470Y18675D01*
X94486Y18703D01*
X94498Y18733D01*
X94507Y18763D01*
X94512Y18795D01*
X94514Y18827D01*
X94322Y19095D02*
X94264Y19122D01*
X94203Y19145D01*
X94142Y19165D01*
X94080Y19181D01*
X94016Y19194D01*
X93953Y19203D01*
X93888Y19208D01*
X93824Y19210D01*
X94322Y19096D02*
X94352Y19084D01*
X94380Y19068D01*
X94406Y19050D01*
X94430Y19029D01*
X94451Y19005D01*
X94470Y18979D01*
X94486Y18951D01*
X94498Y18921D01*
X94507Y18891D01*
X94512Y18859D01*
X94514Y18827D01*
X94207Y18520D02*
X93440Y19134D01*
X94437Y19576D02*
X94514Y19576D01*
X94437Y19576D02*
X94437Y19653D01*
X94514Y19653D01*
X94514Y19576D01*
X93824Y20019D02*
X93760Y20021D01*
X93695Y20026D01*
X93632Y20035D01*
X93568Y20048D01*
X93506Y20064D01*
X93445Y20084D01*
X93384Y20107D01*
X93326Y20134D01*
X93325Y20133D02*
X93295Y20145D01*
X93267Y20161D01*
X93241Y20179D01*
X93217Y20200D01*
X93196Y20224D01*
X93177Y20250D01*
X93161Y20278D01*
X93149Y20308D01*
X93140Y20338D01*
X93135Y20370D01*
X93133Y20402D01*
X93135Y20434D01*
X93140Y20466D01*
X93149Y20496D01*
X93161Y20526D01*
X93177Y20554D01*
X93196Y20580D01*
X93217Y20604D01*
X93241Y20625D01*
X93267Y20643D01*
X93295Y20659D01*
X93325Y20671D01*
X93326Y20670D02*
X93384Y20697D01*
X93445Y20720D01*
X93506Y20740D01*
X93568Y20756D01*
X93632Y20769D01*
X93695Y20778D01*
X93760Y20783D01*
X93824Y20785D01*
X93824Y20019D02*
X93888Y20021D01*
X93953Y20026D01*
X94016Y20035D01*
X94080Y20048D01*
X94142Y20064D01*
X94203Y20084D01*
X94264Y20107D01*
X94322Y20134D01*
X94322Y20133D02*
X94352Y20145D01*
X94380Y20161D01*
X94406Y20179D01*
X94430Y20200D01*
X94451Y20224D01*
X94470Y20250D01*
X94486Y20278D01*
X94498Y20308D01*
X94507Y20338D01*
X94512Y20370D01*
X94514Y20402D01*
X94322Y20670D02*
X94264Y20697D01*
X94203Y20720D01*
X94142Y20740D01*
X94080Y20756D01*
X94016Y20769D01*
X93953Y20778D01*
X93888Y20783D01*
X93824Y20785D01*
X94322Y20671D02*
X94352Y20659D01*
X94380Y20643D01*
X94406Y20625D01*
X94430Y20604D01*
X94451Y20580D01*
X94470Y20554D01*
X94486Y20526D01*
X94498Y20496D01*
X94507Y20466D01*
X94512Y20434D01*
X94514Y20402D01*
X94207Y20095D02*
X93440Y20709D01*
X93326Y21259D02*
X93384Y21232D01*
X93445Y21209D01*
X93506Y21189D01*
X93568Y21173D01*
X93632Y21160D01*
X93695Y21151D01*
X93760Y21146D01*
X93824Y21144D01*
X93325Y21258D02*
X93295Y21270D01*
X93267Y21286D01*
X93241Y21304D01*
X93217Y21325D01*
X93196Y21349D01*
X93177Y21375D01*
X93161Y21403D01*
X93149Y21433D01*
X93140Y21463D01*
X93135Y21495D01*
X93133Y21527D01*
X93135Y21559D01*
X93140Y21591D01*
X93149Y21621D01*
X93161Y21651D01*
X93177Y21679D01*
X93196Y21705D01*
X93217Y21729D01*
X93241Y21750D01*
X93267Y21768D01*
X93295Y21784D01*
X93325Y21796D01*
X93326Y21795D02*
X93384Y21822D01*
X93445Y21845D01*
X93506Y21865D01*
X93568Y21881D01*
X93632Y21894D01*
X93695Y21903D01*
X93760Y21908D01*
X93824Y21910D01*
X93824Y21144D02*
X93888Y21146D01*
X93953Y21151D01*
X94016Y21160D01*
X94080Y21173D01*
X94142Y21189D01*
X94203Y21209D01*
X94264Y21232D01*
X94322Y21259D01*
X94322Y21258D02*
X94352Y21270D01*
X94380Y21286D01*
X94406Y21304D01*
X94430Y21325D01*
X94451Y21349D01*
X94470Y21375D01*
X94486Y21403D01*
X94498Y21433D01*
X94507Y21463D01*
X94512Y21495D01*
X94514Y21527D01*
X94322Y21795D02*
X94264Y21822D01*
X94203Y21845D01*
X94142Y21865D01*
X94080Y21881D01*
X94016Y21894D01*
X93953Y21903D01*
X93888Y21908D01*
X93824Y21910D01*
X94322Y21796D02*
X94352Y21784D01*
X94380Y21768D01*
X94406Y21750D01*
X94430Y21729D01*
X94451Y21705D01*
X94470Y21679D01*
X94486Y21651D01*
X94498Y21621D01*
X94507Y21591D01*
X94512Y21559D01*
X94514Y21527D01*
X94207Y21220D02*
X93440Y21834D01*
X93594Y22305D02*
X94514Y22305D01*
X93594Y22305D02*
X93594Y22995D01*
X93596Y23023D01*
X93601Y23050D01*
X93609Y23077D01*
X93620Y23102D01*
X93635Y23126D01*
X93652Y23148D01*
X93671Y23167D01*
X93693Y23184D01*
X93717Y23199D01*
X93742Y23210D01*
X93769Y23218D01*
X93796Y23223D01*
X93824Y23225D01*
X94514Y23225D01*
X94514Y22765D02*
X93594Y22765D01*
X93594Y23665D02*
X94514Y23665D01*
X93210Y23626D02*
X93134Y23626D01*
X93134Y23703D01*
X93210Y23703D01*
X93210Y23626D01*
X93134Y24111D02*
X94284Y24111D01*
X94312Y24113D01*
X94339Y24118D01*
X94366Y24126D01*
X94391Y24137D01*
X94415Y24152D01*
X94437Y24169D01*
X94456Y24188D01*
X94473Y24210D01*
X94488Y24234D01*
X94499Y24259D01*
X94507Y24286D01*
X94512Y24313D01*
X94514Y24341D01*
D12*
X28000Y0D02*
X28000Y-8518D01*
X43000Y-8518D02*
X43000Y0D01*
X42974Y-7750D02*
X28026Y-7750D01*
X29024Y-7624D01*
X29024Y-7876D01*
X28026Y-7750D01*
X29024Y-7699D01*
X29024Y-7801D02*
X28026Y-7750D01*
X29024Y-7648D01*
X29024Y-7852D02*
X28026Y-7750D01*
X41976Y-7624D02*
X42974Y-7750D01*
X41976Y-7624D02*
X41976Y-7876D01*
X42974Y-7750D01*
X41976Y-7699D01*
X41976Y-7801D02*
X42974Y-7750D01*
X41976Y-7648D01*
X41976Y-7852D02*
X42974Y-7750D01*
D13*
X30702Y-5884D02*
X30319Y-6190D01*
X30702Y-5884D02*
X30702Y-7264D01*
X30319Y-7264D02*
X31085Y-7264D01*
X31444Y-7264D02*
X31904Y-7264D01*
X31936Y-7262D01*
X31968Y-7257D01*
X31999Y-7249D01*
X32029Y-7237D01*
X32058Y-7223D01*
X32084Y-7205D01*
X32109Y-7185D01*
X32132Y-7162D01*
X32152Y-7137D01*
X32170Y-7111D01*
X32184Y-7082D01*
X32196Y-7052D01*
X32204Y-7021D01*
X32209Y-6989D01*
X32211Y-6957D01*
X32210Y-6957D02*
X32210Y-6804D01*
X32211Y-6804D02*
X32209Y-6772D01*
X32204Y-6740D01*
X32196Y-6709D01*
X32184Y-6679D01*
X32170Y-6651D01*
X32152Y-6624D01*
X32132Y-6599D01*
X32109Y-6576D01*
X32084Y-6556D01*
X32058Y-6538D01*
X32029Y-6524D01*
X31999Y-6512D01*
X31968Y-6504D01*
X31936Y-6499D01*
X31904Y-6497D01*
X31444Y-6497D01*
X31444Y-5884D01*
X32210Y-5884D01*
X32684Y-6076D02*
X32657Y-6134D01*
X32634Y-6195D01*
X32614Y-6256D01*
X32598Y-6318D01*
X32585Y-6382D01*
X32576Y-6445D01*
X32571Y-6510D01*
X32569Y-6574D01*
X32683Y-6075D02*
X32695Y-6045D01*
X32711Y-6017D01*
X32729Y-5991D01*
X32750Y-5967D01*
X32774Y-5946D01*
X32800Y-5927D01*
X32828Y-5911D01*
X32858Y-5899D01*
X32888Y-5890D01*
X32920Y-5885D01*
X32952Y-5883D01*
X32984Y-5885D01*
X33016Y-5890D01*
X33046Y-5899D01*
X33076Y-5911D01*
X33104Y-5927D01*
X33130Y-5946D01*
X33154Y-5967D01*
X33175Y-5991D01*
X33193Y-6017D01*
X33209Y-6045D01*
X33221Y-6075D01*
X33220Y-6076D02*
X33247Y-6134D01*
X33270Y-6195D01*
X33290Y-6256D01*
X33306Y-6318D01*
X33319Y-6382D01*
X33328Y-6445D01*
X33333Y-6510D01*
X33335Y-6574D01*
X32569Y-6574D02*
X32571Y-6638D01*
X32576Y-6703D01*
X32585Y-6766D01*
X32598Y-6830D01*
X32614Y-6892D01*
X32634Y-6953D01*
X32657Y-7014D01*
X32684Y-7072D01*
X32683Y-7072D02*
X32695Y-7102D01*
X32711Y-7130D01*
X32729Y-7156D01*
X32750Y-7180D01*
X32774Y-7201D01*
X32800Y-7220D01*
X32828Y-7236D01*
X32858Y-7248D01*
X32888Y-7257D01*
X32920Y-7262D01*
X32952Y-7264D01*
X33220Y-7072D02*
X33247Y-7014D01*
X33270Y-6953D01*
X33290Y-6892D01*
X33306Y-6830D01*
X33319Y-6766D01*
X33328Y-6703D01*
X33333Y-6638D01*
X33335Y-6574D01*
X33221Y-7072D02*
X33209Y-7102D01*
X33193Y-7130D01*
X33175Y-7156D01*
X33154Y-7180D01*
X33130Y-7201D01*
X33104Y-7220D01*
X33076Y-7236D01*
X33046Y-7248D01*
X33016Y-7257D01*
X32984Y-7262D01*
X32952Y-7264D01*
X32645Y-6957D02*
X33259Y-6190D01*
X33809Y-6076D02*
X33782Y-6134D01*
X33759Y-6195D01*
X33739Y-6256D01*
X33723Y-6318D01*
X33710Y-6382D01*
X33701Y-6445D01*
X33696Y-6510D01*
X33694Y-6574D01*
X33808Y-6075D02*
X33820Y-6045D01*
X33836Y-6017D01*
X33854Y-5991D01*
X33875Y-5967D01*
X33899Y-5946D01*
X33925Y-5927D01*
X33953Y-5911D01*
X33983Y-5899D01*
X34013Y-5890D01*
X34045Y-5885D01*
X34077Y-5883D01*
X34109Y-5885D01*
X34141Y-5890D01*
X34171Y-5899D01*
X34201Y-5911D01*
X34229Y-5927D01*
X34255Y-5946D01*
X34279Y-5967D01*
X34300Y-5991D01*
X34318Y-6017D01*
X34334Y-6045D01*
X34346Y-6075D01*
X34345Y-6076D02*
X34372Y-6134D01*
X34395Y-6195D01*
X34415Y-6256D01*
X34431Y-6318D01*
X34444Y-6382D01*
X34453Y-6445D01*
X34458Y-6510D01*
X34460Y-6574D01*
X33694Y-6574D02*
X33696Y-6638D01*
X33701Y-6703D01*
X33710Y-6766D01*
X33723Y-6830D01*
X33739Y-6892D01*
X33759Y-6953D01*
X33782Y-7014D01*
X33809Y-7072D01*
X33808Y-7072D02*
X33820Y-7102D01*
X33836Y-7130D01*
X33854Y-7156D01*
X33875Y-7180D01*
X33899Y-7201D01*
X33925Y-7220D01*
X33953Y-7236D01*
X33983Y-7248D01*
X34013Y-7257D01*
X34045Y-7262D01*
X34077Y-7264D01*
X34345Y-7072D02*
X34372Y-7014D01*
X34395Y-6953D01*
X34415Y-6892D01*
X34431Y-6830D01*
X34444Y-6766D01*
X34453Y-6703D01*
X34458Y-6638D01*
X34460Y-6574D01*
X34346Y-7072D02*
X34334Y-7102D01*
X34318Y-7130D01*
X34300Y-7156D01*
X34279Y-7180D01*
X34255Y-7201D01*
X34229Y-7220D01*
X34201Y-7236D01*
X34171Y-7248D01*
X34141Y-7257D01*
X34109Y-7262D01*
X34077Y-7264D01*
X33770Y-6957D02*
X34384Y-6190D01*
X34826Y-7187D02*
X34826Y-7264D01*
X34826Y-7187D02*
X34903Y-7187D01*
X34903Y-7264D01*
X34826Y-7264D01*
X35269Y-6574D02*
X35271Y-6510D01*
X35276Y-6445D01*
X35285Y-6382D01*
X35298Y-6318D01*
X35314Y-6256D01*
X35334Y-6195D01*
X35357Y-6134D01*
X35384Y-6076D01*
X35383Y-6075D02*
X35395Y-6045D01*
X35411Y-6017D01*
X35429Y-5991D01*
X35450Y-5967D01*
X35474Y-5946D01*
X35500Y-5927D01*
X35528Y-5911D01*
X35558Y-5899D01*
X35588Y-5890D01*
X35620Y-5885D01*
X35652Y-5883D01*
X35684Y-5885D01*
X35716Y-5890D01*
X35746Y-5899D01*
X35776Y-5911D01*
X35804Y-5927D01*
X35830Y-5946D01*
X35854Y-5967D01*
X35875Y-5991D01*
X35893Y-6017D01*
X35909Y-6045D01*
X35921Y-6075D01*
X35920Y-6076D02*
X35947Y-6134D01*
X35970Y-6195D01*
X35990Y-6256D01*
X36006Y-6318D01*
X36019Y-6382D01*
X36028Y-6445D01*
X36033Y-6510D01*
X36035Y-6574D01*
X35269Y-6574D02*
X35271Y-6638D01*
X35276Y-6703D01*
X35285Y-6766D01*
X35298Y-6830D01*
X35314Y-6892D01*
X35334Y-6953D01*
X35357Y-7014D01*
X35384Y-7072D01*
X35383Y-7072D02*
X35395Y-7102D01*
X35411Y-7130D01*
X35429Y-7156D01*
X35450Y-7180D01*
X35474Y-7201D01*
X35500Y-7220D01*
X35528Y-7236D01*
X35558Y-7248D01*
X35588Y-7257D01*
X35620Y-7262D01*
X35652Y-7264D01*
X35920Y-7072D02*
X35947Y-7014D01*
X35970Y-6953D01*
X35990Y-6892D01*
X36006Y-6830D01*
X36019Y-6766D01*
X36028Y-6703D01*
X36033Y-6638D01*
X36035Y-6574D01*
X35921Y-7072D02*
X35909Y-7102D01*
X35893Y-7130D01*
X35875Y-7156D01*
X35854Y-7180D01*
X35830Y-7201D01*
X35804Y-7220D01*
X35776Y-7236D01*
X35746Y-7248D01*
X35716Y-7257D01*
X35684Y-7262D01*
X35652Y-7264D01*
X35345Y-6957D02*
X35959Y-6190D01*
X36509Y-6076D02*
X36482Y-6134D01*
X36459Y-6195D01*
X36439Y-6256D01*
X36423Y-6318D01*
X36410Y-6382D01*
X36401Y-6445D01*
X36396Y-6510D01*
X36394Y-6574D01*
X36508Y-6075D02*
X36520Y-6045D01*
X36536Y-6017D01*
X36554Y-5991D01*
X36575Y-5967D01*
X36599Y-5946D01*
X36625Y-5927D01*
X36653Y-5911D01*
X36683Y-5899D01*
X36713Y-5890D01*
X36745Y-5885D01*
X36777Y-5883D01*
X36809Y-5885D01*
X36841Y-5890D01*
X36871Y-5899D01*
X36901Y-5911D01*
X36929Y-5927D01*
X36955Y-5946D01*
X36979Y-5967D01*
X37000Y-5991D01*
X37018Y-6017D01*
X37034Y-6045D01*
X37046Y-6075D01*
X37045Y-6076D02*
X37072Y-6134D01*
X37095Y-6195D01*
X37115Y-6256D01*
X37131Y-6318D01*
X37144Y-6382D01*
X37153Y-6445D01*
X37158Y-6510D01*
X37160Y-6574D01*
X36394Y-6574D02*
X36396Y-6638D01*
X36401Y-6703D01*
X36410Y-6766D01*
X36423Y-6830D01*
X36439Y-6892D01*
X36459Y-6953D01*
X36482Y-7014D01*
X36509Y-7072D01*
X36508Y-7072D02*
X36520Y-7102D01*
X36536Y-7130D01*
X36554Y-7156D01*
X36575Y-7180D01*
X36599Y-7201D01*
X36625Y-7220D01*
X36653Y-7236D01*
X36683Y-7248D01*
X36713Y-7257D01*
X36745Y-7262D01*
X36777Y-7264D01*
X37045Y-7072D02*
X37072Y-7014D01*
X37095Y-6953D01*
X37115Y-6892D01*
X37131Y-6830D01*
X37144Y-6766D01*
X37153Y-6703D01*
X37158Y-6638D01*
X37160Y-6574D01*
X37046Y-7072D02*
X37034Y-7102D01*
X37018Y-7130D01*
X37000Y-7156D01*
X36979Y-7180D01*
X36955Y-7201D01*
X36929Y-7220D01*
X36901Y-7236D01*
X36871Y-7248D01*
X36841Y-7257D01*
X36809Y-7262D01*
X36777Y-7264D01*
X36470Y-6957D02*
X37084Y-6190D01*
X37555Y-6344D02*
X37555Y-7264D01*
X37555Y-6344D02*
X38245Y-6344D01*
X38273Y-6346D01*
X38300Y-6351D01*
X38327Y-6359D01*
X38352Y-6370D01*
X38376Y-6385D01*
X38398Y-6402D01*
X38417Y-6421D01*
X38434Y-6443D01*
X38449Y-6467D01*
X38460Y-6492D01*
X38468Y-6519D01*
X38473Y-6546D01*
X38475Y-6574D01*
X38475Y-7264D01*
X38015Y-7264D02*
X38015Y-6344D01*
X38915Y-6344D02*
X38915Y-7264D01*
X38876Y-5960D02*
X38876Y-5884D01*
X38953Y-5884D01*
X38953Y-5960D01*
X38876Y-5960D01*
X39361Y-5884D02*
X39361Y-7034D01*
X39363Y-7062D01*
X39368Y-7089D01*
X39376Y-7116D01*
X39387Y-7141D01*
X39402Y-7165D01*
X39419Y-7187D01*
X39438Y-7206D01*
X39460Y-7223D01*
X39484Y-7238D01*
X39509Y-7249D01*
X39536Y-7257D01*
X39563Y-7262D01*
X39591Y-7264D01*
D12*
X95000Y982D02*
X95000Y9500D01*
X108000Y9500D02*
X108000Y982D01*
X107974Y1750D02*
X95026Y1750D01*
X96024Y1876D01*
X96024Y1624D01*
X95026Y1750D01*
X96024Y1801D01*
X96024Y1699D02*
X95026Y1750D01*
X96024Y1852D01*
X96024Y1648D02*
X95026Y1750D01*
X106976Y1876D02*
X107974Y1750D01*
X106976Y1876D02*
X106976Y1624D01*
X107974Y1750D01*
X106976Y1801D01*
X106976Y1699D02*
X107974Y1750D01*
X106976Y1852D01*
X106976Y1648D02*
X107974Y1750D01*
D13*
X96702Y3616D02*
X96319Y3310D01*
X96702Y3616D02*
X96702Y2236D01*
X96319Y2236D02*
X97085Y2236D01*
X97444Y2236D02*
X97827Y2236D01*
X97827Y2237D02*
X97865Y2239D01*
X97902Y2244D01*
X97938Y2253D01*
X97974Y2266D01*
X98008Y2282D01*
X98040Y2302D01*
X98070Y2324D01*
X98098Y2349D01*
X98123Y2377D01*
X98145Y2407D01*
X98165Y2439D01*
X98181Y2473D01*
X98194Y2509D01*
X98203Y2545D01*
X98208Y2582D01*
X98210Y2620D01*
X98208Y2658D01*
X98203Y2695D01*
X98194Y2731D01*
X98181Y2767D01*
X98165Y2801D01*
X98145Y2833D01*
X98123Y2863D01*
X98098Y2891D01*
X98070Y2916D01*
X98040Y2938D01*
X98008Y2958D01*
X97974Y2974D01*
X97938Y2987D01*
X97902Y2996D01*
X97865Y3001D01*
X97827Y3003D01*
X97904Y3616D02*
X97444Y3616D01*
X97904Y3617D02*
X97937Y3615D01*
X97970Y3610D01*
X98002Y3601D01*
X98033Y3589D01*
X98062Y3573D01*
X98090Y3554D01*
X98115Y3533D01*
X98138Y3509D01*
X98158Y3482D01*
X98175Y3454D01*
X98189Y3424D01*
X98200Y3392D01*
X98207Y3360D01*
X98211Y3327D01*
X98211Y3293D01*
X98207Y3260D01*
X98200Y3228D01*
X98189Y3196D01*
X98175Y3166D01*
X98158Y3138D01*
X98138Y3111D01*
X98115Y3087D01*
X98090Y3066D01*
X98062Y3047D01*
X98033Y3031D01*
X98002Y3019D01*
X97970Y3010D01*
X97937Y3005D01*
X97904Y3003D01*
X97597Y3003D01*
X98569Y2926D02*
X98571Y2990D01*
X98576Y3055D01*
X98585Y3118D01*
X98598Y3182D01*
X98614Y3244D01*
X98634Y3305D01*
X98657Y3366D01*
X98684Y3424D01*
X98683Y3425D02*
X98695Y3455D01*
X98711Y3483D01*
X98729Y3509D01*
X98750Y3533D01*
X98774Y3554D01*
X98800Y3573D01*
X98828Y3589D01*
X98858Y3601D01*
X98888Y3610D01*
X98920Y3615D01*
X98952Y3617D01*
X98984Y3615D01*
X99016Y3610D01*
X99046Y3601D01*
X99076Y3589D01*
X99104Y3573D01*
X99130Y3554D01*
X99154Y3533D01*
X99175Y3509D01*
X99193Y3483D01*
X99209Y3455D01*
X99221Y3425D01*
X99220Y3424D02*
X99247Y3366D01*
X99270Y3305D01*
X99290Y3244D01*
X99306Y3182D01*
X99319Y3118D01*
X99328Y3055D01*
X99333Y2990D01*
X99335Y2926D01*
X98569Y2926D02*
X98571Y2862D01*
X98576Y2797D01*
X98585Y2734D01*
X98598Y2670D01*
X98614Y2608D01*
X98634Y2547D01*
X98657Y2486D01*
X98684Y2428D01*
X98683Y2428D02*
X98695Y2398D01*
X98711Y2370D01*
X98729Y2344D01*
X98750Y2320D01*
X98774Y2299D01*
X98800Y2280D01*
X98828Y2264D01*
X98858Y2252D01*
X98888Y2243D01*
X98920Y2238D01*
X98952Y2236D01*
X99220Y2428D02*
X99247Y2486D01*
X99270Y2547D01*
X99290Y2608D01*
X99306Y2670D01*
X99319Y2734D01*
X99328Y2797D01*
X99333Y2862D01*
X99335Y2926D01*
X99221Y2428D02*
X99209Y2398D01*
X99193Y2370D01*
X99175Y2344D01*
X99154Y2320D01*
X99130Y2299D01*
X99104Y2280D01*
X99076Y2264D01*
X99046Y2252D01*
X99016Y2243D01*
X98984Y2238D01*
X98952Y2236D01*
X98645Y2543D02*
X99259Y3310D01*
X99809Y3424D02*
X99782Y3366D01*
X99759Y3305D01*
X99739Y3244D01*
X99723Y3182D01*
X99710Y3118D01*
X99701Y3055D01*
X99696Y2990D01*
X99694Y2926D01*
X99808Y3425D02*
X99820Y3455D01*
X99836Y3483D01*
X99854Y3509D01*
X99875Y3533D01*
X99899Y3554D01*
X99925Y3573D01*
X99953Y3589D01*
X99983Y3601D01*
X100013Y3610D01*
X100045Y3615D01*
X100077Y3617D01*
X100109Y3615D01*
X100141Y3610D01*
X100171Y3601D01*
X100201Y3589D01*
X100229Y3573D01*
X100255Y3554D01*
X100279Y3533D01*
X100300Y3509D01*
X100318Y3483D01*
X100334Y3455D01*
X100346Y3425D01*
X100345Y3424D02*
X100372Y3366D01*
X100395Y3305D01*
X100415Y3244D01*
X100431Y3182D01*
X100444Y3118D01*
X100453Y3055D01*
X100458Y2990D01*
X100460Y2926D01*
X99694Y2926D02*
X99696Y2862D01*
X99701Y2797D01*
X99710Y2734D01*
X99723Y2670D01*
X99739Y2608D01*
X99759Y2547D01*
X99782Y2486D01*
X99809Y2428D01*
X99808Y2428D02*
X99820Y2398D01*
X99836Y2370D01*
X99854Y2344D01*
X99875Y2320D01*
X99899Y2299D01*
X99925Y2280D01*
X99953Y2264D01*
X99983Y2252D01*
X100013Y2243D01*
X100045Y2238D01*
X100077Y2236D01*
X100345Y2428D02*
X100372Y2486D01*
X100395Y2547D01*
X100415Y2608D01*
X100431Y2670D01*
X100444Y2734D01*
X100453Y2797D01*
X100458Y2862D01*
X100460Y2926D01*
X100346Y2428D02*
X100334Y2398D01*
X100318Y2370D01*
X100300Y2344D01*
X100279Y2320D01*
X100255Y2299D01*
X100229Y2280D01*
X100201Y2264D01*
X100171Y2252D01*
X100141Y2243D01*
X100109Y2238D01*
X100077Y2236D01*
X99770Y2543D02*
X100384Y3310D01*
X100826Y2313D02*
X100826Y2236D01*
X100826Y2313D02*
X100903Y2313D01*
X100903Y2236D01*
X100826Y2236D01*
X101269Y2926D02*
X101271Y2990D01*
X101276Y3055D01*
X101285Y3118D01*
X101298Y3182D01*
X101314Y3244D01*
X101334Y3305D01*
X101357Y3366D01*
X101384Y3424D01*
X101383Y3425D02*
X101395Y3455D01*
X101411Y3483D01*
X101429Y3509D01*
X101450Y3533D01*
X101474Y3554D01*
X101500Y3573D01*
X101528Y3589D01*
X101558Y3601D01*
X101588Y3610D01*
X101620Y3615D01*
X101652Y3617D01*
X101684Y3615D01*
X101716Y3610D01*
X101746Y3601D01*
X101776Y3589D01*
X101804Y3573D01*
X101830Y3554D01*
X101854Y3533D01*
X101875Y3509D01*
X101893Y3483D01*
X101909Y3455D01*
X101921Y3425D01*
X101920Y3424D02*
X101947Y3366D01*
X101970Y3305D01*
X101990Y3244D01*
X102006Y3182D01*
X102019Y3118D01*
X102028Y3055D01*
X102033Y2990D01*
X102035Y2926D01*
X101269Y2926D02*
X101271Y2862D01*
X101276Y2797D01*
X101285Y2734D01*
X101298Y2670D01*
X101314Y2608D01*
X101334Y2547D01*
X101357Y2486D01*
X101384Y2428D01*
X101383Y2428D02*
X101395Y2398D01*
X101411Y2370D01*
X101429Y2344D01*
X101450Y2320D01*
X101474Y2299D01*
X101500Y2280D01*
X101528Y2264D01*
X101558Y2252D01*
X101588Y2243D01*
X101620Y2238D01*
X101652Y2236D01*
X101920Y2428D02*
X101947Y2486D01*
X101970Y2547D01*
X101990Y2608D01*
X102006Y2670D01*
X102019Y2734D01*
X102028Y2797D01*
X102033Y2862D01*
X102035Y2926D01*
X101921Y2428D02*
X101909Y2398D01*
X101893Y2370D01*
X101875Y2344D01*
X101854Y2320D01*
X101830Y2299D01*
X101804Y2280D01*
X101776Y2264D01*
X101746Y2252D01*
X101716Y2243D01*
X101684Y2238D01*
X101652Y2236D01*
X101345Y2543D02*
X101959Y3310D01*
X102509Y3424D02*
X102482Y3366D01*
X102459Y3305D01*
X102439Y3244D01*
X102423Y3182D01*
X102410Y3118D01*
X102401Y3055D01*
X102396Y2990D01*
X102394Y2926D01*
X102508Y3425D02*
X102520Y3455D01*
X102536Y3483D01*
X102554Y3509D01*
X102575Y3533D01*
X102599Y3554D01*
X102625Y3573D01*
X102653Y3589D01*
X102683Y3601D01*
X102713Y3610D01*
X102745Y3615D01*
X102777Y3617D01*
X102809Y3615D01*
X102841Y3610D01*
X102871Y3601D01*
X102901Y3589D01*
X102929Y3573D01*
X102955Y3554D01*
X102979Y3533D01*
X103000Y3509D01*
X103018Y3483D01*
X103034Y3455D01*
X103046Y3425D01*
X103045Y3424D02*
X103072Y3366D01*
X103095Y3305D01*
X103115Y3244D01*
X103131Y3182D01*
X103144Y3118D01*
X103153Y3055D01*
X103158Y2990D01*
X103160Y2926D01*
X102394Y2926D02*
X102396Y2862D01*
X102401Y2797D01*
X102410Y2734D01*
X102423Y2670D01*
X102439Y2608D01*
X102459Y2547D01*
X102482Y2486D01*
X102509Y2428D01*
X102508Y2428D02*
X102520Y2398D01*
X102536Y2370D01*
X102554Y2344D01*
X102575Y2320D01*
X102599Y2299D01*
X102625Y2280D01*
X102653Y2264D01*
X102683Y2252D01*
X102713Y2243D01*
X102745Y2238D01*
X102777Y2236D01*
X103045Y2428D02*
X103072Y2486D01*
X103095Y2547D01*
X103115Y2608D01*
X103131Y2670D01*
X103144Y2734D01*
X103153Y2797D01*
X103158Y2862D01*
X103160Y2926D01*
X103046Y2428D02*
X103034Y2398D01*
X103018Y2370D01*
X103000Y2344D01*
X102979Y2320D01*
X102955Y2299D01*
X102929Y2280D01*
X102901Y2264D01*
X102871Y2252D01*
X102841Y2243D01*
X102809Y2238D01*
X102777Y2236D01*
X102470Y2543D02*
X103084Y3310D01*
X103555Y3156D02*
X103555Y2236D01*
X103555Y3156D02*
X104245Y3156D01*
X104273Y3154D01*
X104300Y3149D01*
X104327Y3141D01*
X104352Y3130D01*
X104376Y3115D01*
X104398Y3098D01*
X104417Y3079D01*
X104434Y3057D01*
X104449Y3033D01*
X104460Y3008D01*
X104468Y2981D01*
X104473Y2954D01*
X104475Y2926D01*
X104475Y2236D01*
X104015Y2236D02*
X104015Y3156D01*
X104915Y3156D02*
X104915Y2236D01*
X104876Y3540D02*
X104876Y3616D01*
X104953Y3616D01*
X104953Y3540D01*
X104876Y3540D01*
X105361Y3616D02*
X105361Y2466D01*
X105363Y2438D01*
X105368Y2411D01*
X105376Y2384D01*
X105387Y2359D01*
X105402Y2335D01*
X105419Y2313D01*
X105438Y2294D01*
X105460Y2277D01*
X105484Y2262D01*
X105509Y2251D01*
X105536Y2243D01*
X105563Y2238D01*
X105591Y2236D01*
D11*
X1507Y41945D02*
X1509Y41993D01*
X1515Y42041D01*
X1525Y42088D01*
X1538Y42134D01*
X1556Y42179D01*
X1576Y42223D01*
X1601Y42265D01*
X1629Y42304D01*
X1659Y42341D01*
X1693Y42375D01*
X1730Y42407D01*
X1768Y42436D01*
X1809Y42461D01*
X1852Y42483D01*
X1897Y42501D01*
X1943Y42515D01*
X1990Y42526D01*
X2038Y42533D01*
X2086Y42536D01*
X2134Y42535D01*
X2182Y42530D01*
X2230Y42521D01*
X2276Y42509D01*
X2321Y42492D01*
X2365Y42472D01*
X2407Y42449D01*
X2447Y42422D01*
X2485Y42392D01*
X2520Y42359D01*
X2552Y42323D01*
X2582Y42285D01*
X2608Y42244D01*
X2630Y42201D01*
X2650Y42157D01*
X2665Y42112D01*
X2677Y42065D01*
X2685Y42017D01*
X2689Y41969D01*
X2689Y41921D01*
X2685Y41873D01*
X2677Y41825D01*
X2665Y41778D01*
X2650Y41733D01*
X2630Y41689D01*
X2608Y41646D01*
X2582Y41605D01*
X2552Y41567D01*
X2520Y41531D01*
X2485Y41498D01*
X2447Y41468D01*
X2407Y41441D01*
X2365Y41418D01*
X2321Y41398D01*
X2276Y41381D01*
X2230Y41369D01*
X2182Y41360D01*
X2134Y41355D01*
X2086Y41354D01*
X2038Y41357D01*
X1990Y41364D01*
X1943Y41375D01*
X1897Y41389D01*
X1852Y41407D01*
X1809Y41429D01*
X1768Y41454D01*
X1730Y41483D01*
X1693Y41515D01*
X1659Y41549D01*
X1629Y41586D01*
X1601Y41625D01*
X1576Y41667D01*
X1556Y41711D01*
X1538Y41756D01*
X1525Y41802D01*
X1515Y41849D01*
X1509Y41897D01*
X1507Y41945D01*
X1507Y20055D02*
X1509Y20103D01*
X1515Y20151D01*
X1525Y20198D01*
X1538Y20244D01*
X1556Y20289D01*
X1576Y20333D01*
X1601Y20375D01*
X1629Y20414D01*
X1659Y20451D01*
X1693Y20485D01*
X1730Y20517D01*
X1768Y20546D01*
X1809Y20571D01*
X1852Y20593D01*
X1897Y20611D01*
X1943Y20625D01*
X1990Y20636D01*
X2038Y20643D01*
X2086Y20646D01*
X2134Y20645D01*
X2182Y20640D01*
X2230Y20631D01*
X2276Y20619D01*
X2321Y20602D01*
X2365Y20582D01*
X2407Y20559D01*
X2447Y20532D01*
X2485Y20502D01*
X2520Y20469D01*
X2552Y20433D01*
X2582Y20395D01*
X2608Y20354D01*
X2630Y20311D01*
X2650Y20267D01*
X2665Y20222D01*
X2677Y20175D01*
X2685Y20127D01*
X2689Y20079D01*
X2689Y20031D01*
X2685Y19983D01*
X2677Y19935D01*
X2665Y19888D01*
X2650Y19843D01*
X2630Y19799D01*
X2608Y19756D01*
X2582Y19715D01*
X2552Y19677D01*
X2520Y19641D01*
X2485Y19608D01*
X2447Y19578D01*
X2407Y19551D01*
X2365Y19528D01*
X2321Y19508D01*
X2276Y19491D01*
X2230Y19479D01*
X2182Y19470D01*
X2134Y19465D01*
X2086Y19464D01*
X2038Y19467D01*
X1990Y19474D01*
X1943Y19485D01*
X1897Y19499D01*
X1852Y19517D01*
X1809Y19539D01*
X1768Y19564D01*
X1730Y19593D01*
X1693Y19625D01*
X1659Y19659D01*
X1629Y19696D01*
X1601Y19735D01*
X1576Y19777D01*
X1556Y19821D01*
X1538Y19866D01*
X1525Y19912D01*
X1515Y19959D01*
X1509Y20007D01*
X1507Y20055D01*
X61811Y56016D02*
X61813Y56064D01*
X61819Y56112D01*
X61829Y56159D01*
X61842Y56205D01*
X61860Y56250D01*
X61880Y56294D01*
X61905Y56336D01*
X61933Y56375D01*
X61963Y56412D01*
X61997Y56446D01*
X62034Y56478D01*
X62072Y56507D01*
X62113Y56532D01*
X62156Y56554D01*
X62201Y56572D01*
X62247Y56586D01*
X62294Y56597D01*
X62342Y56604D01*
X62390Y56607D01*
X62438Y56606D01*
X62486Y56601D01*
X62534Y56592D01*
X62580Y56580D01*
X62625Y56563D01*
X62669Y56543D01*
X62711Y56520D01*
X62751Y56493D01*
X62789Y56463D01*
X62824Y56430D01*
X62856Y56394D01*
X62886Y56356D01*
X62912Y56315D01*
X62934Y56272D01*
X62954Y56228D01*
X62969Y56183D01*
X62981Y56136D01*
X62989Y56088D01*
X62993Y56040D01*
X62993Y55992D01*
X62989Y55944D01*
X62981Y55896D01*
X62969Y55849D01*
X62954Y55804D01*
X62934Y55760D01*
X62912Y55717D01*
X62886Y55676D01*
X62856Y55638D01*
X62824Y55602D01*
X62789Y55569D01*
X62751Y55539D01*
X62711Y55512D01*
X62669Y55489D01*
X62625Y55469D01*
X62580Y55452D01*
X62534Y55440D01*
X62486Y55431D01*
X62438Y55426D01*
X62390Y55425D01*
X62342Y55428D01*
X62294Y55435D01*
X62247Y55446D01*
X62201Y55460D01*
X62156Y55478D01*
X62113Y55500D01*
X62072Y55525D01*
X62034Y55554D01*
X61997Y55586D01*
X61963Y55620D01*
X61933Y55657D01*
X61905Y55696D01*
X61880Y55738D01*
X61860Y55782D01*
X61842Y55827D01*
X61829Y55873D01*
X61819Y55920D01*
X61813Y55968D01*
X61811Y56016D01*
X61811Y67984D02*
X61813Y68032D01*
X61819Y68080D01*
X61829Y68127D01*
X61842Y68173D01*
X61860Y68218D01*
X61880Y68262D01*
X61905Y68304D01*
X61933Y68343D01*
X61963Y68380D01*
X61997Y68414D01*
X62034Y68446D01*
X62072Y68475D01*
X62113Y68500D01*
X62156Y68522D01*
X62201Y68540D01*
X62247Y68554D01*
X62294Y68565D01*
X62342Y68572D01*
X62390Y68575D01*
X62438Y68574D01*
X62486Y68569D01*
X62534Y68560D01*
X62580Y68548D01*
X62625Y68531D01*
X62669Y68511D01*
X62711Y68488D01*
X62751Y68461D01*
X62789Y68431D01*
X62824Y68398D01*
X62856Y68362D01*
X62886Y68324D01*
X62912Y68283D01*
X62934Y68240D01*
X62954Y68196D01*
X62969Y68151D01*
X62981Y68104D01*
X62989Y68056D01*
X62993Y68008D01*
X62993Y67960D01*
X62989Y67912D01*
X62981Y67864D01*
X62969Y67817D01*
X62954Y67772D01*
X62934Y67728D01*
X62912Y67685D01*
X62886Y67644D01*
X62856Y67606D01*
X62824Y67570D01*
X62789Y67537D01*
X62751Y67507D01*
X62711Y67480D01*
X62669Y67457D01*
X62625Y67437D01*
X62580Y67420D01*
X62534Y67408D01*
X62486Y67399D01*
X62438Y67394D01*
X62390Y67393D01*
X62342Y67396D01*
X62294Y67403D01*
X62247Y67414D01*
X62201Y67428D01*
X62156Y67446D01*
X62113Y67468D01*
X62072Y67493D01*
X62034Y67522D01*
X61997Y67554D01*
X61963Y67588D01*
X61933Y67625D01*
X61905Y67664D01*
X61880Y67706D01*
X61860Y67750D01*
X61842Y67795D01*
X61829Y67841D01*
X61819Y67888D01*
X61813Y67936D01*
X61811Y67984D01*
X1507Y71945D02*
X1509Y71993D01*
X1515Y72041D01*
X1525Y72088D01*
X1538Y72134D01*
X1556Y72179D01*
X1576Y72223D01*
X1601Y72265D01*
X1629Y72304D01*
X1659Y72341D01*
X1693Y72375D01*
X1730Y72407D01*
X1768Y72436D01*
X1809Y72461D01*
X1852Y72483D01*
X1897Y72501D01*
X1943Y72515D01*
X1990Y72526D01*
X2038Y72533D01*
X2086Y72536D01*
X2134Y72535D01*
X2182Y72530D01*
X2230Y72521D01*
X2276Y72509D01*
X2321Y72492D01*
X2365Y72472D01*
X2407Y72449D01*
X2447Y72422D01*
X2485Y72392D01*
X2520Y72359D01*
X2552Y72323D01*
X2582Y72285D01*
X2608Y72244D01*
X2630Y72201D01*
X2650Y72157D01*
X2665Y72112D01*
X2677Y72065D01*
X2685Y72017D01*
X2689Y71969D01*
X2689Y71921D01*
X2685Y71873D01*
X2677Y71825D01*
X2665Y71778D01*
X2650Y71733D01*
X2630Y71689D01*
X2608Y71646D01*
X2582Y71605D01*
X2552Y71567D01*
X2520Y71531D01*
X2485Y71498D01*
X2447Y71468D01*
X2407Y71441D01*
X2365Y71418D01*
X2321Y71398D01*
X2276Y71381D01*
X2230Y71369D01*
X2182Y71360D01*
X2134Y71355D01*
X2086Y71354D01*
X2038Y71357D01*
X1990Y71364D01*
X1943Y71375D01*
X1897Y71389D01*
X1852Y71407D01*
X1809Y71429D01*
X1768Y71454D01*
X1730Y71483D01*
X1693Y71515D01*
X1659Y71549D01*
X1629Y71586D01*
X1601Y71625D01*
X1576Y71667D01*
X1556Y71711D01*
X1538Y71756D01*
X1525Y71802D01*
X1515Y71849D01*
X1509Y71897D01*
X1507Y71945D01*
X1507Y50055D02*
X1509Y50103D01*
X1515Y50151D01*
X1525Y50198D01*
X1538Y50244D01*
X1556Y50289D01*
X1576Y50333D01*
X1601Y50375D01*
X1629Y50414D01*
X1659Y50451D01*
X1693Y50485D01*
X1730Y50517D01*
X1768Y50546D01*
X1809Y50571D01*
X1852Y50593D01*
X1897Y50611D01*
X1943Y50625D01*
X1990Y50636D01*
X2038Y50643D01*
X2086Y50646D01*
X2134Y50645D01*
X2182Y50640D01*
X2230Y50631D01*
X2276Y50619D01*
X2321Y50602D01*
X2365Y50582D01*
X2407Y50559D01*
X2447Y50532D01*
X2485Y50502D01*
X2520Y50469D01*
X2552Y50433D01*
X2582Y50395D01*
X2608Y50354D01*
X2630Y50311D01*
X2650Y50267D01*
X2665Y50222D01*
X2677Y50175D01*
X2685Y50127D01*
X2689Y50079D01*
X2689Y50031D01*
X2685Y49983D01*
X2677Y49935D01*
X2665Y49888D01*
X2650Y49843D01*
X2630Y49799D01*
X2608Y49756D01*
X2582Y49715D01*
X2552Y49677D01*
X2520Y49641D01*
X2485Y49608D01*
X2447Y49578D01*
X2407Y49551D01*
X2365Y49528D01*
X2321Y49508D01*
X2276Y49491D01*
X2230Y49479D01*
X2182Y49470D01*
X2134Y49465D01*
X2086Y49464D01*
X2038Y49467D01*
X1990Y49474D01*
X1943Y49485D01*
X1897Y49499D01*
X1852Y49517D01*
X1809Y49539D01*
X1768Y49564D01*
X1730Y49593D01*
X1693Y49625D01*
X1659Y49659D01*
X1629Y49696D01*
X1601Y49735D01*
X1576Y49777D01*
X1556Y49821D01*
X1538Y49866D01*
X1525Y49912D01*
X1515Y49959D01*
X1509Y50007D01*
X1507Y50055D01*
X32311Y56016D02*
X32313Y56064D01*
X32319Y56112D01*
X32329Y56159D01*
X32342Y56205D01*
X32360Y56250D01*
X32380Y56294D01*
X32405Y56336D01*
X32433Y56375D01*
X32463Y56412D01*
X32497Y56446D01*
X32534Y56478D01*
X32572Y56507D01*
X32613Y56532D01*
X32656Y56554D01*
X32701Y56572D01*
X32747Y56586D01*
X32794Y56597D01*
X32842Y56604D01*
X32890Y56607D01*
X32938Y56606D01*
X32986Y56601D01*
X33034Y56592D01*
X33080Y56580D01*
X33125Y56563D01*
X33169Y56543D01*
X33211Y56520D01*
X33251Y56493D01*
X33289Y56463D01*
X33324Y56430D01*
X33356Y56394D01*
X33386Y56356D01*
X33412Y56315D01*
X33434Y56272D01*
X33454Y56228D01*
X33469Y56183D01*
X33481Y56136D01*
X33489Y56088D01*
X33493Y56040D01*
X33493Y55992D01*
X33489Y55944D01*
X33481Y55896D01*
X33469Y55849D01*
X33454Y55804D01*
X33434Y55760D01*
X33412Y55717D01*
X33386Y55676D01*
X33356Y55638D01*
X33324Y55602D01*
X33289Y55569D01*
X33251Y55539D01*
X33211Y55512D01*
X33169Y55489D01*
X33125Y55469D01*
X33080Y55452D01*
X33034Y55440D01*
X32986Y55431D01*
X32938Y55426D01*
X32890Y55425D01*
X32842Y55428D01*
X32794Y55435D01*
X32747Y55446D01*
X32701Y55460D01*
X32656Y55478D01*
X32613Y55500D01*
X32572Y55525D01*
X32534Y55554D01*
X32497Y55586D01*
X32463Y55620D01*
X32433Y55657D01*
X32405Y55696D01*
X32380Y55738D01*
X32360Y55782D01*
X32342Y55827D01*
X32329Y55873D01*
X32319Y55920D01*
X32313Y55968D01*
X32311Y56016D01*
X32311Y67984D02*
X32313Y68032D01*
X32319Y68080D01*
X32329Y68127D01*
X32342Y68173D01*
X32360Y68218D01*
X32380Y68262D01*
X32405Y68304D01*
X32433Y68343D01*
X32463Y68380D01*
X32497Y68414D01*
X32534Y68446D01*
X32572Y68475D01*
X32613Y68500D01*
X32656Y68522D01*
X32701Y68540D01*
X32747Y68554D01*
X32794Y68565D01*
X32842Y68572D01*
X32890Y68575D01*
X32938Y68574D01*
X32986Y68569D01*
X33034Y68560D01*
X33080Y68548D01*
X33125Y68531D01*
X33169Y68511D01*
X33211Y68488D01*
X33251Y68461D01*
X33289Y68431D01*
X33324Y68398D01*
X33356Y68362D01*
X33386Y68324D01*
X33412Y68283D01*
X33434Y68240D01*
X33454Y68196D01*
X33469Y68151D01*
X33481Y68104D01*
X33489Y68056D01*
X33493Y68008D01*
X33493Y67960D01*
X33489Y67912D01*
X33481Y67864D01*
X33469Y67817D01*
X33454Y67772D01*
X33434Y67728D01*
X33412Y67685D01*
X33386Y67644D01*
X33356Y67606D01*
X33324Y67570D01*
X33289Y67537D01*
X33251Y67507D01*
X33211Y67480D01*
X33169Y67457D01*
X33125Y67437D01*
X33080Y67420D01*
X33034Y67408D01*
X32986Y67399D01*
X32938Y67394D01*
X32890Y67393D01*
X32842Y67396D01*
X32794Y67403D01*
X32747Y67414D01*
X32701Y67428D01*
X32656Y67446D01*
X32613Y67468D01*
X32572Y67493D01*
X32534Y67522D01*
X32497Y67554D01*
X32463Y67588D01*
X32433Y67625D01*
X32405Y67664D01*
X32380Y67706D01*
X32360Y67750D01*
X32342Y67795D01*
X32329Y67841D01*
X32319Y67888D01*
X32313Y67936D01*
X32311Y67984D01*
X132232Y21098D02*
X132234Y21146D01*
X132240Y21194D01*
X132250Y21241D01*
X132263Y21287D01*
X132281Y21332D01*
X132301Y21376D01*
X132326Y21418D01*
X132354Y21457D01*
X132384Y21494D01*
X132418Y21528D01*
X132455Y21560D01*
X132493Y21589D01*
X132534Y21614D01*
X132577Y21636D01*
X132622Y21654D01*
X132668Y21668D01*
X132715Y21679D01*
X132763Y21686D01*
X132811Y21689D01*
X132859Y21688D01*
X132907Y21683D01*
X132955Y21674D01*
X133001Y21662D01*
X133046Y21645D01*
X133090Y21625D01*
X133132Y21602D01*
X133172Y21575D01*
X133210Y21545D01*
X133245Y21512D01*
X133277Y21476D01*
X133307Y21438D01*
X133333Y21397D01*
X133355Y21354D01*
X133375Y21310D01*
X133390Y21265D01*
X133402Y21218D01*
X133410Y21170D01*
X133414Y21122D01*
X133414Y21074D01*
X133410Y21026D01*
X133402Y20978D01*
X133390Y20931D01*
X133375Y20886D01*
X133355Y20842D01*
X133333Y20799D01*
X133307Y20758D01*
X133277Y20720D01*
X133245Y20684D01*
X133210Y20651D01*
X133172Y20621D01*
X133132Y20594D01*
X133090Y20571D01*
X133046Y20551D01*
X133001Y20534D01*
X132955Y20522D01*
X132907Y20513D01*
X132859Y20508D01*
X132811Y20507D01*
X132763Y20510D01*
X132715Y20517D01*
X132668Y20528D01*
X132622Y20542D01*
X132577Y20560D01*
X132534Y20582D01*
X132493Y20607D01*
X132455Y20636D01*
X132418Y20668D01*
X132384Y20702D01*
X132354Y20739D01*
X132326Y20778D01*
X132301Y20820D01*
X132281Y20864D01*
X132263Y20909D01*
X132250Y20955D01*
X132240Y21002D01*
X132234Y21050D01*
X132232Y21098D01*
X137586Y21098D02*
X137588Y21146D01*
X137594Y21194D01*
X137604Y21241D01*
X137617Y21287D01*
X137635Y21332D01*
X137655Y21376D01*
X137680Y21418D01*
X137708Y21457D01*
X137738Y21494D01*
X137772Y21528D01*
X137809Y21560D01*
X137847Y21589D01*
X137888Y21614D01*
X137931Y21636D01*
X137976Y21654D01*
X138022Y21668D01*
X138069Y21679D01*
X138117Y21686D01*
X138165Y21689D01*
X138213Y21688D01*
X138261Y21683D01*
X138309Y21674D01*
X138355Y21662D01*
X138400Y21645D01*
X138444Y21625D01*
X138486Y21602D01*
X138526Y21575D01*
X138564Y21545D01*
X138599Y21512D01*
X138631Y21476D01*
X138661Y21438D01*
X138687Y21397D01*
X138709Y21354D01*
X138729Y21310D01*
X138744Y21265D01*
X138756Y21218D01*
X138764Y21170D01*
X138768Y21122D01*
X138768Y21074D01*
X138764Y21026D01*
X138756Y20978D01*
X138744Y20931D01*
X138729Y20886D01*
X138709Y20842D01*
X138687Y20799D01*
X138661Y20758D01*
X138631Y20720D01*
X138599Y20684D01*
X138564Y20651D01*
X138526Y20621D01*
X138486Y20594D01*
X138444Y20571D01*
X138400Y20551D01*
X138355Y20534D01*
X138309Y20522D01*
X138261Y20513D01*
X138213Y20508D01*
X138165Y20507D01*
X138117Y20510D01*
X138069Y20517D01*
X138022Y20528D01*
X137976Y20542D01*
X137931Y20560D01*
X137888Y20582D01*
X137847Y20607D01*
X137809Y20636D01*
X137772Y20668D01*
X137738Y20702D01*
X137708Y20739D01*
X137680Y20778D01*
X137655Y20820D01*
X137635Y20864D01*
X137617Y20909D01*
X137604Y20955D01*
X137594Y21002D01*
X137588Y21050D01*
X137586Y21098D01*
X123732Y14098D02*
X123734Y14146D01*
X123740Y14194D01*
X123750Y14241D01*
X123763Y14287D01*
X123781Y14332D01*
X123801Y14376D01*
X123826Y14418D01*
X123854Y14457D01*
X123884Y14494D01*
X123918Y14528D01*
X123955Y14560D01*
X123993Y14589D01*
X124034Y14614D01*
X124077Y14636D01*
X124122Y14654D01*
X124168Y14668D01*
X124215Y14679D01*
X124263Y14686D01*
X124311Y14689D01*
X124359Y14688D01*
X124407Y14683D01*
X124455Y14674D01*
X124501Y14662D01*
X124546Y14645D01*
X124590Y14625D01*
X124632Y14602D01*
X124672Y14575D01*
X124710Y14545D01*
X124745Y14512D01*
X124777Y14476D01*
X124807Y14438D01*
X124833Y14397D01*
X124855Y14354D01*
X124875Y14310D01*
X124890Y14265D01*
X124902Y14218D01*
X124910Y14170D01*
X124914Y14122D01*
X124914Y14074D01*
X124910Y14026D01*
X124902Y13978D01*
X124890Y13931D01*
X124875Y13886D01*
X124855Y13842D01*
X124833Y13799D01*
X124807Y13758D01*
X124777Y13720D01*
X124745Y13684D01*
X124710Y13651D01*
X124672Y13621D01*
X124632Y13594D01*
X124590Y13571D01*
X124546Y13551D01*
X124501Y13534D01*
X124455Y13522D01*
X124407Y13513D01*
X124359Y13508D01*
X124311Y13507D01*
X124263Y13510D01*
X124215Y13517D01*
X124168Y13528D01*
X124122Y13542D01*
X124077Y13560D01*
X124034Y13582D01*
X123993Y13607D01*
X123955Y13636D01*
X123918Y13668D01*
X123884Y13702D01*
X123854Y13739D01*
X123826Y13778D01*
X123801Y13820D01*
X123781Y13864D01*
X123763Y13909D01*
X123750Y13955D01*
X123740Y14002D01*
X123734Y14050D01*
X123732Y14098D01*
X129086Y14098D02*
X129088Y14146D01*
X129094Y14194D01*
X129104Y14241D01*
X129117Y14287D01*
X129135Y14332D01*
X129155Y14376D01*
X129180Y14418D01*
X129208Y14457D01*
X129238Y14494D01*
X129272Y14528D01*
X129309Y14560D01*
X129347Y14589D01*
X129388Y14614D01*
X129431Y14636D01*
X129476Y14654D01*
X129522Y14668D01*
X129569Y14679D01*
X129617Y14686D01*
X129665Y14689D01*
X129713Y14688D01*
X129761Y14683D01*
X129809Y14674D01*
X129855Y14662D01*
X129900Y14645D01*
X129944Y14625D01*
X129986Y14602D01*
X130026Y14575D01*
X130064Y14545D01*
X130099Y14512D01*
X130131Y14476D01*
X130161Y14438D01*
X130187Y14397D01*
X130209Y14354D01*
X130229Y14310D01*
X130244Y14265D01*
X130256Y14218D01*
X130264Y14170D01*
X130268Y14122D01*
X130268Y14074D01*
X130264Y14026D01*
X130256Y13978D01*
X130244Y13931D01*
X130229Y13886D01*
X130209Y13842D01*
X130187Y13799D01*
X130161Y13758D01*
X130131Y13720D01*
X130099Y13684D01*
X130064Y13651D01*
X130026Y13621D01*
X129986Y13594D01*
X129944Y13571D01*
X129900Y13551D01*
X129855Y13534D01*
X129809Y13522D01*
X129761Y13513D01*
X129713Y13508D01*
X129665Y13507D01*
X129617Y13510D01*
X129569Y13517D01*
X129522Y13528D01*
X129476Y13542D01*
X129431Y13560D01*
X129388Y13582D01*
X129347Y13607D01*
X129309Y13636D01*
X129272Y13668D01*
X129238Y13702D01*
X129208Y13739D01*
X129180Y13778D01*
X129155Y13820D01*
X129135Y13864D01*
X129117Y13909D01*
X129104Y13955D01*
X129094Y14002D01*
X129088Y14050D01*
X129086Y14098D01*
X123732Y21098D02*
X123734Y21146D01*
X123740Y21194D01*
X123750Y21241D01*
X123763Y21287D01*
X123781Y21332D01*
X123801Y21376D01*
X123826Y21418D01*
X123854Y21457D01*
X123884Y21494D01*
X123918Y21528D01*
X123955Y21560D01*
X123993Y21589D01*
X124034Y21614D01*
X124077Y21636D01*
X124122Y21654D01*
X124168Y21668D01*
X124215Y21679D01*
X124263Y21686D01*
X124311Y21689D01*
X124359Y21688D01*
X124407Y21683D01*
X124455Y21674D01*
X124501Y21662D01*
X124546Y21645D01*
X124590Y21625D01*
X124632Y21602D01*
X124672Y21575D01*
X124710Y21545D01*
X124745Y21512D01*
X124777Y21476D01*
X124807Y21438D01*
X124833Y21397D01*
X124855Y21354D01*
X124875Y21310D01*
X124890Y21265D01*
X124902Y21218D01*
X124910Y21170D01*
X124914Y21122D01*
X124914Y21074D01*
X124910Y21026D01*
X124902Y20978D01*
X124890Y20931D01*
X124875Y20886D01*
X124855Y20842D01*
X124833Y20799D01*
X124807Y20758D01*
X124777Y20720D01*
X124745Y20684D01*
X124710Y20651D01*
X124672Y20621D01*
X124632Y20594D01*
X124590Y20571D01*
X124546Y20551D01*
X124501Y20534D01*
X124455Y20522D01*
X124407Y20513D01*
X124359Y20508D01*
X124311Y20507D01*
X124263Y20510D01*
X124215Y20517D01*
X124168Y20528D01*
X124122Y20542D01*
X124077Y20560D01*
X124034Y20582D01*
X123993Y20607D01*
X123955Y20636D01*
X123918Y20668D01*
X123884Y20702D01*
X123854Y20739D01*
X123826Y20778D01*
X123801Y20820D01*
X123781Y20864D01*
X123763Y20909D01*
X123750Y20955D01*
X123740Y21002D01*
X123734Y21050D01*
X123732Y21098D01*
X129086Y21098D02*
X129088Y21146D01*
X129094Y21194D01*
X129104Y21241D01*
X129117Y21287D01*
X129135Y21332D01*
X129155Y21376D01*
X129180Y21418D01*
X129208Y21457D01*
X129238Y21494D01*
X129272Y21528D01*
X129309Y21560D01*
X129347Y21589D01*
X129388Y21614D01*
X129431Y21636D01*
X129476Y21654D01*
X129522Y21668D01*
X129569Y21679D01*
X129617Y21686D01*
X129665Y21689D01*
X129713Y21688D01*
X129761Y21683D01*
X129809Y21674D01*
X129855Y21662D01*
X129900Y21645D01*
X129944Y21625D01*
X129986Y21602D01*
X130026Y21575D01*
X130064Y21545D01*
X130099Y21512D01*
X130131Y21476D01*
X130161Y21438D01*
X130187Y21397D01*
X130209Y21354D01*
X130229Y21310D01*
X130244Y21265D01*
X130256Y21218D01*
X130264Y21170D01*
X130268Y21122D01*
X130268Y21074D01*
X130264Y21026D01*
X130256Y20978D01*
X130244Y20931D01*
X130229Y20886D01*
X130209Y20842D01*
X130187Y20799D01*
X130161Y20758D01*
X130131Y20720D01*
X130099Y20684D01*
X130064Y20651D01*
X130026Y20621D01*
X129986Y20594D01*
X129944Y20571D01*
X129900Y20551D01*
X129855Y20534D01*
X129809Y20522D01*
X129761Y20513D01*
X129713Y20508D01*
X129665Y20507D01*
X129617Y20510D01*
X129569Y20517D01*
X129522Y20528D01*
X129476Y20542D01*
X129431Y20560D01*
X129388Y20582D01*
X129347Y20607D01*
X129309Y20636D01*
X129272Y20668D01*
X129238Y20702D01*
X129208Y20739D01*
X129180Y20778D01*
X129155Y20820D01*
X129135Y20864D01*
X129117Y20909D01*
X129104Y20955D01*
X129094Y21002D01*
X129088Y21050D01*
X129086Y21098D01*
X1507Y15157D02*
X1509Y15205D01*
X1515Y15253D01*
X1525Y15300D01*
X1538Y15346D01*
X1556Y15391D01*
X1576Y15435D01*
X1601Y15477D01*
X1629Y15516D01*
X1659Y15553D01*
X1693Y15587D01*
X1730Y15619D01*
X1768Y15648D01*
X1809Y15673D01*
X1852Y15695D01*
X1897Y15713D01*
X1943Y15727D01*
X1990Y15738D01*
X2038Y15745D01*
X2086Y15748D01*
X2134Y15747D01*
X2182Y15742D01*
X2230Y15733D01*
X2276Y15721D01*
X2321Y15704D01*
X2365Y15684D01*
X2407Y15661D01*
X2447Y15634D01*
X2485Y15604D01*
X2520Y15571D01*
X2552Y15535D01*
X2582Y15497D01*
X2608Y15456D01*
X2630Y15413D01*
X2650Y15369D01*
X2665Y15324D01*
X2677Y15277D01*
X2685Y15229D01*
X2689Y15181D01*
X2689Y15133D01*
X2685Y15085D01*
X2677Y15037D01*
X2665Y14990D01*
X2650Y14945D01*
X2630Y14901D01*
X2608Y14858D01*
X2582Y14817D01*
X2552Y14779D01*
X2520Y14743D01*
X2485Y14710D01*
X2447Y14680D01*
X2407Y14653D01*
X2365Y14630D01*
X2321Y14610D01*
X2276Y14593D01*
X2230Y14581D01*
X2182Y14572D01*
X2134Y14567D01*
X2086Y14566D01*
X2038Y14569D01*
X1990Y14576D01*
X1943Y14587D01*
X1897Y14601D01*
X1852Y14619D01*
X1809Y14641D01*
X1768Y14666D01*
X1730Y14695D01*
X1693Y14727D01*
X1659Y14761D01*
X1629Y14798D01*
X1601Y14837D01*
X1576Y14879D01*
X1556Y14923D01*
X1538Y14968D01*
X1525Y15014D01*
X1515Y15061D01*
X1509Y15109D01*
X1507Y15157D01*
X1507Y4843D02*
X1509Y4891D01*
X1515Y4939D01*
X1525Y4986D01*
X1538Y5032D01*
X1556Y5077D01*
X1576Y5121D01*
X1601Y5163D01*
X1629Y5202D01*
X1659Y5239D01*
X1693Y5273D01*
X1730Y5305D01*
X1768Y5334D01*
X1809Y5359D01*
X1852Y5381D01*
X1897Y5399D01*
X1943Y5413D01*
X1990Y5424D01*
X2038Y5431D01*
X2086Y5434D01*
X2134Y5433D01*
X2182Y5428D01*
X2230Y5419D01*
X2276Y5407D01*
X2321Y5390D01*
X2365Y5370D01*
X2407Y5347D01*
X2447Y5320D01*
X2485Y5290D01*
X2520Y5257D01*
X2552Y5221D01*
X2582Y5183D01*
X2608Y5142D01*
X2630Y5099D01*
X2650Y5055D01*
X2665Y5010D01*
X2677Y4963D01*
X2685Y4915D01*
X2689Y4867D01*
X2689Y4819D01*
X2685Y4771D01*
X2677Y4723D01*
X2665Y4676D01*
X2650Y4631D01*
X2630Y4587D01*
X2608Y4544D01*
X2582Y4503D01*
X2552Y4465D01*
X2520Y4429D01*
X2485Y4396D01*
X2447Y4366D01*
X2407Y4339D01*
X2365Y4316D01*
X2321Y4296D01*
X2276Y4279D01*
X2230Y4267D01*
X2182Y4258D01*
X2134Y4253D01*
X2086Y4252D01*
X2038Y4255D01*
X1990Y4262D01*
X1943Y4273D01*
X1897Y4287D01*
X1852Y4305D01*
X1809Y4327D01*
X1768Y4352D01*
X1730Y4381D01*
X1693Y4413D01*
X1659Y4447D01*
X1629Y4484D01*
X1601Y4523D01*
X1576Y4565D01*
X1556Y4609D01*
X1538Y4654D01*
X1525Y4700D01*
X1515Y4747D01*
X1509Y4795D01*
X1507Y4843D01*
X132232Y14098D02*
X132234Y14146D01*
X132240Y14194D01*
X132250Y14241D01*
X132263Y14287D01*
X132281Y14332D01*
X132301Y14376D01*
X132326Y14418D01*
X132354Y14457D01*
X132384Y14494D01*
X132418Y14528D01*
X132455Y14560D01*
X132493Y14589D01*
X132534Y14614D01*
X132577Y14636D01*
X132622Y14654D01*
X132668Y14668D01*
X132715Y14679D01*
X132763Y14686D01*
X132811Y14689D01*
X132859Y14688D01*
X132907Y14683D01*
X132955Y14674D01*
X133001Y14662D01*
X133046Y14645D01*
X133090Y14625D01*
X133132Y14602D01*
X133172Y14575D01*
X133210Y14545D01*
X133245Y14512D01*
X133277Y14476D01*
X133307Y14438D01*
X133333Y14397D01*
X133355Y14354D01*
X133375Y14310D01*
X133390Y14265D01*
X133402Y14218D01*
X133410Y14170D01*
X133414Y14122D01*
X133414Y14074D01*
X133410Y14026D01*
X133402Y13978D01*
X133390Y13931D01*
X133375Y13886D01*
X133355Y13842D01*
X133333Y13799D01*
X133307Y13758D01*
X133277Y13720D01*
X133245Y13684D01*
X133210Y13651D01*
X133172Y13621D01*
X133132Y13594D01*
X133090Y13571D01*
X133046Y13551D01*
X133001Y13534D01*
X132955Y13522D01*
X132907Y13513D01*
X132859Y13508D01*
X132811Y13507D01*
X132763Y13510D01*
X132715Y13517D01*
X132668Y13528D01*
X132622Y13542D01*
X132577Y13560D01*
X132534Y13582D01*
X132493Y13607D01*
X132455Y13636D01*
X132418Y13668D01*
X132384Y13702D01*
X132354Y13739D01*
X132326Y13778D01*
X132301Y13820D01*
X132281Y13864D01*
X132263Y13909D01*
X132250Y13955D01*
X132240Y14002D01*
X132234Y14050D01*
X132232Y14098D01*
X137586Y14098D02*
X137588Y14146D01*
X137594Y14194D01*
X137604Y14241D01*
X137617Y14287D01*
X137635Y14332D01*
X137655Y14376D01*
X137680Y14418D01*
X137708Y14457D01*
X137738Y14494D01*
X137772Y14528D01*
X137809Y14560D01*
X137847Y14589D01*
X137888Y14614D01*
X137931Y14636D01*
X137976Y14654D01*
X138022Y14668D01*
X138069Y14679D01*
X138117Y14686D01*
X138165Y14689D01*
X138213Y14688D01*
X138261Y14683D01*
X138309Y14674D01*
X138355Y14662D01*
X138400Y14645D01*
X138444Y14625D01*
X138486Y14602D01*
X138526Y14575D01*
X138564Y14545D01*
X138599Y14512D01*
X138631Y14476D01*
X138661Y14438D01*
X138687Y14397D01*
X138709Y14354D01*
X138729Y14310D01*
X138744Y14265D01*
X138756Y14218D01*
X138764Y14170D01*
X138768Y14122D01*
X138768Y14074D01*
X138764Y14026D01*
X138756Y13978D01*
X138744Y13931D01*
X138729Y13886D01*
X138709Y13842D01*
X138687Y13799D01*
X138661Y13758D01*
X138631Y13720D01*
X138599Y13684D01*
X138564Y13651D01*
X138526Y13621D01*
X138486Y13594D01*
X138444Y13571D01*
X138400Y13551D01*
X138355Y13534D01*
X138309Y13522D01*
X138261Y13513D01*
X138213Y13508D01*
X138165Y13507D01*
X138117Y13510D01*
X138069Y13517D01*
X138022Y13528D01*
X137976Y13542D01*
X137931Y13560D01*
X137888Y13582D01*
X137847Y13607D01*
X137809Y13636D01*
X137772Y13668D01*
X137738Y13702D01*
X137708Y13739D01*
X137680Y13778D01*
X137655Y13820D01*
X137635Y13864D01*
X137617Y13909D01*
X137604Y13955D01*
X137594Y14002D01*
X137588Y14050D01*
X137586Y14098D01*
X61811Y45496D02*
X61813Y45544D01*
X61819Y45592D01*
X61829Y45639D01*
X61842Y45685D01*
X61860Y45730D01*
X61880Y45774D01*
X61905Y45816D01*
X61933Y45855D01*
X61963Y45892D01*
X61997Y45926D01*
X62034Y45958D01*
X62072Y45987D01*
X62113Y46012D01*
X62156Y46034D01*
X62201Y46052D01*
X62247Y46066D01*
X62294Y46077D01*
X62342Y46084D01*
X62390Y46087D01*
X62438Y46086D01*
X62486Y46081D01*
X62534Y46072D01*
X62580Y46060D01*
X62625Y46043D01*
X62669Y46023D01*
X62711Y46000D01*
X62751Y45973D01*
X62789Y45943D01*
X62824Y45910D01*
X62856Y45874D01*
X62886Y45836D01*
X62912Y45795D01*
X62934Y45752D01*
X62954Y45708D01*
X62969Y45663D01*
X62981Y45616D01*
X62989Y45568D01*
X62993Y45520D01*
X62993Y45472D01*
X62989Y45424D01*
X62981Y45376D01*
X62969Y45329D01*
X62954Y45284D01*
X62934Y45240D01*
X62912Y45197D01*
X62886Y45156D01*
X62856Y45118D01*
X62824Y45082D01*
X62789Y45049D01*
X62751Y45019D01*
X62711Y44992D01*
X62669Y44969D01*
X62625Y44949D01*
X62580Y44932D01*
X62534Y44920D01*
X62486Y44911D01*
X62438Y44906D01*
X62390Y44905D01*
X62342Y44908D01*
X62294Y44915D01*
X62247Y44926D01*
X62201Y44940D01*
X62156Y44958D01*
X62113Y44980D01*
X62072Y45005D01*
X62034Y45034D01*
X61997Y45066D01*
X61963Y45100D01*
X61933Y45137D01*
X61905Y45176D01*
X61880Y45218D01*
X61860Y45262D01*
X61842Y45307D01*
X61829Y45353D01*
X61819Y45400D01*
X61813Y45448D01*
X61811Y45496D01*
X61811Y52504D02*
X61813Y52552D01*
X61819Y52600D01*
X61829Y52647D01*
X61842Y52693D01*
X61860Y52738D01*
X61880Y52782D01*
X61905Y52824D01*
X61933Y52863D01*
X61963Y52900D01*
X61997Y52934D01*
X62034Y52966D01*
X62072Y52995D01*
X62113Y53020D01*
X62156Y53042D01*
X62201Y53060D01*
X62247Y53074D01*
X62294Y53085D01*
X62342Y53092D01*
X62390Y53095D01*
X62438Y53094D01*
X62486Y53089D01*
X62534Y53080D01*
X62580Y53068D01*
X62625Y53051D01*
X62669Y53031D01*
X62711Y53008D01*
X62751Y52981D01*
X62789Y52951D01*
X62824Y52918D01*
X62856Y52882D01*
X62886Y52844D01*
X62912Y52803D01*
X62934Y52760D01*
X62954Y52716D01*
X62969Y52671D01*
X62981Y52624D01*
X62989Y52576D01*
X62993Y52528D01*
X62993Y52480D01*
X62989Y52432D01*
X62981Y52384D01*
X62969Y52337D01*
X62954Y52292D01*
X62934Y52248D01*
X62912Y52205D01*
X62886Y52164D01*
X62856Y52126D01*
X62824Y52090D01*
X62789Y52057D01*
X62751Y52027D01*
X62711Y52000D01*
X62669Y51977D01*
X62625Y51957D01*
X62580Y51940D01*
X62534Y51928D01*
X62486Y51919D01*
X62438Y51914D01*
X62390Y51913D01*
X62342Y51916D01*
X62294Y51923D01*
X62247Y51934D01*
X62201Y51948D01*
X62156Y51966D01*
X62113Y51988D01*
X62072Y52013D01*
X62034Y52042D01*
X61997Y52074D01*
X61963Y52108D01*
X61933Y52145D01*
X61905Y52184D01*
X61880Y52226D01*
X61860Y52270D01*
X61842Y52315D01*
X61829Y52361D01*
X61819Y52408D01*
X61813Y52456D01*
X61811Y52504D01*
X146811Y38650D02*
X146813Y38698D01*
X146819Y38746D01*
X146829Y38793D01*
X146842Y38839D01*
X146860Y38884D01*
X146880Y38928D01*
X146905Y38970D01*
X146933Y39009D01*
X146963Y39046D01*
X146997Y39080D01*
X147034Y39112D01*
X147072Y39141D01*
X147113Y39166D01*
X147156Y39188D01*
X147201Y39206D01*
X147247Y39220D01*
X147294Y39231D01*
X147342Y39238D01*
X147390Y39241D01*
X147438Y39240D01*
X147486Y39235D01*
X147534Y39226D01*
X147580Y39214D01*
X147625Y39197D01*
X147669Y39177D01*
X147711Y39154D01*
X147751Y39127D01*
X147789Y39097D01*
X147824Y39064D01*
X147856Y39028D01*
X147886Y38990D01*
X147912Y38949D01*
X147934Y38906D01*
X147954Y38862D01*
X147969Y38817D01*
X147981Y38770D01*
X147989Y38722D01*
X147993Y38674D01*
X147993Y38626D01*
X147989Y38578D01*
X147981Y38530D01*
X147969Y38483D01*
X147954Y38438D01*
X147934Y38394D01*
X147912Y38351D01*
X147886Y38310D01*
X147856Y38272D01*
X147824Y38236D01*
X147789Y38203D01*
X147751Y38173D01*
X147711Y38146D01*
X147669Y38123D01*
X147625Y38103D01*
X147580Y38086D01*
X147534Y38074D01*
X147486Y38065D01*
X147438Y38060D01*
X147390Y38059D01*
X147342Y38062D01*
X147294Y38069D01*
X147247Y38080D01*
X147201Y38094D01*
X147156Y38112D01*
X147113Y38134D01*
X147072Y38159D01*
X147034Y38188D01*
X146997Y38220D01*
X146963Y38254D01*
X146933Y38291D01*
X146905Y38330D01*
X146880Y38372D01*
X146860Y38416D01*
X146842Y38461D01*
X146829Y38507D01*
X146819Y38554D01*
X146813Y38602D01*
X146811Y38650D01*
X146811Y42350D02*
X146813Y42398D01*
X146819Y42446D01*
X146829Y42493D01*
X146842Y42539D01*
X146860Y42584D01*
X146880Y42628D01*
X146905Y42670D01*
X146933Y42709D01*
X146963Y42746D01*
X146997Y42780D01*
X147034Y42812D01*
X147072Y42841D01*
X147113Y42866D01*
X147156Y42888D01*
X147201Y42906D01*
X147247Y42920D01*
X147294Y42931D01*
X147342Y42938D01*
X147390Y42941D01*
X147438Y42940D01*
X147486Y42935D01*
X147534Y42926D01*
X147580Y42914D01*
X147625Y42897D01*
X147669Y42877D01*
X147711Y42854D01*
X147751Y42827D01*
X147789Y42797D01*
X147824Y42764D01*
X147856Y42728D01*
X147886Y42690D01*
X147912Y42649D01*
X147934Y42606D01*
X147954Y42562D01*
X147969Y42517D01*
X147981Y42470D01*
X147989Y42422D01*
X147993Y42374D01*
X147993Y42326D01*
X147989Y42278D01*
X147981Y42230D01*
X147969Y42183D01*
X147954Y42138D01*
X147934Y42094D01*
X147912Y42051D01*
X147886Y42010D01*
X147856Y41972D01*
X147824Y41936D01*
X147789Y41903D01*
X147751Y41873D01*
X147711Y41846D01*
X147669Y41823D01*
X147625Y41803D01*
X147580Y41786D01*
X147534Y41774D01*
X147486Y41765D01*
X147438Y41760D01*
X147390Y41759D01*
X147342Y41762D01*
X147294Y41769D01*
X147247Y41780D01*
X147201Y41794D01*
X147156Y41812D01*
X147113Y41834D01*
X147072Y41859D01*
X147034Y41888D01*
X146997Y41920D01*
X146963Y41954D01*
X146933Y41991D01*
X146905Y42030D01*
X146880Y42072D01*
X146860Y42116D01*
X146842Y42161D01*
X146829Y42207D01*
X146819Y42254D01*
X146813Y42302D01*
X146811Y42350D01*
X146811Y30323D02*
X146813Y30371D01*
X146819Y30419D01*
X146829Y30466D01*
X146842Y30512D01*
X146860Y30557D01*
X146880Y30601D01*
X146905Y30643D01*
X146933Y30682D01*
X146963Y30719D01*
X146997Y30753D01*
X147034Y30785D01*
X147072Y30814D01*
X147113Y30839D01*
X147156Y30861D01*
X147201Y30879D01*
X147247Y30893D01*
X147294Y30904D01*
X147342Y30911D01*
X147390Y30914D01*
X147438Y30913D01*
X147486Y30908D01*
X147534Y30899D01*
X147580Y30887D01*
X147625Y30870D01*
X147669Y30850D01*
X147711Y30827D01*
X147751Y30800D01*
X147789Y30770D01*
X147824Y30737D01*
X147856Y30701D01*
X147886Y30663D01*
X147912Y30622D01*
X147934Y30579D01*
X147954Y30535D01*
X147969Y30490D01*
X147981Y30443D01*
X147989Y30395D01*
X147993Y30347D01*
X147993Y30299D01*
X147989Y30251D01*
X147981Y30203D01*
X147969Y30156D01*
X147954Y30111D01*
X147934Y30067D01*
X147912Y30024D01*
X147886Y29983D01*
X147856Y29945D01*
X147824Y29909D01*
X147789Y29876D01*
X147751Y29846D01*
X147711Y29819D01*
X147669Y29796D01*
X147625Y29776D01*
X147580Y29759D01*
X147534Y29747D01*
X147486Y29738D01*
X147438Y29733D01*
X147390Y29732D01*
X147342Y29735D01*
X147294Y29742D01*
X147247Y29753D01*
X147201Y29767D01*
X147156Y29785D01*
X147113Y29807D01*
X147072Y29832D01*
X147034Y29861D01*
X146997Y29893D01*
X146963Y29927D01*
X146933Y29964D01*
X146905Y30003D01*
X146880Y30045D01*
X146860Y30089D01*
X146842Y30134D01*
X146829Y30180D01*
X146819Y30227D01*
X146813Y30275D01*
X146811Y30323D01*
X146811Y35677D02*
X146813Y35725D01*
X146819Y35773D01*
X146829Y35820D01*
X146842Y35866D01*
X146860Y35911D01*
X146880Y35955D01*
X146905Y35997D01*
X146933Y36036D01*
X146963Y36073D01*
X146997Y36107D01*
X147034Y36139D01*
X147072Y36168D01*
X147113Y36193D01*
X147156Y36215D01*
X147201Y36233D01*
X147247Y36247D01*
X147294Y36258D01*
X147342Y36265D01*
X147390Y36268D01*
X147438Y36267D01*
X147486Y36262D01*
X147534Y36253D01*
X147580Y36241D01*
X147625Y36224D01*
X147669Y36204D01*
X147711Y36181D01*
X147751Y36154D01*
X147789Y36124D01*
X147824Y36091D01*
X147856Y36055D01*
X147886Y36017D01*
X147912Y35976D01*
X147934Y35933D01*
X147954Y35889D01*
X147969Y35844D01*
X147981Y35797D01*
X147989Y35749D01*
X147993Y35701D01*
X147993Y35653D01*
X147989Y35605D01*
X147981Y35557D01*
X147969Y35510D01*
X147954Y35465D01*
X147934Y35421D01*
X147912Y35378D01*
X147886Y35337D01*
X147856Y35299D01*
X147824Y35263D01*
X147789Y35230D01*
X147751Y35200D01*
X147711Y35173D01*
X147669Y35150D01*
X147625Y35130D01*
X147580Y35113D01*
X147534Y35101D01*
X147486Y35092D01*
X147438Y35087D01*
X147390Y35086D01*
X147342Y35089D01*
X147294Y35096D01*
X147247Y35107D01*
X147201Y35121D01*
X147156Y35139D01*
X147113Y35161D01*
X147072Y35186D01*
X147034Y35215D01*
X146997Y35247D01*
X146963Y35281D01*
X146933Y35318D01*
X146905Y35357D01*
X146880Y35399D01*
X146860Y35443D01*
X146842Y35488D01*
X146829Y35534D01*
X146819Y35581D01*
X146813Y35629D01*
X146811Y35677D01*
M02*
