M48
;GenerationSoftware,Autodesk,EAGLE,8.6.0*%
;CreationDate,2018-02-05T13:53:36Z*%
FMAT,2
ICI,OFF
INCH,TZ,000.000
T10C0.015
T9C0.028
T8C0.031
T7C0.032
T6C0.039
T5C0.040
T4C0.055
T3C0.118
T2C0.138
T1C0.157
%
G90
M72
T1
X150Y150
X9800Y2950
X7500Y3250
X4050Y2950
X2850Y450
X150Y7550
X7600Y7550
X14850Y7550
X14850Y1100
X10900Y1100
X14850Y4700
T2
X12451Y7427
X14105Y7427
X14105Y4592
X12412Y4592
T3
X210Y7194
X6240Y6798
X6240Y5250
X13818Y1410
X210Y484
X14740Y3865
X14740Y4235
X14740Y3032
X14740Y3568
X210Y1516
X12968Y2110
X6240Y5602
X6240Y4550
X210Y4194
X210Y2006
X12432Y2110
X12968Y1410
X12432Y1410
X13818Y2110
X13282Y2110
X3290Y6798
X3290Y5602
X210Y5006
X13282Y1410
T4
X192Y669
X192Y835
X408Y669
X408Y835
X408Y1165
X408Y1331
X12617Y2092
X12783Y2092
X12783Y2308
X12617Y2308
X12617Y1392
X12783Y1392
X14542Y3217
X14758Y4050
X14542Y4050
X12783Y1608
X408Y4009
X408Y3844
X408Y3679
X408Y3513
X408Y3348
X408Y3183
X408Y3017
X408Y2852
X408Y2687
X408Y2521
X408Y2356
X192Y4009
X192Y3844
X192Y3679
X192Y3348
X192Y3183
X192Y3017
X192Y2852
X192Y2687
X192Y2521
X408Y2191
X192Y2356
X192Y2191
X6042Y5787
X6042Y5952
X6042Y6117
X6042Y6283
X6042Y6448
X6042Y6613
X6258Y6613
X6258Y6117
X6258Y6283
X6258Y6448
X192Y3513
X14758Y3217
X14758Y3383
X14542Y3383
X6258Y5952
X192Y5356
X192Y5191
X3092Y5787
X3092Y5952
X3092Y6117
X3092Y6283
X3092Y6448
X3092Y6613
X3308Y6613
X3308Y6117
X3308Y6283
X3308Y6448
X408Y1000
X3308Y5952
X3308Y5787
X13467Y1608
X192Y1331
X192Y1165
X192Y1000
X6258Y5787
X13467Y2308
X12617Y1608
X13467Y2092
X13633Y2092
X13633Y2308
X6258Y4735
X6258Y4900
X6258Y5065
X6042Y5065
X6042Y4900
X6042Y4735
X13467Y1392
X13633Y1392
X13633Y1608
X408Y5191
X408Y7009
X408Y6844
X408Y6679
X408Y6513
X408Y6348
X408Y6183
X408Y6017
X408Y5852
X408Y5687
X408Y5521
X408Y5356
X192Y7009
X192Y6844
X192Y6679
X192Y6513
X192Y6348
X192Y6183
X192Y6017
X192Y5852
X192Y5687
X192Y5521
T5
X12998Y4673
X12998Y4573
X14689Y2028
X14511Y2028
X13375Y3175
X14689Y1772
X14511Y1772
X13675Y3950
X13375Y3950
X13675Y3175
X13598Y4573
X13798Y4573
X13898Y4573
X13398Y4673
X13498Y4573
X13398Y4573
X13298Y4673
X13198Y4673
X13498Y4673
X13598Y4673
X13698Y4673
X13798Y4673
X13898Y4673
X13298Y4573
X13198Y4573
X13098Y4673
X13098Y4573
X13698Y4573
T6
X5600Y6050
X3700Y7300
X9600Y6800
X11500Y6950
X11500Y6850
X11500Y6750
X11500Y6650
X11500Y6550
X11500Y6450
X9600Y6450
X9600Y6350
X9600Y6250
X9600Y6150
X9600Y6050
X9600Y5950
X9600Y5850
X9600Y5750
X9600Y5550
X9600Y5450
X9600Y5250
X9600Y5150
X9600Y5050
X9600Y4950
X9600Y4850
X9600Y7300
X9600Y7200
X9600Y7100
X9600Y7000
X9600Y6900
X9600Y6700
X9600Y6600
X11300Y4450
X11300Y4550
X11200Y4550
X11200Y4450
X11100Y4450
X11100Y4550
X11000Y4550
X11000Y4450
X10900Y4450
X10900Y4550
X10800Y4450
X10800Y4550
X10700Y4550
X10700Y4450
X10600Y4450
X10600Y4550
X10500Y4550
X10500Y4450
X10400Y4550
X10400Y4450
X10300Y4450
X10300Y4550
X10200Y4550
X10200Y4450
X10100Y4450
X10100Y4550
X10000Y4450
X10000Y4550
X9900Y4550
X9900Y4450
X9800Y4450
X9800Y4550
X9700Y4550
X9700Y4450
X9600Y4550
X9600Y4450
X9600Y5350
X11500Y5350
X11500Y5250
X11500Y5050
X11500Y4950
X11500Y4850
X11500Y4750
X11500Y4650
X11500Y5150
X11500Y6250
X11500Y6150
X11500Y5950
X11500Y5850
X11500Y5750
X11500Y5650
X11500Y5550
X11500Y6050
X9600Y7300
X4200Y4450
X8550Y6950
X8550Y6850
X8550Y6750
X8550Y6650
X8550Y6550
X8550Y6450
X6650Y6450
X6650Y6350
X6650Y6250
X6650Y6150
X6650Y6050
X6650Y5950
X6650Y5850
X6650Y5750
X6650Y5550
X6650Y5450
X6650Y5250
X6650Y5150
X6650Y5050
X6650Y4950
X6650Y4850
X6650Y7300
X6650Y7200
X6650Y7100
X6650Y7000
X6650Y6900
X6650Y6800
X6650Y6700
X6650Y6600
X8350Y4450
X8350Y4550
X8250Y4550
X8250Y4450
X8150Y4450
X8150Y4550
X8050Y4550
X8050Y4450
X7950Y4450
X7950Y4550
X7850Y4450
X7850Y4550
X7750Y4550
X7750Y4450
X7650Y4450
X7650Y4550
X7550Y4550
X7550Y4450
X7450Y4550
X7450Y4450
X7350Y4450
X7350Y4550
X7250Y4550
X7250Y4450
X7150Y4450
X7150Y4550
X7050Y4450
X7050Y4550
X6950Y4550
X6950Y4450
X6850Y4450
X6850Y4550
X6750Y4550
X6750Y4450
X6650Y4550
X6650Y4450
X6650Y5350
X8550Y5350
X8550Y5250
X8550Y5050
X8550Y4950
X8550Y4850
X8550Y4750
X8550Y4650
X8550Y5150
X8550Y6250
X8550Y6150
X8550Y5950
X8550Y5850
X8550Y5750
X8550Y5650
X8550Y5550
X8550Y6050
X6650Y7300
X5600Y6950
X5600Y6850
X5600Y6750
X5600Y6650
X5600Y6550
X5600Y6450
X3700Y6450
X3700Y6350
X3700Y6250
X3700Y6150
X3700Y6050
X3700Y5950
X3700Y5850
X3700Y5750
X3700Y5550
X3700Y5450
X3700Y5250
X3700Y5150
X3700Y5050
X3700Y4950
X3700Y4850
X3700Y7300
X3700Y7200
X3700Y7100
X3700Y7000
X3700Y6900
X3700Y6800
X3700Y6700
X3700Y6600
X5400Y4450
X5400Y4550
X5300Y4550
X5300Y4450
X5200Y4450
X5200Y4550
X5100Y4550
X5100Y4450
X5000Y4450
X5000Y4550
X4900Y4450
X4900Y4550
X4800Y4550
X4800Y4450
X4700Y4450
X4700Y4550
X4600Y4550
X4600Y4450
X4500Y4550
X4500Y4450
X4400Y4450
X4400Y4550
X4300Y4550
X4300Y4450
X4200Y4550
X4100Y4450
X4100Y4550
X4000Y4550
X4000Y4450
X3900Y4450
X3900Y4550
X3800Y4550
X3800Y4450
X3700Y4550
X3700Y4450
X3700Y5350
X5600Y5350
X5600Y5250
X5600Y5050
X5600Y4950
X5600Y4850
X5600Y4750
X5600Y4650
X5600Y5150
X5600Y6250
X5600Y6150
X5600Y5950
X5600Y5850
X5600Y5750
X5600Y5650
X5600Y5550
T7
X2300Y200
X750Y5400
X1150Y5400
X750Y5200
X1150Y5200
X750Y5000
X1150Y5000
X750Y4200
X1150Y4200
X750Y4000
X1150Y4000
X750Y3800
X1150Y3800
X750Y3600
X1150Y3600
X750Y3400
X1150Y3400
X750Y3200
X1150Y3200
X750Y3000
X1150Y3000
X750Y2800
X1150Y2800
X750Y2600
X1150Y2600
X750Y2400
X1150Y2400
X750Y2200
X1150Y2200
X750Y2000
X1150Y2000
X14700Y2200
X14700Y2600
X9650Y4200
X9850Y3800
X9850Y4200
X10050Y3800
X10050Y4200
X10250Y3800
X10250Y4200
X8850Y3800
X8850Y4200
X9050Y3800
X9050Y4200
X9250Y3800
X9250Y4200
X9450Y3800
X9450Y4200
X10450Y3800
X10450Y4200
X10650Y3800
X10650Y4200
X10850Y3800
X2000Y4400
X10850Y4200
X11050Y3800
X11050Y4200
X2650Y4400
X2650Y4300
X2650Y3900
X2650Y3800
X2650Y3400
X2650Y3300
X2650Y2900
X2650Y2800
X2650Y2400
X2650Y2300
X2650Y1900
X2650Y1800
X2650Y7400
X2650Y7300
X2650Y6900
X2650Y6800
X2650Y6400
X2650Y6300
X2650Y5900
X2650Y5800
X2650Y5400
X2650Y5300
X2650Y4900
X2650Y4800
X2650Y1400
X2650Y1300
X2650Y900
X2650Y800
X2300Y1400
X2300Y1500
X2000Y1300
X2000Y1200
X2300Y1300
X2300Y1200
X2000Y1000
X2000Y900
X2300Y900
X2300Y1000
X2000Y800
X2000Y700
X2300Y800
X2300Y700
X2000Y500
X2000Y400
X2300Y400
X2300Y500
X2000Y300
X2000Y200
X2300Y300
X2650Y300
X2300Y5800
X2000Y5700
X2300Y5000
X2000Y5800
X2300Y6000
X2300Y5900
X2000Y5900
X2000Y6000
X2300Y4200
X2300Y4300
X1350Y4200
X1750Y4200
X1350Y2400
X1750Y2400
X1350Y2200
X1750Y2200
X1350Y2000
X1750Y2000
X1350Y7200
X1750Y7200
X1350Y7000
X1750Y7000
X1350Y6800
X1750Y6800
X1350Y6600
X1750Y6600
X1350Y6400
X1750Y6400
X1350Y6200
X1750Y6200
X1350Y6000
X1750Y6000
X1350Y4000
X1750Y4000
X1350Y5800
X1750Y5800
X1350Y5600
X1750Y5600
X1350Y5400
X1750Y5400
X1350Y5200
X1750Y5200
X1350Y5000
X1750Y5000
X1350Y1400
X1750Y1400
X1350Y1200
X1750Y1200
X1350Y1000
X1750Y1000
X1350Y800
X1750Y800
X1350Y600
X1750Y600
X1350Y3800
X1750Y3800
X750Y1400
X1150Y1400
X750Y1200
X1150Y1200
X750Y1000
X1150Y1000
X750Y800
X1150Y800
X750Y600
X1150Y600
X1350Y3600
X1750Y3600
X1350Y3400
X1750Y3400
X1350Y3200
X1750Y3200
X1350Y3000
X1750Y3000
X1350Y2800
X1750Y2800
X1350Y2600
X1750Y2600
X2000Y4200
X2000Y4300
X2300Y4500
X2300Y4400
X2000Y4800
X2000Y4700
X2300Y4800
X2300Y4700
X2000Y4000
X2000Y3900
X2300Y3900
X2300Y4000
X2000Y3800
X2000Y3700
X2300Y3800
X2300Y3700
X2000Y3500
X2000Y3400
X2300Y3400
X2300Y3500
X2000Y3300
X2000Y3200
X2300Y3300
X2300Y3200
X2000Y3000
X2000Y2900
X2300Y2900
X2300Y3000
X2000Y2800
X2000Y2700
X2650Y200
X2300Y2800
X2300Y2700
X2000Y2500
X2000Y2400
X2300Y2400
X2300Y2500
X2000Y2300
X2000Y2200
X2300Y2300
X2300Y2200
X2000Y2000
X2000Y1900
X2300Y1900
X2300Y2000
X2000Y1800
X2000Y1700
X2300Y1800
X2300Y1700
X2000Y7500
X2000Y7400
X2300Y7400
X2300Y7500
X2000Y7300
X2000Y7200
X2300Y7300
X2300Y7200
X2000Y7000
X2000Y6900
X2300Y6900
X2300Y7000
X2000Y6800
X2000Y6700
X2300Y6800
X2300Y6700
X2000Y6500
X2000Y6400
X2300Y6400
X2300Y6500
X2000Y6300
X2000Y6200
X2300Y6300
X2300Y6200
X2300Y4900
X2000Y4900
X2000Y5000
X2300Y5200
X2300Y5300
X2000Y5200
X2000Y5300
X2300Y5500
X2300Y5400
X2000Y5400
X2000Y5500
X2300Y5700
X2000Y1500
X2000Y1400
X2000Y4500
X14050Y3900
X14050Y4000
X14050Y3125
X14050Y3225
X9650Y3800
X750Y7200
X1150Y7200
X750Y7000
X1150Y7000
X750Y6800
X1150Y6800
X750Y6600
X1150Y6600
X750Y6400
X1150Y6400
X750Y6200
X1150Y6200
X750Y6000
X1150Y6000
X750Y5800
X1150Y5800
X750Y5600
X1150Y5600
T8
X6900Y7150
X6650Y7400
X8550Y7150
X9850Y6950
X9850Y7050
X11500Y7050
X8550Y7050
X6900Y7250
X6900Y6950
X6900Y7050
X9600Y7500
X3700Y7500
X3700Y7400
X5600Y7150
X5600Y7050
X3950Y7250
X3950Y7150
X3950Y7050
X3950Y6950
X9850Y7150
X9850Y7250
X9600Y7400
X11500Y7150
X6650Y7500
T9
X10500Y5750
X10400Y5750
X4600Y5750
X4700Y5750
X4700Y5650
X4600Y5650
X4500Y5650
X7650Y5750
X7650Y5650
X7550Y5650
X7450Y5650
X7450Y5750
X4500Y5750
X7550Y5750
X10400Y5650
X10500Y5650
X10600Y5650
X10600Y5750
T10
X14000Y1025
X14500Y1025
X14925Y1450
X14925Y1950
X14925Y2450
X14925Y2950
X14925Y3450
X14925Y3950
X14925Y4450
X14925Y4950
X14925Y5950
X14925Y6450
X14925Y6950
X14925Y7425
X14500Y7625
X14000Y7625
X13500Y7625
X13000Y7625
X12500Y7625
X12000Y7625
X11500Y7625
X11000Y7625
X10500Y7625
X10000Y7625
X9500Y7625
X2000Y75
X8500Y7625
X8000Y7625
X7475Y7625
X7000Y7625
X6000Y7625
X5500Y7625
X5000Y7625
X4500Y7625
X4000Y7625
X3500Y7625
X3000Y7625
X2500Y7625
X2000Y7625
X1500Y7625
X1000Y7625
X14925Y5450
X75Y6500
X75Y5500
X75Y6000
X75Y5000
X75Y4500
X75Y4000
X75Y3500
X75Y3000
X75Y2500
X75Y2000
X75Y1500
X75Y1000
X75Y500
X500Y75
X1000Y75
X1500Y75
X2500Y75
X3000Y625
X3450Y1550
X3750Y2150
X4025Y2725
X4300Y3175
X4800Y3175
X5300Y3175
X5800Y3175
X6300Y3175
X6800Y3175
X7300Y3175
X7800Y3175
X8300Y3175
X8800Y3175
X9300Y3175
X9825Y2725
X9000Y7625
X6500Y7625
X10375Y1800
X13200Y5075
X11000Y3275
X10200Y3275
X10650Y1350
X11025Y1025
X10100Y2275
X500Y7625
X11500Y1025
X12000Y1025
X75Y7000
X12500Y1025
X13000Y1025
X13500Y1025
X9400Y3275
M30